<svg xmlns="http://www.w3.org/2000/svg" xmlns:xlink="http://www.w3.org/1999/xlink" width="359" zoomAndPan="magnify" viewBox="0 0 269.25 113.249998" height="151" preserveAspectRatio="xMidYMid meet" version="1.0"><defs><g/><clipPath id="00959b7819"><path d="M 0.683594 14.421875 L 90.835938 14.421875 L 90.835938 79.988281 L 0.683594 79.988281 Z M 0.683594 14.421875 " clip-rule="nonzero"/></clipPath><clipPath id="d13119f5ad"><path d="M 68.933594 0.570312 L 112.148438 0.570312 L 112.148438 46 L 68.933594 46 Z M 68.933594 0.570312 " clip-rule="nonzero"/></clipPath></defs><g fill="#000000" fill-opacity="1"><g transform="translate(1.252163, 107.285765)"><g><path d="M 4.933594 0.195312 C 8.089844 0.195312 9.121094 -1.148438 9.121094 -3.679688 L 9.121094 -11.621094 L 6.707031 -11.621094 L 6.707031 -3.753906 C 6.707031 -2.519531 6.304688 -1.890625 4.933594 -1.890625 C 3.5625 -1.890625 3.175781 -2.519531 3.175781 -3.753906 L 3.175781 -11.621094 L 0.761719 -11.621094 L 0.761719 -3.679688 C 0.761719 -1.148438 1.773438 0.195312 4.933594 0.195312 Z M 4.933594 0.195312 "/></g></g></g><g fill="#000000" fill-opacity="1"><g transform="translate(11.131731, 107.285765)"><g><path d="M 7.925781 0 L 7.925781 -5.347656 C 7.925781 -6.78125 7.273438 -8.089844 5.484375 -8.089844 C 4.261719 -8.089844 3.441406 -7.585938 2.949219 -6.882812 L 2.773438 -7.898438 L 0.671875 -7.898438 L 0.804688 -5.664062 L 0.804688 0 L 3.160156 0 L 3.160156 -5.320312 C 3.339844 -5.601562 3.800781 -6.066406 4.542969 -6.066406 C 5.347656 -6.066406 5.589844 -5.527344 5.589844 -4.960938 L 5.589844 0 Z M 7.925781 0 "/></g></g></g><g fill="#000000" fill-opacity="1"><g transform="translate(19.774487, 107.285765)"><g/></g><g transform="translate(22.75475, 107.285765)"><g><path d="M 12.144531 0 L 12.144531 -5.4375 C 12.144531 -6.929688 11.445312 -8.089844 9.804688 -8.089844 C 8.628906 -8.089844 7.851562 -7.570312 7.375 -6.871094 C 7.035156 -7.613281 6.363281 -8.089844 5.304688 -8.089844 C 4.171875 -8.089844 3.414062 -7.613281 2.9375 -6.945312 L 2.773438 -7.898438 L 0.671875 -7.898438 L 0.804688 -5.664062 L 0.804688 0 L 3.160156 0 L 3.160156 -5.378906 C 3.339844 -5.664062 3.710938 -6.066406 4.367188 -6.066406 C 5.023438 -6.066406 5.304688 -5.691406 5.304688 -5.066406 L 5.304688 0 L 7.644531 0 L 7.644531 -5.378906 C 7.839844 -5.664062 8.195312 -6.066406 8.867188 -6.066406 C 9.523438 -6.066406 9.804688 -5.691406 9.804688 -5.066406 L 9.804688 0 Z M 12.144531 0 "/></g></g></g><g fill="#000000" fill-opacity="1"><g transform="translate(35.614569, 107.285765)"><g><path d="M 4.140625 0.195312 C 6.691406 0.195312 7.839844 -1.402344 7.839844 -3.679688 L 7.839844 -4.21875 C 7.839844 -6.496094 6.691406 -8.089844 4.140625 -8.089844 C 1.609375 -8.089844 0.445312 -6.496094 0.445312 -4.21875 L 0.445312 -3.679688 C 0.445312 -1.402344 1.609375 0.195312 4.140625 0.195312 Z M 4.140625 -1.832031 C 3.21875 -1.832031 2.800781 -2.519531 2.800781 -3.679688 L 2.800781 -4.21875 C 2.800781 -5.378906 3.21875 -6.066406 4.140625 -6.066406 C 5.082031 -6.066406 5.484375 -5.378906 5.484375 -4.21875 L 5.484375 -3.679688 C 5.484375 -2.519531 5.082031 -1.832031 4.140625 -1.832031 Z M 4.140625 -1.832031 "/></g></g></g><g fill="#000000" fill-opacity="1"><g transform="translate(43.899696, 107.285765)"><g><path d="M 7.925781 0 L 7.925781 -5.347656 C 7.925781 -6.78125 7.273438 -8.089844 5.484375 -8.089844 C 4.261719 -8.089844 3.441406 -7.585938 2.949219 -6.882812 L 2.773438 -7.898438 L 0.671875 -7.898438 L 0.804688 -5.664062 L 0.804688 0 L 3.160156 0 L 3.160156 -5.320312 C 3.339844 -5.601562 3.800781 -6.066406 4.542969 -6.066406 C 5.347656 -6.066406 5.589844 -5.527344 5.589844 -4.960938 L 5.589844 0 Z M 7.925781 0 "/></g></g></g><g fill="#000000" fill-opacity="1"><g transform="translate(52.542452, 107.285765)"><g><path d="M 3.5 -8.089844 C 1.339844 -8.089844 0.566406 -6.496094 0.566406 -4.21875 L 0.566406 -3.679688 C 0.566406 -1.402344 1.339844 0.195312 3.5 0.195312 C 4.589844 0.195312 5.289062 -0.28125 5.738281 -0.9375 L 5.902344 0 L 8.015625 0 L 7.882812 -2.234375 L 7.882812 -11.921875 L 5.527344 -11.921875 L 5.527344 -7.226562 C 5.082031 -7.75 4.425781 -8.089844 3.5 -8.089844 Z M 5.527344 -5.320312 L 5.527344 -2.578125 C 5.335938 -2.292969 4.886719 -1.832031 4.1875 -1.832031 C 3.261719 -1.832031 2.90625 -2.519531 2.90625 -3.679688 L 2.90625 -4.21875 C 2.90625 -5.378906 3.261719 -6.066406 4.1875 -6.066406 C 4.886719 -6.066406 5.335938 -5.601562 5.527344 -5.320312 Z M 5.527344 -5.320312 "/></g></g></g><g fill="#000000" fill-opacity="1"><g transform="translate(61.215005, 107.285765)"><g><path d="M 7.839844 -3.097656 L 7.839844 -4.15625 C 7.839844 -6.4375 6.691406 -8.089844 4.1875 -8.089844 C 1.699219 -8.089844 0.445312 -6.4375 0.445312 -4.15625 L 0.445312 -3.738281 C 0.445312 -1.460938 1.652344 0.195312 4.277344 0.195312 C 6.554688 0.195312 7.839844 -0.96875 7.839844 -2.472656 L 7.839844 -2.535156 L 5.617188 -2.535156 C 5.617188 -2.054688 5.109375 -1.59375 4.292969 -1.59375 C 3.414062 -1.59375 2.890625 -1.996094 2.800781 -3.097656 Z M 4.140625 -6.304688 C 4.976562 -6.304688 5.394531 -5.828125 5.46875 -4.796875 L 2.816406 -4.796875 C 2.890625 -5.828125 3.308594 -6.304688 4.140625 -6.304688 Z M 4.140625 -6.304688 "/></g></g></g><g fill="#000000" fill-opacity="1"><g transform="translate(69.500133, 107.285765)"><g/></g><g transform="translate(72.480396, 107.285765)"><g><path d="M 3.5 -8.089844 C 1.339844 -8.089844 0.566406 -6.496094 0.566406 -4.21875 L 0.566406 -3.679688 C 0.566406 -1.402344 1.339844 0.195312 3.5 0.195312 C 4.589844 0.195312 5.289062 -0.28125 5.738281 -0.9375 L 5.902344 0 L 8.015625 0 L 7.882812 -2.234375 L 7.882812 -11.921875 L 5.527344 -11.921875 L 5.527344 -7.226562 C 5.082031 -7.75 4.425781 -8.089844 3.5 -8.089844 Z M 5.527344 -5.320312 L 5.527344 -2.578125 C 5.335938 -2.292969 4.886719 -1.832031 4.1875 -1.832031 C 3.261719 -1.832031 2.90625 -2.519531 2.90625 -3.679688 L 2.90625 -4.21875 C 2.90625 -5.378906 3.261719 -6.066406 4.1875 -6.066406 C 4.886719 -6.066406 5.335938 -5.601562 5.527344 -5.320312 Z M 5.527344 -5.320312 "/></g></g></g><g fill="#000000" fill-opacity="1"><g transform="translate(81.152949, 107.285765)"><g><path d="M 7.839844 -3.097656 L 7.839844 -4.15625 C 7.839844 -6.4375 6.691406 -8.089844 4.1875 -8.089844 C 1.699219 -8.089844 0.445312 -6.4375 0.445312 -4.15625 L 0.445312 -3.738281 C 0.445312 -1.460938 1.652344 0.195312 4.277344 0.195312 C 6.554688 0.195312 7.839844 -0.96875 7.839844 -2.472656 L 7.839844 -2.535156 L 5.617188 -2.535156 C 5.617188 -2.054688 5.109375 -1.59375 4.292969 -1.59375 C 3.414062 -1.59375 2.890625 -1.996094 2.800781 -3.097656 Z M 4.140625 -6.304688 C 4.976562 -6.304688 5.394531 -5.828125 5.46875 -4.796875 L 2.816406 -4.796875 C 2.890625 -5.828125 3.308594 -6.304688 4.140625 -6.304688 Z M 4.140625 -6.304688 "/></g></g></g><g fill="#000000" fill-opacity="1"><g transform="translate(89.438076, 107.285765)"><g/></g><g transform="translate(92.418339, 107.285765)"><g><path d="M 0.804688 0 L 3.160156 0 L 3.160156 -11.921875 L 0.804688 -11.921875 Z M 0.804688 0 "/></g></g></g><g fill="#000000" fill-opacity="1"><g transform="translate(96.382083, 107.285765)"><g><path d="M 5.484375 0 L 7.601562 0 L 7.449219 -2.234375 L 7.449219 -5.082031 C 7.449219 -6.988281 6.675781 -8.089844 4.097656 -8.089844 C 1.488281 -8.089844 0.746094 -6.796875 0.746094 -5.425781 L 0.746094 -5.289062 L 2.964844 -5.289062 C 2.964844 -5.8125 3.175781 -6.304688 4.023438 -6.304688 C 4.828125 -6.304688 5.082031 -5.914062 5.097656 -5.140625 L 3.277344 -4.859375 C 1.625 -4.605469 0.445312 -4.039062 0.445312 -2.324219 L 0.445312 -2.175781 C 0.445312 -0.910156 1.085938 0.195312 2.859375 0.195312 C 3.964844 0.195312 4.785156 -0.222656 5.335938 -0.820312 Z M 3.726562 -1.714844 C 3.039062 -1.714844 2.785156 -2.117188 2.785156 -2.519531 L 2.785156 -2.609375 C 2.785156 -3.085938 3.023438 -3.425781 3.753906 -3.546875 L 5.097656 -3.753906 L 5.097656 -2.308594 C 4.84375 -2.042969 4.394531 -1.714844 3.726562 -1.714844 Z M 3.726562 -1.714844 "/></g></g></g><g fill="#000000" fill-opacity="1"><g transform="translate(104.562902, 107.285765)"><g><path d="M 7.925781 0 L 7.925781 -5.347656 C 7.925781 -6.78125 7.273438 -8.089844 5.484375 -8.089844 C 4.261719 -8.089844 3.441406 -7.585938 2.949219 -6.882812 L 2.773438 -7.898438 L 0.671875 -7.898438 L 0.804688 -5.664062 L 0.804688 0 L 3.160156 0 L 3.160156 -5.320312 C 3.339844 -5.601562 3.800781 -6.066406 4.542969 -6.066406 C 5.347656 -6.066406 5.589844 -5.527344 5.589844 -4.960938 L 5.589844 0 Z M 7.925781 0 "/></g></g></g><g fill="#000000" fill-opacity="1"><g transform="translate(113.205658, 107.285765)"><g><path d="M 5.410156 -0.164062 C 5.410156 0.910156 4.976562 1.265625 4.066406 1.265625 C 3.085938 1.265625 2.816406 0.746094 2.816406 0 L 0.597656 0 L 0.597656 0.3125 C 0.597656 1.90625 1.476562 3.175781 4.113281 3.175781 C 6.601562 3.175781 7.761719 2.027344 7.761719 -0.148438 L 7.761719 -5.664062 L 7.898438 -7.898438 L 5.796875 -7.898438 L 5.632812 -6.988281 C 5.1875 -7.628906 4.484375 -8.089844 3.382812 -8.089844 C 1.28125 -8.089844 0.445312 -6.511719 0.445312 -4.394531 L 0.445312 -3.980469 C 0.445312 -1.730469 1.28125 -0.28125 3.382812 -0.28125 C 4.304688 -0.28125 4.960938 -0.597656 5.410156 -1.085938 Z M 4.066406 -2.308594 C 3.21875 -2.308594 2.800781 -2.847656 2.800781 -3.980469 L 2.800781 -4.394531 C 2.800781 -5.394531 3.21875 -6.066406 4.066406 -6.066406 C 4.785156 -6.066406 5.230469 -5.601562 5.410156 -5.320312 L 5.410156 -3.054688 C 5.230469 -2.773438 4.785156 -2.308594 4.066406 -2.308594 Z M 4.066406 -2.308594 "/></g></g></g><g fill="#000000" fill-opacity="1"><g transform="translate(121.759009, 107.285765)"><g><path d="M 0.714844 -7.898438 L 0.714844 -2.546875 C 0.714844 -1.117188 1.355469 0.195312 3.160156 0.195312 C 4.367188 0.195312 5.1875 -0.296875 5.691406 -1 L 5.871094 0 L 7.972656 0 L 7.839844 -2.234375 L 7.839844 -7.898438 L 5.484375 -7.898438 L 5.484375 -2.578125 C 5.289062 -2.292969 4.84375 -1.832031 4.097656 -1.832031 C 3.292969 -1.832031 3.054688 -2.371094 3.054688 -2.9375 L 3.054688 -7.898438 Z M 0.714844 -7.898438 "/></g></g></g><g fill="#000000" fill-opacity="1"><g transform="translate(130.401765, 107.285765)"><g><path d="M 7.839844 -3.097656 L 7.839844 -4.15625 C 7.839844 -6.4375 6.691406 -8.089844 4.1875 -8.089844 C 1.699219 -8.089844 0.445312 -6.4375 0.445312 -4.15625 L 0.445312 -3.738281 C 0.445312 -1.460938 1.652344 0.195312 4.277344 0.195312 C 6.554688 0.195312 7.839844 -0.96875 7.839844 -2.472656 L 7.839844 -2.535156 L 5.617188 -2.535156 C 5.617188 -2.054688 5.109375 -1.59375 4.292969 -1.59375 C 3.414062 -1.59375 2.890625 -1.996094 2.800781 -3.097656 Z M 4.140625 -6.304688 C 4.976562 -6.304688 5.394531 -5.828125 5.46875 -4.796875 L 2.816406 -4.796875 C 2.890625 -5.828125 3.308594 -6.304688 4.140625 -6.304688 Z M 4.140625 -6.304688 "/></g></g></g><g fill="#000000" fill-opacity="1"><g transform="translate(138.686892, 107.285765)"><g><path d="M 3.933594 -1.59375 C 3.144531 -1.59375 2.859375 -1.980469 2.859375 -2.503906 L 0.523438 -2.503906 L 0.523438 -2.429688 C 0.523438 -0.894531 1.625 0.195312 3.933594 0.195312 C 6.214844 0.195312 7.359375 -0.820312 7.359375 -2.457031 L 7.359375 -2.59375 C 7.359375 -4.261719 6.050781 -4.664062 4.066406 -4.828125 C 3.160156 -4.902344 2.9375 -5.109375 2.9375 -5.589844 C 2.9375 -6.019531 3.277344 -6.304688 3.933594 -6.304688 C 4.648438 -6.304688 4.945312 -5.929688 4.945312 -5.304688 L 7.257812 -5.304688 L 7.257812 -5.378906 C 7.257812 -7.078125 6.257812 -8.089844 3.933594 -8.089844 C 2.054688 -8.089844 0.609375 -7.332031 0.609375 -5.511719 L 0.609375 -5.378906 C 0.609375 -3.890625 1.578125 -3.339844 3.816406 -3.160156 C 4.738281 -3.085938 4.992188 -2.859375 4.992188 -2.371094 C 4.992188 -1.921875 4.695312 -1.59375 3.933594 -1.59375 Z M 3.933594 -1.59375 "/></g></g></g><g fill="#000000" fill-opacity="1"><g transform="translate(146.554785, 107.285765)"><g/></g></g><g fill="#000000" fill-opacity="1"><g transform="translate(149.535048, 107.285765)"><g><path d="M 5.484375 0 L 7.601562 0 L 7.449219 -2.234375 L 7.449219 -5.082031 C 7.449219 -6.988281 6.675781 -8.089844 4.097656 -8.089844 C 1.488281 -8.089844 0.746094 -6.796875 0.746094 -5.425781 L 0.746094 -5.289062 L 2.964844 -5.289062 C 2.964844 -5.8125 3.175781 -6.304688 4.023438 -6.304688 C 4.828125 -6.304688 5.082031 -5.914062 5.097656 -5.140625 L 3.277344 -4.859375 C 1.625 -4.605469 0.445312 -4.039062 0.445312 -2.324219 L 0.445312 -2.175781 C 0.445312 -0.910156 1.085938 0.195312 2.859375 0.195312 C 3.964844 0.195312 4.785156 -0.222656 5.335938 -0.820312 Z M 1.328125 -11.621094 L 2.921875 -8.882812 L 5.246094 -8.882812 L 3.890625 -11.621094 Z M 3.726562 -1.714844 C 3.039062 -1.714844 2.785156 -2.117188 2.785156 -2.519531 L 2.785156 -2.609375 C 2.785156 -3.085938 3.023438 -3.425781 3.753906 -3.546875 L 5.097656 -3.753906 L 5.097656 -2.308594 C 4.84375 -2.042969 4.394531 -1.714844 3.726562 -1.714844 Z M 3.726562 -1.714844 "/></g></g></g><g fill="#000000" fill-opacity="1"><g transform="translate(157.715866, 107.285765)"><g/></g><g transform="translate(160.696129, 107.285765)"><g><path d="M 5.171875 0.195312 C 7.332031 0.195312 8.105469 -1.402344 8.105469 -3.679688 L 8.105469 -4.21875 C 8.105469 -6.496094 7.332031 -8.089844 5.171875 -8.089844 C 4.066406 -8.089844 3.367188 -7.601562 2.921875 -6.929688 L 2.757812 -7.898438 L 0.65625 -7.898438 L 0.789062 -5.664062 L 0.789062 2.980469 L 3.144531 2.980469 L 3.144531 -0.671875 C 3.589844 -0.148438 4.230469 0.195312 5.171875 0.195312 Z M 4.484375 -6.066406 C 5.394531 -6.066406 5.75 -5.378906 5.75 -4.21875 L 5.75 -3.679688 C 5.75 -2.519531 5.394531 -1.832031 4.484375 -1.832031 C 3.785156 -1.832031 3.339844 -2.292969 3.144531 -2.578125 L 3.144531 -5.320312 C 3.339844 -5.601562 3.785156 -6.066406 4.484375 -6.066406 Z M 4.484375 -6.066406 "/></g></g></g><g fill="#000000" fill-opacity="1"><g transform="translate(169.249481, 107.285765)"><g><path d="M 4.140625 0.195312 C 6.691406 0.195312 7.839844 -1.402344 7.839844 -3.679688 L 7.839844 -4.21875 C 7.839844 -6.496094 6.691406 -8.089844 4.140625 -8.089844 C 1.609375 -8.089844 0.445312 -6.496094 0.445312 -4.21875 L 0.445312 -3.679688 C 0.445312 -1.402344 1.609375 0.195312 4.140625 0.195312 Z M 4.140625 -1.832031 C 3.21875 -1.832031 2.800781 -2.519531 2.800781 -3.679688 L 2.800781 -4.21875 C 2.800781 -5.378906 3.21875 -6.066406 4.140625 -6.066406 C 5.082031 -6.066406 5.484375 -5.378906 5.484375 -4.21875 L 5.484375 -3.679688 C 5.484375 -2.519531 5.082031 -1.832031 4.140625 -1.832031 Z M 4.140625 -1.832031 "/></g></g></g><g fill="#000000" fill-opacity="1"><g transform="translate(177.534608, 107.285765)"><g><path d="M 5.035156 -8.089844 C 4.113281 -8.089844 3.398438 -7.628906 2.9375 -6.972656 L 2.773438 -7.898438 L 0.671875 -7.898438 L 0.804688 -5.664062 L 0.804688 0 L 3.160156 0 L 3.160156 -5.125 C 3.367188 -5.425781 3.902344 -5.8125 4.859375 -5.8125 L 5.261719 -5.8125 L 5.261719 -8.078125 C 5.199219 -8.089844 5.109375 -8.089844 5.035156 -8.089844 Z M 5.035156 -8.089844 "/></g></g></g><g fill="#000000" fill-opacity="1"><g transform="translate(183.271612, 107.285765)"><g><path d="M 3.84375 -7.898438 L 3.84375 -10.132812 L 1.488281 -10.132812 L 1.488281 -7.898438 L 0.28125 -7.898438 L 0.28125 -5.839844 L 1.488281 -5.839844 L 1.488281 -2.742188 C 1.488281 -0.566406 2.683594 0.195312 4.457031 0.195312 C 5.171875 0.195312 5.589844 0.0742188 5.722656 0 L 5.722656 -1.9375 C 5.632812 -1.890625 5.261719 -1.832031 5.007812 -1.832031 C 4.292969 -1.832031 3.84375 -2.027344 3.84375 -2.996094 L 3.84375 -5.839844 L 5.871094 -5.839844 L 5.871094 -7.898438 Z M 3.84375 -7.898438 "/></g></g></g><g fill="#000000" fill-opacity="1"><g transform="translate(189.694075, 107.285765)"><g><path d="M 7.839844 -3.097656 L 7.839844 -4.15625 C 7.839844 -6.4375 6.691406 -8.089844 4.1875 -8.089844 C 1.699219 -8.089844 0.445312 -6.4375 0.445312 -4.15625 L 0.445312 -3.738281 C 0.445312 -1.460938 1.652344 0.195312 4.277344 0.195312 C 6.554688 0.195312 7.839844 -0.96875 7.839844 -2.472656 L 7.839844 -2.535156 L 5.617188 -2.535156 C 5.617188 -2.054688 5.109375 -1.59375 4.292969 -1.59375 C 3.414062 -1.59375 2.890625 -1.996094 2.800781 -3.097656 Z M 4.382812 -11.621094 L 3.023438 -8.882812 L 5.347656 -8.882812 L 6.945312 -11.621094 Z M 4.140625 -6.304688 C 4.976562 -6.304688 5.394531 -5.828125 5.46875 -4.796875 L 2.816406 -4.796875 C 2.890625 -5.828125 3.308594 -6.304688 4.140625 -6.304688 Z M 4.140625 -6.304688 "/></g></g></g><g fill="#000000" fill-opacity="1"><g transform="translate(197.979214, 107.285765)"><g><path d="M 7.839844 -3.097656 L 7.839844 -4.15625 C 7.839844 -6.4375 6.691406 -8.089844 4.1875 -8.089844 C 1.699219 -8.089844 0.445312 -6.4375 0.445312 -4.15625 L 0.445312 -3.738281 C 0.445312 -1.460938 1.652344 0.195312 4.277344 0.195312 C 6.554688 0.195312 7.839844 -0.96875 7.839844 -2.472656 L 7.839844 -2.535156 L 5.617188 -2.535156 C 5.617188 -2.054688 5.109375 -1.59375 4.292969 -1.59375 C 3.414062 -1.59375 2.890625 -1.996094 2.800781 -3.097656 Z M 4.140625 -6.304688 C 4.976562 -6.304688 5.394531 -5.828125 5.46875 -4.796875 L 2.816406 -4.796875 C 2.890625 -5.828125 3.308594 -6.304688 4.140625 -6.304688 Z M 4.140625 -6.304688 "/></g></g></g><g fill="#000000" fill-opacity="1"><g transform="translate(206.264341, 107.285765)"><g/></g><g transform="translate(209.244605, 107.285765)"><g><path d="M 3.5 -8.089844 C 1.339844 -8.089844 0.566406 -6.496094 0.566406 -4.21875 L 0.566406 -3.679688 C 0.566406 -1.402344 1.339844 0.195312 3.5 0.195312 C 4.589844 0.195312 5.289062 -0.28125 5.738281 -0.9375 L 5.902344 0 L 8.015625 0 L 7.882812 -2.234375 L 7.882812 -11.921875 L 5.527344 -11.921875 L 5.527344 -7.226562 C 5.082031 -7.75 4.425781 -8.089844 3.5 -8.089844 Z M 5.527344 -5.320312 L 5.527344 -2.578125 C 5.335938 -2.292969 4.886719 -1.832031 4.1875 -1.832031 C 3.261719 -1.832031 2.90625 -2.519531 2.90625 -3.679688 L 2.90625 -4.21875 C 2.90625 -5.378906 3.261719 -6.066406 4.1875 -6.066406 C 4.886719 -6.066406 5.335938 -5.601562 5.527344 -5.320312 Z M 5.527344 -5.320312 "/></g></g></g><g fill="#000000" fill-opacity="1"><g transform="translate(217.917158, 107.285765)"><g><path d="M 7.839844 -3.097656 L 7.839844 -4.15625 C 7.839844 -6.4375 6.691406 -8.089844 4.1875 -8.089844 C 1.699219 -8.089844 0.445312 -6.4375 0.445312 -4.15625 L 0.445312 -3.738281 C 0.445312 -1.460938 1.652344 0.195312 4.277344 0.195312 C 6.554688 0.195312 7.839844 -0.96875 7.839844 -2.472656 L 7.839844 -2.535156 L 5.617188 -2.535156 C 5.617188 -2.054688 5.109375 -1.59375 4.292969 -1.59375 C 3.414062 -1.59375 2.890625 -1.996094 2.800781 -3.097656 Z M 4.140625 -6.304688 C 4.976562 -6.304688 5.394531 -5.828125 5.46875 -4.796875 L 2.816406 -4.796875 C 2.890625 -5.828125 3.308594 -6.304688 4.140625 -6.304688 Z M 4.140625 -6.304688 "/></g></g></g><g fill="#000000" fill-opacity="1"><g transform="translate(226.202285, 107.285765)"><g/></g><g transform="translate(229.182548, 107.285765)"><g><path d="M 12.144531 0 L 12.144531 -5.4375 C 12.144531 -6.929688 11.445312 -8.089844 9.804688 -8.089844 C 8.628906 -8.089844 7.851562 -7.570312 7.375 -6.871094 C 7.035156 -7.613281 6.363281 -8.089844 5.304688 -8.089844 C 4.171875 -8.089844 3.414062 -7.613281 2.9375 -6.945312 L 2.773438 -7.898438 L 0.671875 -7.898438 L 0.804688 -5.664062 L 0.804688 0 L 3.160156 0 L 3.160156 -5.378906 C 3.339844 -5.664062 3.710938 -6.066406 4.367188 -6.066406 C 5.023438 -6.066406 5.304688 -5.691406 5.304688 -5.066406 L 5.304688 0 L 7.644531 0 L 7.644531 -5.378906 C 7.839844 -5.664062 8.195312 -6.066406 8.867188 -6.066406 C 9.523438 -6.066406 9.804688 -5.691406 9.804688 -5.066406 L 9.804688 0 Z M 12.144531 0 "/></g></g></g><g fill="#000000" fill-opacity="1"><g transform="translate(242.042367, 107.285765)"><g><path d="M 5.484375 0 L 7.601562 0 L 7.449219 -2.234375 L 7.449219 -5.082031 C 7.449219 -6.988281 6.675781 -8.089844 4.097656 -8.089844 C 1.488281 -8.089844 0.746094 -6.796875 0.746094 -5.425781 L 0.746094 -5.289062 L 2.964844 -5.289062 C 2.964844 -5.8125 3.175781 -6.304688 4.023438 -6.304688 C 4.828125 -6.304688 5.082031 -5.914062 5.097656 -5.140625 L 3.277344 -4.859375 C 1.625 -4.605469 0.445312 -4.039062 0.445312 -2.324219 L 0.445312 -2.175781 C 0.445312 -0.910156 1.085938 0.195312 2.859375 0.195312 C 3.964844 0.195312 4.785156 -0.222656 5.335938 -0.820312 Z M 3.726562 -1.714844 C 3.039062 -1.714844 2.785156 -2.117188 2.785156 -2.519531 L 2.785156 -2.609375 C 2.785156 -3.085938 3.023438 -3.425781 3.753906 -3.546875 L 5.097656 -3.753906 L 5.097656 -2.308594 C 4.84375 -2.042969 4.394531 -1.714844 3.726562 -1.714844 Z M 3.726562 -1.714844 "/></g></g></g><g fill="#000000" fill-opacity="1"><g transform="translate(250.223175, 107.285765)"><g><path d="M 0.804688 0 L 3.160156 0 L 3.160156 -7.898438 L 0.804688 -7.898438 Z M 3.21875 -11.503906 L 0.746094 -11.503906 L 0.746094 -9.015625 L 3.21875 -9.015625 Z M 3.21875 -11.503906 "/></g></g></g><g fill="#000000" fill-opacity="1"><g transform="translate(254.18693, 107.285765)"><g><path d="M 7.925781 0 L 7.925781 -5.347656 C 7.925781 -6.78125 7.273438 -8.089844 5.484375 -8.089844 C 4.261719 -8.089844 3.441406 -7.585938 2.949219 -6.882812 L 2.773438 -7.898438 L 0.671875 -7.898438 L 0.804688 -5.664062 L 0.804688 0 L 3.160156 0 L 3.160156 -5.320312 C 3.339844 -5.601562 3.800781 -6.066406 4.542969 -6.066406 C 5.347656 -6.066406 5.589844 -5.527344 5.589844 -4.960938 L 5.589844 0 Z M 7.925781 0 "/></g></g></g><g fill="#000000" fill-opacity="1"><g transform="translate(262.829674, 107.285765)"><g><path d="M 3.21875 -2.488281 L 0.746094 -2.488281 L 0.746094 0 L 3.21875 0 Z M 3.21875 -2.488281 "/></g></g></g><g clip-path="url(#00959b7819)"><path fill="#2b59ff" d="M 87.921875 73.101562 C 87.921875 74.386719 86.859375 75.433594 85.492188 75.433594 L 45.753906 77.078125 L 5.957031 75.433594 C 4.652344 75.433594 3.589844 74.386719 3.589844 73.101562 L 3.589844 24.285156 C 3.589844 22.996094 4.652344 21.945312 5.957031 21.945312 L 7.691406 21.945312 L 7.691406 71.398438 C 7.792969 72.421875 8.601562 72.789062 9.222656 72.851562 C 9.351562 72.863281 22.519531 72.179688 32.746094 72.140625 C 41.097656 72.140625 45.5625 73.890625 45.75 73.890625 C 45.945312 73.890625 50.410156 72.140625 59.027344 72.140625 C 68.988281 72.179688 82.15625 72.851562 82.285156 72.851562 C 83.253906 72.839844 83.785156 72.125 83.8125 71.398438 L 83.8125 21.945312 L 85.554688 21.945312 C 86.859375 21.945312 87.921875 22.996094 87.921875 24.285156 Z M 41.890625 69.972656 C 39.648438 69.578125 36.539062 69.234375 32.46875 69.234375 C 26.902344 69.253906 20.394531 69.472656 15.640625 69.660156 C 20.316406 68.234375 26.945312 66.578125 32.539062 66.550781 C 36.867188 66.550781 39.929688 68.3125 41.890625 69.972656 Z M 10.601562 22.855469 C 13.789062 21.574219 24.910156 17.332031 32.453125 17.332031 C 39.800781 17.414062 43.339844 20.628906 44.300781 21.683594 L 44.300781 68.199219 C 41.960938 66.074219 38.0625 63.644531 32.464844 63.644531 C 24.445312 63.679688 14.722656 66.785156 10.601562 68.242188 Z M 75.878906 69.660156 C 71.089844 69.472656 64.496094 69.253906 58.761719 69.234375 C 54.851562 69.234375 51.835938 69.570312 49.636719 69.957031 C 51.605469 68.300781 54.683594 66.550781 59.035156 66.550781 C 64.59375 66.578125 71.207031 68.238281 75.878906 69.660156 Z M 47.207031 21.6875 C 48.183594 20.625 51.746094 17.414062 59.253906 17.328125 C 66.625 17.328125 77.71875 21.570312 80.90625 22.855469 L 80.90625 68.242188 C 76.78125 66.785156 67.050781 63.679688 58.964844 63.644531 C 53.417969 63.644531 49.542969 66.070312 47.207031 68.195312 Z M 85.554688 19.039062 L 79.101562 19.039062 C 74.195312 17.226562 65.566406 14.425781 59.023438 14.425781 C 51.761719 14.503906 47.632812 17.332031 45.78125 19.039062 L 45.722656 19.039062 C 43.855469 17.332031 39.679688 14.503906 32.257812 14.425781 C 25.875 14.425781 17.289062 17.226562 12.398438 19.039062 L 5.957031 19.039062 C 3.046875 19.039062 0.683594 21.394531 0.683594 24.285156 L 0.683594 73.101562 C 0.683594 75.988281 3.046875 78.335938 5.890625 78.335938 C 5.894531 78.335938 45.695312 79.984375 45.695312 79.984375 C 45.714844 79.984375 45.734375 79.984375 45.753906 79.984375 C 45.773438 79.984375 45.792969 79.984375 45.816406 79.984375 L 85.554688 78.335938 C 88.460938 78.335938 90.828125 75.988281 90.828125 73.101562 L 90.828125 24.285156 C 90.828125 21.390625 88.460938 19.039062 85.554688 19.039062 " fill-opacity="1" fill-rule="nonzero"/></g><g clip-path="url(#d13119f5ad)"><path fill="#ffffff" d="M 112.136719 0.835938 C 112.136719 0.835938 112.136719 0.847656 112.136719 0.847656 C 112.136719 0.859375 112.136719 0.867188 112.136719 0.878906 C 112.136719 0.886719 112.136719 0.886719 112.136719 0.898438 C 112.136719 0.90625 112.136719 0.917969 112.136719 0.917969 C 112.136719 0.929688 112.136719 0.929688 112.125 0.9375 C 112.125 0.949219 112.125 0.957031 112.117188 0.957031 C 112.117188 0.96875 112.105469 0.96875 112.105469 0.976562 L 112.097656 1 L 112.085938 1.019531 C 112.078125 1.027344 112.078125 1.027344 112.066406 1.039062 L 112.035156 1.070312 C 112.015625 1.078125 111.785156 1.238281 111.382812 1.511719 C 110.484375 2.40625 109.621094 4.375 108.785156 6.292969 C 107.898438 8.3125 106.992188 10.402344 105.953125 11.457031 C 104.636719 12.816406 103.527344 13.480469 102.855469 13.789062 C 103.941406 14.0625 104.554688 14.402344 104.605469 14.433594 C 104.726562 14.503906 104.765625 14.65625 104.695312 14.773438 C 104.65625 14.84375 104.574219 14.894531 104.496094 14.90625 C 104.453125 14.90625 100.398438 15.167969 96.933594 18.542969 C 95.835938 19.609375 94.71875 21.054688 93.640625 22.453125 C 91.910156 24.691406 90.117188 27.003906 88.234375 28.078125 C 86.472656 29.085938 84.507812 29.675781 83.148438 30 C 83.734375 30.121094 84.308594 30.308594 84.851562 30.5625 C 84.972656 30.621094 85.03125 30.773438 84.972656 30.894531 C 84.933594 30.964844 84.871094 31.015625 84.789062 31.035156 C 83.070312 31.34375 82.214844 32.632812 81.308594 34 C 80.550781 35.132812 79.765625 36.308594 78.449219 37.074219 C 76.113281 38.429688 73.042969 38.882812 72.488281 38.960938 C 72.398438 39.144531 72.316406 39.324219 72.234375 39.496094 C 70.433594 43.382812 70.121094 45.734375 70.121094 45.765625 C 70.109375 45.886719 70.011719 45.976562 69.890625 45.984375 L 69.847656 45.984375 C 69.726562 45.984375 69.628906 45.90625 69.597656 45.785156 C 69.578125 45.714844 69.203125 44.015625 70.121094 40.742188 C 70.300781 40.109375 70.535156 39.375 70.855469 38.570312 C 70.554688 38.128906 69.285156 36.160156 69.527344 34.351562 C 69.757812 32.640625 69.085938 32.1875 69.085938 32.1875 C 68.972656 32.128906 68.933594 31.988281 68.984375 31.867188 C 69.035156 31.746094 69.175781 31.695312 69.296875 31.726562 C 69.617188 31.847656 69.929688 32.019531 70.203125 32.230469 C 69.96875 31.34375 69.6875 30.078125 69.628906 29.132812 C 69.457031 26.3125 70.59375 25.042969 73.90625 21.800781 C 75.878906 19.878906 75.902344 16.816406 75.902344 16.785156 C 75.902344 16.644531 76.011719 16.535156 76.152344 16.535156 C 76.222656 16.535156 76.292969 16.5625 76.34375 16.613281 C 76.707031 17.015625 76.996094 17.476562 77.199219 17.980469 C 77.230469 17.570312 77.300781 17.167969 77.421875 16.773438 C 77.925781 15.125 79.222656 13.78125 81.277344 12.765625 C 88.054688 9.429688 89.230469 7.699219 89.242188 7.691406 C 89.292969 7.609375 89.390625 7.558594 89.492188 7.582031 C 89.59375 7.589844 89.664062 7.660156 89.695312 7.761719 C 89.714844 7.832031 89.855469 8.425781 89.332031 9.621094 C 90.097656 8.613281 91.335938 7.46875 93.269531 6.234375 C 99.742188 2.125 111.664062 0.636719 111.84375 0.605469 L 111.855469 0.605469 C 111.863281 0.605469 111.886719 0.605469 111.894531 0.605469 L 111.933594 0.605469 C 111.945312 0.605469 111.957031 0.617188 111.957031 0.617188 L 111.976562 0.625 L 112.015625 0.648438 L 112.035156 0.667969 L 112.046875 0.675781 C 112.054688 0.6875 112.054688 0.695312 112.066406 0.695312 L 112.078125 0.707031 C 112.078125 0.707031 112.085938 0.726562 112.085938 0.726562 L 112.097656 0.746094 C 112.097656 0.757812 112.097656 0.757812 112.097656 0.765625 C 112.097656 0.777344 112.097656 0.789062 112.105469 0.796875 C 112.117188 0.796875 112.117188 0.796875 112.117188 0.808594 C 112.148438 0.828125 112.136719 0.835938 112.136719 0.835938 Z M 112.136719 0.835938 " fill-opacity="1" fill-rule="nonzero"/><path fill="#e0dfd9" d="M 112.136719 0.835938 C 112.136719 0.828125 112.136719 0.816406 112.125 0.808594 C 112.117188 0.796875 112.125 0.796875 112.125 0.789062 L 112.117188 0.765625 C 112.117188 0.757812 112.105469 0.746094 112.105469 0.746094 L 112.097656 0.738281 C 112.085938 0.726562 112.085938 0.71875 112.078125 0.71875 L 112.046875 0.6875 L 112.027344 0.675781 L 112.007812 0.667969 L 111.984375 0.65625 C 111.976562 0.65625 111.964844 0.648438 111.964844 0.648438 L 111.925781 0.648438 C 111.914062 0.648438 111.894531 0.648438 111.886719 0.648438 L 111.875 0.648438 C 111.695312 0.667969 99.761719 2.164062 93.289062 6.273438 C 91.355469 7.5 90.117188 8.644531 89.351562 9.660156 C 89.875 8.453125 89.734375 7.871094 89.714844 7.800781 C 89.683594 7.710938 89.613281 7.640625 89.511719 7.621094 C 89.414062 7.601562 89.3125 7.640625 89.25 7.722656 C 89.242188 7.742188 88.0625 9.460938 81.285156 12.796875 C 79.214844 13.789062 77.914062 15.136719 77.410156 16.785156 C 77.289062 17.175781 77.21875 17.578125 77.1875 17.992188 C 76.988281 17.488281 76.707031 17.027344 76.332031 16.625 C 76.242188 16.523438 76.082031 16.511719 75.980469 16.605469 C 75.929688 16.652344 75.902344 16.722656 75.902344 16.792969 C 75.902344 16.824219 75.871094 19.890625 73.90625 21.820312 C 70.59375 25.066406 69.457031 26.332031 69.628906 29.15625 C 69.6875 30.097656 69.96875 31.367188 70.203125 32.25 C 69.929688 32.039062 69.617188 31.867188 69.296875 31.746094 C 69.175781 31.707031 69.035156 31.765625 68.984375 31.886719 C 68.933594 32.007812 68.972656 32.140625 69.085938 32.210938 C 69.09375 32.210938 69.757812 32.660156 69.527344 34.371094 C 69.285156 36.179688 70.542969 38.148438 70.855469 38.589844 C 70.542969 39.40625 70.300781 40.128906 70.121094 40.761719 C 69.203125 44.015625 69.585938 45.726562 69.597656 45.796875 C 69.628906 45.90625 69.726562 45.984375 69.839844 45.984375 L 69.859375 45.984375 C 69.980469 45.976562 70.082031 45.886719 70.089844 45.765625 C 70.089844 45.746094 70.402344 43.382812 72.207031 39.496094 C 72.285156 39.324219 72.367188 39.144531 72.457031 38.960938 C 73.019531 38.890625 76.082031 38.441406 78.417969 37.074219 C 79.738281 36.308594 80.523438 35.132812 81.277344 34 C 82.183594 32.632812 83.050781 31.335938 84.761719 31.035156 C 84.902344 31.015625 84.992188 30.882812 84.960938 30.742188 C 84.953125 30.660156 84.902344 30.589844 84.820312 30.5625 C 84.277344 30.308594 83.703125 30.128906 83.121094 30 C 84.480469 29.675781 86.441406 29.085938 88.203125 28.078125 C 90.085938 27.003906 91.878906 24.691406 93.609375 22.453125 C 94.699219 21.054688 95.816406 19.609375 96.902344 18.542969 C 100.367188 15.167969 104.425781 14.914062 104.464844 14.914062 C 104.605469 14.90625 104.707031 14.785156 104.707031 14.65625 C 104.707031 14.574219 104.65625 14.492188 104.574219 14.453125 C 104.523438 14.421875 103.921875 14.089844 102.824219 13.808594 C 103.5 13.5 104.605469 12.835938 105.925781 11.480469 C 106.960938 10.425781 107.867188 8.332031 108.753906 6.3125 C 109.589844 4.394531 110.457031 2.414062 111.351562 1.53125 C 111.753906 1.25 111.984375 1.097656 112.007812 1.089844 L 112.015625 1.078125 L 112.035156 1.058594 C 112.046875 1.046875 112.046875 1.046875 112.054688 1.039062 L 112.078125 1 C 112.078125 0.988281 112.085938 0.988281 112.085938 0.976562 C 112.085938 0.96875 112.097656 0.96875 112.097656 0.957031 C 112.097656 0.949219 112.105469 0.949219 112.105469 0.9375 C 112.105469 0.929688 112.105469 0.917969 112.105469 0.917969 C 112.105469 0.90625 112.105469 0.90625 112.105469 0.898438 C 112.105469 0.886719 112.105469 0.878906 112.105469 0.867188 C 112.125 0.859375 112.136719 0.847656 112.136719 0.835938 Z M 108.3125 6.101562 C 107.453125 8.082031 106.558594 10.132812 105.59375 11.117188 C 103.546875 13.226562 102.046875 13.570312 102.027344 13.570312 C 101.988281 13.578125 101.957031 13.589844 101.925781 13.609375 C 100.992188 13.457031 100.035156 13.429688 99.078125 13.5 C 98.9375 13.507812 98.835938 13.628906 98.847656 13.769531 C 98.855469 13.910156 98.976562 14.011719 99.117188 14 C 101.132812 13.859375 102.652344 14.222656 103.527344 14.523438 C 100.902344 15.035156 98.484375 16.300781 96.570312 18.171875 C 95.453125 19.257812 94.324219 20.722656 93.226562 22.128906 C 91.527344 24.332031 89.765625 26.601562 87.972656 27.628906 C 85.03125 29.304688 81.398438 29.816406 81.367188 29.828125 L 81.335938 29.847656 C 81.023438 29.867188 80.722656 29.910156 80.421875 29.988281 C 80.289062 30.027344 80.210938 30.167969 80.25 30.300781 C 80.289062 30.429688 80.410156 30.5 80.542969 30.472656 C 81.789062 30.148438 83.140625 30.480469 83.925781 30.742188 C 82.496094 31.273438 81.699219 32.460938 80.863281 33.71875 C 80.140625 34.800781 79.394531 35.925781 78.164062 36.640625 C 76.234375 37.765625 73.707031 38.25 72.730469 38.410156 C 74.53125 34.8125 77.785156 29.605469 83.511719 23.617188 C 90.890625 15.910156 104.96875 5.933594 110.09375 2.394531 C 109.488281 3.410156 108.914062 4.738281 108.3125 6.101562 Z M 99.027344 8.726562 C 92.625 13.128906 83.863281 19.757812 78.488281 26.289062 C 74.511719 31.113281 72.304688 35.0625 71.085938 37.996094 C 70.664062 37.3125 69.847656 35.777344 70.03125 34.421875 C 70.132812 33.65625 70.070312 33.09375 69.949219 32.691406 C 70.3125 32.984375 70.585938 33.394531 70.707031 33.847656 C 70.734375 33.976562 70.875 34.058594 71.007812 34.027344 C 71.136719 34 71.21875 33.859375 71.1875 33.726562 C 71.136719 33.535156 71.066406 33.34375 70.976562 33.175781 C 70.96875 33.152344 70.222656 30.652344 70.132812 29.132812 C 69.980469 26.523438 70.996094 25.386719 74.257812 22.191406 C 75.820312 20.664062 76.242188 18.554688 76.363281 17.488281 C 76.746094 18.0625 76.847656 18.535156 76.96875 19.054688 C 77.097656 19.667969 77.25 20.363281 77.894531 21.257812 L 77.914062 21.285156 C 77.925781 21.308594 77.945312 21.328125 77.964844 21.347656 C 78.074219 21.496094 78.195312 21.648438 78.335938 21.808594 C 78.425781 21.910156 78.589844 21.929688 78.6875 21.839844 C 78.789062 21.75 78.808594 21.589844 78.71875 21.488281 C 78.570312 21.316406 78.449219 21.15625 78.335938 20.996094 C 78.175781 20.695312 77.308594 18.894531 77.914062 16.933594 C 78.378906 15.429688 79.585938 14.183594 81.507812 13.238281 C 86.332031 10.855469 88.375 9.289062 89.179688 8.523438 C 89.109375 8.886719 88.9375 9.398438 88.554688 10.09375 C 87.953125 11.175781 88.023438 12.332031 88.164062 13.058594 C 88.195312 13.316406 88.265625 13.578125 88.375 13.820312 C 88.445312 13.941406 88.597656 13.980469 88.71875 13.921875 C 88.828125 13.859375 88.878906 13.730469 88.828125 13.609375 C 88.757812 13.410156 88.699219 13.199219 88.65625 12.976562 C 88.617188 12.523438 88.667969 12.082031 88.808594 11.648438 C 89.160156 10.523438 90.269531 8.746094 93.539062 6.664062 C 98.695312 3.410156 107.40625 1.8125 110.648438 1.308594 C 108.644531 2.476562 104.164062 5.1875 99.027344 8.726562 Z M 99.027344 8.726562 " fill-opacity="1" fill-rule="nonzero"/><path fill="#2b59ff" d="M 112.136719 0.835938 C 112.136719 0.828125 112.136719 0.816406 112.125 0.808594 C 112.117188 0.796875 112.125 0.796875 112.125 0.789062 L 112.117188 0.765625 C 112.117188 0.757812 112.105469 0.746094 112.105469 0.746094 L 112.097656 0.738281 C 112.085938 0.726562 112.085938 0.71875 112.078125 0.71875 L 112.046875 0.6875 L 112.027344 0.675781 L 112.007812 0.667969 L 111.984375 0.65625 C 111.976562 0.65625 111.964844 0.648438 111.964844 0.648438 L 111.925781 0.648438 C 111.914062 0.648438 111.894531 0.648438 111.886719 0.648438 L 111.875 0.648438 C 111.695312 0.667969 99.761719 2.164062 93.289062 6.273438 C 91.355469 7.5 90.117188 8.644531 89.351562 9.660156 C 89.875 8.453125 89.734375 7.871094 89.714844 7.800781 C 89.683594 7.710938 89.613281 7.640625 89.511719 7.621094 C 89.414062 7.601562 89.3125 7.640625 89.25 7.722656 C 89.242188 7.742188 88.0625 9.460938 81.285156 12.796875 C 79.214844 13.789062 77.914062 15.136719 77.410156 16.785156 C 77.289062 17.175781 77.21875 17.578125 77.1875 17.992188 C 76.988281 17.488281 76.707031 17.027344 76.332031 16.625 C 76.242188 16.523438 76.082031 16.511719 75.980469 16.605469 C 75.929688 16.652344 75.902344 16.722656 75.902344 16.792969 C 75.902344 16.824219 75.871094 19.890625 73.90625 21.820312 C 70.59375 25.066406 69.457031 26.332031 69.628906 29.15625 C 69.6875 30.097656 69.96875 31.367188 70.203125 32.25 C 69.929688 32.039062 69.617188 31.867188 69.296875 31.746094 C 69.175781 31.707031 69.035156 31.765625 68.984375 31.886719 C 68.933594 32.007812 68.972656 32.140625 69.085938 32.210938 C 69.09375 32.210938 69.757812 32.660156 69.527344 34.371094 C 69.285156 36.179688 70.542969 38.148438 70.855469 38.589844 C 70.542969 39.40625 70.300781 40.128906 70.121094 40.761719 C 69.203125 44.015625 69.585938 45.726562 69.597656 45.796875 C 69.628906 45.90625 69.726562 45.984375 69.839844 45.984375 L 69.859375 45.984375 C 69.980469 45.976562 70.082031 45.886719 70.089844 45.765625 C 70.089844 45.746094 70.402344 43.382812 72.207031 39.496094 C 72.285156 39.324219 72.367188 39.144531 72.457031 38.960938 C 73.019531 38.890625 76.082031 38.441406 78.417969 37.074219 C 79.738281 36.308594 80.523438 35.132812 81.277344 34 C 82.183594 32.632812 83.050781 31.335938 84.761719 31.035156 C 84.902344 31.015625 84.992188 30.882812 84.960938 30.742188 C 84.953125 30.660156 84.902344 30.589844 84.820312 30.5625 C 84.277344 30.308594 83.703125 30.128906 83.121094 30 C 84.480469 29.675781 86.441406 29.085938 88.203125 28.078125 C 90.085938 27.003906 91.878906 24.691406 93.609375 22.453125 C 94.699219 21.054688 95.816406 19.609375 96.902344 18.542969 C 100.367188 15.167969 104.425781 14.914062 104.464844 14.914062 C 104.605469 14.90625 104.707031 14.785156 104.707031 14.65625 C 104.707031 14.574219 104.65625 14.492188 104.574219 14.453125 C 104.523438 14.421875 103.921875 14.089844 102.824219 13.808594 C 103.5 13.5 104.605469 12.835938 105.925781 11.480469 C 106.960938 10.425781 107.867188 8.332031 108.753906 6.3125 C 109.589844 4.394531 110.457031 2.414062 111.351562 1.53125 C 111.753906 1.25 111.984375 1.097656 112.007812 1.089844 L 112.015625 1.078125 L 112.035156 1.058594 C 112.046875 1.046875 112.046875 1.046875 112.054688 1.039062 L 112.078125 1 C 112.078125 0.988281 112.085938 0.988281 112.085938 0.976562 C 112.085938 0.96875 112.097656 0.96875 112.097656 0.957031 C 112.097656 0.949219 112.105469 0.949219 112.105469 0.9375 C 112.105469 0.929688 112.105469 0.917969 112.105469 0.917969 C 112.105469 0.90625 112.105469 0.90625 112.105469 0.898438 C 112.105469 0.886719 112.105469 0.878906 112.105469 0.867188 C 112.125 0.859375 112.136719 0.847656 112.136719 0.835938 Z M 71.742188 39.3125 C 71.078125 40.730469 70.523438 42.1875 70.070312 43.675781 C 70.171875 42.710938 70.363281 41.753906 70.625 40.832031 C 71.449219 37.90625 73.566406 33.054688 78.871094 26.613281 C 84.21875 20.132812 92.9375 13.539062 99.308594 9.148438 C 101.34375 7.75 103.265625 6.484375 104.976562 5.390625 C 98.484375 10.050781 88.839844 17.328125 83.148438 23.277344 C 76.765625 29.957031 73.421875 35.6875 71.742188 39.3125 Z M 108.3125 6.101562 C 107.445312 8.082031 106.558594 10.132812 105.582031 11.117188 C 103.539062 13.226562 102.039062 13.570312 102.019531 13.570312 C 101.976562 13.578125 101.949219 13.589844 101.917969 13.609375 C 100.980469 13.457031 100.023438 13.429688 99.066406 13.5 C 98.925781 13.507812 98.828125 13.628906 98.835938 13.769531 C 98.847656 13.910156 98.96875 14.011719 99.109375 14 C 101.121094 13.859375 102.640625 14.222656 103.519531 14.523438 C 100.890625 15.035156 98.472656 16.300781 96.5625 18.171875 C 95.441406 19.257812 94.316406 20.722656 93.21875 22.128906 C 91.515625 24.332031 89.753906 26.601562 87.960938 27.628906 C 85.023438 29.304688 81.386719 29.816406 81.359375 29.828125 L 81.335938 29.847656 C 81.023438 29.867188 80.722656 29.910156 80.421875 29.988281 C 80.289062 30.027344 80.210938 30.167969 80.25 30.300781 C 80.289062 30.429688 80.410156 30.5 80.542969 30.472656 C 81.789062 30.148438 83.140625 30.480469 83.925781 30.742188 C 82.496094 31.273438 81.699219 32.460938 80.863281 33.71875 C 80.140625 34.800781 79.394531 35.925781 78.164062 36.640625 C 76.234375 37.765625 73.707031 38.25 72.730469 38.410156 C 74.53125 34.8125 77.785156 29.605469 83.511719 23.617188 C 90.890625 15.910156 104.96875 5.933594 110.09375 2.394531 C 109.488281 3.410156 108.914062 4.738281 108.3125 6.101562 Z M 99.039062 8.726562 C 92.632812 13.128906 83.875 19.757812 78.488281 26.289062 C 74.511719 31.113281 72.304688 35.0625 71.085938 37.996094 C 70.664062 37.3125 69.847656 35.777344 70.03125 34.421875 C 70.132812 33.65625 70.070312 33.09375 69.949219 32.691406 C 70.3125 32.984375 70.585938 33.394531 70.707031 33.847656 C 70.734375 33.976562 70.875 34.058594 71.007812 34.027344 C 71.136719 34 71.21875 33.859375 71.1875 33.726562 C 71.136719 33.535156 71.066406 33.34375 70.976562 33.175781 C 70.96875 33.152344 70.222656 30.652344 70.132812 29.132812 C 69.980469 26.523438 70.996094 25.386719 74.257812 22.191406 C 75.820312 20.664062 76.242188 18.554688 76.363281 17.488281 C 76.746094 18.0625 76.847656 18.535156 76.96875 19.054688 C 77.097656 19.667969 77.25 20.363281 77.894531 21.257812 L 77.914062 21.285156 C 77.925781 21.308594 77.945312 21.328125 77.964844 21.347656 C 78.074219 21.496094 78.195312 21.648438 78.335938 21.808594 C 78.425781 21.910156 78.589844 21.929688 78.6875 21.839844 C 78.789062 21.75 78.808594 21.589844 78.71875 21.488281 C 78.570312 21.316406 78.449219 21.15625 78.335938 20.996094 C 78.175781 20.695312 77.308594 18.894531 77.914062 16.933594 C 78.378906 15.429688 79.585938 14.183594 81.507812 13.238281 C 86.332031 10.855469 88.375 9.289062 89.179688 8.523438 C 89.109375 8.886719 88.9375 9.398438 88.554688 10.09375 C 87.953125 11.175781 88.023438 12.332031 88.164062 13.058594 C 88.195312 13.316406 88.265625 13.578125 88.375 13.820312 C 88.445312 13.941406 88.597656 13.980469 88.71875 13.921875 C 88.828125 13.859375 88.878906 13.730469 88.828125 13.609375 C 88.757812 13.410156 88.699219 13.199219 88.65625 12.976562 C 88.617188 12.523438 88.667969 12.082031 88.808594 11.648438 C 89.160156 10.523438 90.269531 8.746094 93.539062 6.664062 C 98.695312 3.410156 107.40625 1.8125 110.648438 1.308594 C 108.644531 2.476562 104.164062 5.1875 99.039062 8.726562 Z M 99.039062 8.726562 " fill-opacity="1" fill-rule="nonzero"/></g><g fill="#000000" fill-opacity="1"><g transform="translate(96.074354, 40.788525)"><g><path d="M 10.503906 0.359375 C 15.332031 0.359375 18.285156 -2.3125 18.824219 -6.371094 L 14.792969 -6.371094 C 14.40625 -4.058594 12.710938 -2.953125 10.402344 -2.953125 C 6.804688 -2.953125 4.855469 -5.726562 4.855469 -9.8125 C 4.855469 -13.867188 6.804688 -16.640625 10.402344 -16.640625 C 12.710938 -16.640625 14.433594 -15.539062 14.792969 -13.457031 L 18.824219 -13.457031 C 18.285156 -17.308594 15.332031 -19.957031 10.503906 -19.957031 C 4.007812 -19.957031 1 -15.230469 1 -9.8125 C 1 -4.390625 4.007812 0.359375 10.503906 0.359375 Z M 10.503906 0.359375 "/></g></g></g><g fill="#000000" fill-opacity="1"><g transform="translate(115.771995, 40.788525)"><g><path d="M 8.320312 0.28125 C 12.171875 0.28125 14.382812 -2.054688 15.230469 -4.855469 L 11.683594 -4.855469 C 11.222656 -3.671875 10.09375 -2.695312 8.449219 -2.695312 C 6.960938 -2.695312 5.777344 -3.46875 5.109375 -4.800781 C 4.855469 -5.238281 4.621094 -5.882812 4.570312 -6.496094 L 15.460938 -6.496094 L 15.460938 -7.242188 C 15.460938 -12.457031 11.941406 -14.714844 8.21875 -14.714844 C 3.289062 -14.714844 0.976562 -10.890625 0.976562 -7.113281 C 0.976562 -2.851562 3.902344 0.28125 8.320312 0.28125 Z M 4.726562 -9.089844 C 4.777344 -9.476562 4.90625 -9.964844 5.289062 -10.425781 C 5.957031 -11.453125 7.035156 -11.96875 8.320312 -11.96875 C 9.578125 -11.96875 10.710938 -11.453125 11.378906 -10.425781 C 11.738281 -9.992188 11.867188 -9.476562 11.917969 -9.089844 Z M 4.726562 -9.089844 "/></g></g></g><g fill="#000000" fill-opacity="1"><g transform="translate(132.208098, 40.788525)"><g><path d="M 5.035156 0 L 5.035156 -7.34375 C 5.035156 -9.246094 5.289062 -10.296875 5.882812 -10.992188 C 6.34375 -11.558594 7.0625 -11.867188 8.0625 -11.867188 C 8.886719 -11.867188 9.476562 -11.660156 9.886719 -11.222656 C 10.375 -10.683594 10.605469 -9.8125 10.605469 -8.347656 L 10.605469 0 L 14.046875 0 L 14.046875 -8.296875 C 14.046875 -9.734375 14.046875 -11.042969 13.457031 -12.300781 C 12.816406 -13.636719 11.582031 -14.714844 8.964844 -14.714844 C 7.421875 -14.714844 6.191406 -14.203125 5.035156 -12.585938 L 5.035156 -14.40625 L 1.566406 -14.40625 L 1.566406 0 Z M 5.035156 0 "/></g></g></g><g fill="#000000" fill-opacity="1"><g transform="translate(147.74535, 40.788525)"><g><path d="M 8.9375 0 L 8.9375 -2.875 L 7.371094 -2.875 C 6.292969 -2.875 6.191406 -3.46875 6.191406 -4.210938 L 6.191406 -11.632812 L 8.964844 -11.632812 L 8.964844 -14.40625 L 6.191406 -14.40625 L 6.191406 -19.59375 L 2.722656 -19.59375 L 2.722656 -14.40625 L 0.589844 -14.40625 L 0.589844 -11.632812 L 2.722656 -11.632812 L 2.722656 -3.160156 C 2.722656 -0.925781 3.957031 0 6.085938 0 Z M 8.9375 0 "/></g></g></g><g fill="#000000" fill-opacity="1"><g transform="translate(157.581329, 40.788525)"><g><path d="M 5.035156 0 L 5.035156 -6.675781 C 5.035156 -8.578125 5.417969 -9.734375 6.191406 -10.503906 C 6.753906 -11.042969 7.578125 -11.378906 8.757812 -11.378906 L 9.554688 -11.378906 L 9.554688 -14.714844 L 9.144531 -14.714844 C 7.449219 -14.714844 6.136719 -14.203125 5.035156 -12.6875 L 5.035156 -14.40625 L 1.566406 -14.40625 L 1.566406 0 Z M 5.035156 0 "/></g></g></g><g fill="#000000" fill-opacity="1"><g transform="translate(167.622766, 40.788525)"><g><path d="M 8.320312 0.28125 C 12.171875 0.28125 14.382812 -2.054688 15.230469 -4.855469 L 11.683594 -4.855469 C 11.222656 -3.671875 10.09375 -2.695312 8.449219 -2.695312 C 6.960938 -2.695312 5.777344 -3.46875 5.109375 -4.800781 C 4.855469 -5.238281 4.621094 -5.882812 4.570312 -6.496094 L 15.460938 -6.496094 L 15.460938 -7.242188 C 15.460938 -12.457031 11.941406 -14.714844 8.21875 -14.714844 C 3.289062 -14.714844 0.976562 -10.890625 0.976562 -7.113281 C 0.976562 -2.851562 3.902344 0.28125 8.320312 0.28125 Z M 4.726562 -9.089844 C 4.777344 -9.476562 4.90625 -9.964844 5.289062 -10.425781 C 5.957031 -11.453125 7.035156 -11.96875 8.320312 -11.96875 C 9.578125 -11.96875 10.710938 -11.453125 11.378906 -10.425781 C 11.738281 -9.992188 11.867188 -9.476562 11.917969 -9.089844 Z M 4.726562 -9.089844 "/></g></g></g><g fill="#5271ff" fill-opacity="1"><g transform="translate(184.050319, 40.788525)"><g/></g></g><g fill="#2b59ff" fill-opacity="1"><g transform="translate(96.074354, 72.706129)"><g><path d="M 8.890625 0 C 16.765625 0 21.121094 -4.199219 21.121094 -11.679688 C 21.121094 -19.1875 16.796875 -23.386719 8.890625 -23.386719 L 2.085938 -23.386719 L 2.085938 0 Z M 6.5 -19.433594 L 8.859375 -19.433594 C 13.578125 -19.433594 16.707031 -17.105469 16.707031 -11.679688 C 16.707031 -5.886719 13.488281 -3.953125 8.828125 -3.953125 L 6.5 -3.953125 Z M 6.5 -19.433594 "/></g></g></g><g fill="#2b59ff" fill-opacity="1"><g transform="translate(118.380907, 72.706129)"><g><path d="M 6.835938 0.335938 C 8.308594 0.335938 9.65625 0.09375 10.726562 -0.613281 C 11.371094 -1.011719 11.863281 -1.5625 12.292969 -2.328125 L 12.292969 0 L 16.429688 0 L 16.429688 -8.949219 C 16.429688 -11.339844 16.429688 -14.039062 14.40625 -15.816406 C 13.117188 -17.011719 11.1875 -17.5625 9.195312 -17.5625 C 5.792969 -17.5625 2.453125 -15.722656 1.839844 -11.710938 L 5.945312 -11.710938 C 6.253906 -13.332031 7.601562 -14.316406 9.164062 -14.316406 C 10.144531 -14.316406 10.941406 -14.039062 11.464844 -13.488281 C 11.984375 -12.933594 12.261719 -12.109375 12.292969 -11.066406 L 7.171875 -10.113281 C 5.730469 -9.839844 4.261719 -9.410156 3.15625 -8.644531 C 1.960938 -7.816406 1.195312 -6.558594 1.195312 -4.71875 C 1.195312 -1.441406 3.585938 0.335938 6.835938 0.335938 Z M 7.847656 -2.910156 C 6.40625 -2.910156 5.332031 -3.585938 5.332031 -4.875 C 5.332031 -5.457031 5.546875 -5.886719 5.886719 -6.222656 C 6.375 -6.683594 7.082031 -6.988281 8.277344 -7.203125 L 12.382812 -8.03125 C 12.320312 -5.761719 11.863281 -4.292969 10.054688 -3.402344 C 9.378906 -3.066406 8.613281 -2.910156 7.847656 -2.910156 Z M 7.847656 -2.910156 "/></g></g></g><g fill="#2b59ff" fill-opacity="1"><g transform="translate(136.489668, 72.706129)"><g><path d="M 6.007812 0 L 6.007812 -7.96875 C 6.007812 -10.238281 6.46875 -11.617188 7.386719 -12.535156 C 8.0625 -13.179688 9.042969 -13.578125 10.453125 -13.578125 L 11.402344 -13.578125 L 11.402344 -17.5625 L 10.914062 -17.5625 C 8.890625 -17.5625 7.324219 -16.949219 6.007812 -15.140625 L 6.007812 -17.195312 L 1.871094 -17.195312 L 1.871094 0 Z M 6.007812 0 "/></g></g></g><g fill="#2b59ff" fill-opacity="1"><g transform="translate(148.470247, 72.706129)"><g><path d="M 9.316406 0.335938 C 13.761719 0.335938 16.398438 -1.871094 16.398438 -5.210938 C 16.398438 -9.164062 12.71875 -9.839844 9.6875 -10.421875 C 7.570312 -10.820312 5.730469 -11.15625 5.730469 -12.566406 C 5.730469 -13.640625 6.742188 -14.316406 8.398438 -14.316406 C 10.085938 -14.316406 11.554688 -13.578125 12.046875 -11.710938 L 15.9375 -11.710938 C 15.324219 -15.449219 12.445312 -17.5625 8.429688 -17.5625 C 4.875 -17.5625 1.777344 -16 1.777344 -12.414062 C 1.777344 -8.582031 5.273438 -7.847656 8.246094 -7.265625 C 10.421875 -6.835938 12.320312 -6.4375 12.320312 -4.90625 C 12.320312 -3.617188 11.035156 -2.910156 9.289062 -2.910156 C 7.171875 -2.910156 5.671875 -3.921875 5.148438 -5.792969 L 1.074219 -5.792969 C 1.65625 -1.472656 5.394531 0.335938 9.316406 0.335938 Z M 9.316406 0.335938 "/></g></g></g><g fill="#2b59ff" fill-opacity="1"><g transform="translate(166.119389, 72.706129)"><g><path d="M 9.316406 0.335938 C 13.761719 0.335938 16.398438 -1.871094 16.398438 -5.210938 C 16.398438 -9.164062 12.71875 -9.839844 9.6875 -10.421875 C 7.570312 -10.820312 5.730469 -11.15625 5.730469 -12.566406 C 5.730469 -13.640625 6.742188 -14.316406 8.398438 -14.316406 C 10.085938 -14.316406 11.554688 -13.578125 12.046875 -11.710938 L 15.9375 -11.710938 C 15.324219 -15.449219 12.445312 -17.5625 8.429688 -17.5625 C 4.875 -17.5625 1.777344 -16 1.777344 -12.414062 C 1.777344 -8.582031 5.273438 -7.847656 8.246094 -7.265625 C 10.421875 -6.835938 12.320312 -6.4375 12.320312 -4.90625 C 12.320312 -3.617188 11.035156 -2.910156 9.289062 -2.910156 C 7.171875 -2.910156 5.671875 -3.921875 5.148438 -5.792969 L 1.074219 -5.792969 C 1.65625 -1.472656 5.394531 0.335938 9.316406 0.335938 Z M 9.316406 0.335938 "/></g></g></g><g fill="#2b59ff" fill-opacity="1"><g transform="translate(183.768532, 72.706129)"><g><path d="M 11.863281 0 L 11.863281 -19.433594 L 18.972656 -19.433594 L 18.972656 -23.386719 L 0.304688 -23.386719 L 0.304688 -19.433594 L 7.449219 -19.433594 L 7.449219 0 Z M 11.863281 0 "/></g></g></g><g fill="#2b59ff" fill-opacity="1"><g transform="translate(203.072278, 72.706129)"><g><path d="M 3.953125 -19.097656 C 5.332031 -19.097656 6.5 -20.015625 6.5 -21.457031 C 6.5 -22.835938 5.332031 -23.816406 3.953125 -23.816406 C 2.542969 -23.816406 1.410156 -22.835938 1.410156 -21.457031 C 1.410156 -20.015625 2.542969 -19.097656 3.953125 -19.097656 Z M 6.007812 0 L 6.007812 -17.195312 L 1.871094 -17.195312 L 1.871094 0 Z M 6.007812 0 "/></g></g></g><g fill="#2b59ff" fill-opacity="1"><g transform="translate(210.97762, 72.706129)"><g><path d="M 6.007812 0 L 6.007812 -9.105469 C 6.007812 -11.3125 6.34375 -12.476562 7.019531 -13.273438 C 7.507812 -13.824219 8.214844 -14.160156 9.105469 -14.160156 C 10.820312 -14.160156 11.832031 -13.089844 11.832031 -10.757812 L 11.832031 0 L 15.96875 0 L 15.96875 -9.105469 C 15.96875 -11.097656 16.214844 -12.445312 17.011719 -13.332031 C 17.472656 -13.824219 18.144531 -14.160156 19.066406 -14.160156 C 20.8125 -14.160156 21.761719 -13.117188 21.761719 -10.757812 L 21.761719 0 L 25.902344 0 L 25.902344 -11.28125 C 25.902344 -15.113281 24.125 -17.5625 20.261719 -17.5625 C 17.992188 -17.5625 16.335938 -16.734375 15.203125 -14.804688 C 14.652344 -16.644531 12.933594 -17.5625 10.699219 -17.5625 C 8.917969 -17.5625 7.355469 -16.890625 6.007812 -15.019531 L 6.007812 -17.195312 L 1.871094 -17.195312 L 1.871094 0 Z M 6.007812 0 "/></g></g></g><g fill="#2b59ff" fill-opacity="1"><g transform="translate(238.646325, 72.706129)"><g><path d="M 9.929688 0.335938 C 14.527344 0.335938 17.164062 -2.453125 18.175781 -5.792969 L 13.945312 -5.792969 C 13.394531 -4.382812 12.046875 -3.21875 10.085938 -3.21875 C 8.308594 -3.21875 6.898438 -4.136719 6.101562 -5.730469 C 5.792969 -6.253906 5.515625 -7.019531 5.457031 -7.753906 L 18.453125 -7.753906 L 18.453125 -8.644531 C 18.453125 -14.867188 14.253906 -17.5625 9.808594 -17.5625 C 3.921875 -17.5625 1.164062 -12.996094 1.164062 -8.492188 C 1.164062 -3.402344 4.660156 0.335938 9.929688 0.335938 Z M 5.640625 -10.851562 C 5.703125 -11.3125 5.855469 -11.894531 6.3125 -12.445312 C 7.109375 -13.671875 8.398438 -14.285156 9.929688 -14.285156 C 11.433594 -14.285156 12.78125 -13.671875 13.578125 -12.445312 C 14.007812 -11.921875 14.160156 -11.3125 14.222656 -10.851562 Z M 5.640625 -10.851562 "/></g></g></g></svg>