<svg xmlns="http://www.w3.org/2000/svg" xmlns:xlink="http://www.w3.org/1999/xlink" width="500" zoomAndPan="magnify" viewBox="0 0 375 374.999991" height="500" preserveAspectRatio="xMidYMid meet" version="1.0"><defs><clipPath id="5d948dff29"><path d="M 137.195312 161.542969 L 227.945312 161.542969 L 227.945312 227.542969 L 137.195312 227.542969 Z M 137.195312 161.542969 " clip-rule="nonzero"/></clipPath><clipPath id="4db816adfe"><path d="M 205.898438 147.601562 L 249.398438 147.601562 L 249.398438 193.351562 L 205.898438 193.351562 Z M 205.898438 147.601562 " clip-rule="nonzero"/></clipPath></defs><g clip-path="url(#5d948dff29)"><path fill="#2b59ff" d="M 225.011719 220.609375 C 225.011719 221.902344 223.941406 222.957031 222.570312 222.957031 L 182.566406 224.613281 L 142.503906 222.957031 C 141.191406 222.957031 140.121094 221.902344 140.121094 220.609375 L 140.121094 171.46875 C 140.121094 170.171875 141.191406 169.117188 142.503906 169.117188 L 144.253906 169.117188 L 144.253906 218.898438 C 144.355469 219.925781 145.167969 220.296875 145.792969 220.359375 C 145.921875 220.371094 159.179688 219.683594 169.472656 219.640625 C 177.878906 219.640625 182.375 221.402344 182.5625 221.402344 C 182.757812 221.402344 187.25 219.640625 195.925781 219.640625 C 205.953125 219.683594 219.207031 220.359375 219.339844 220.359375 C 220.3125 220.34375 220.847656 219.628906 220.878906 218.898438 L 220.878906 169.117188 L 222.628906 169.117188 C 223.941406 169.117188 225.011719 170.171875 225.011719 171.46875 Z M 178.679688 217.460938 C 176.421875 217.0625 173.289062 216.71875 169.191406 216.71875 C 163.589844 216.738281 157.035156 216.957031 152.253906 217.144531 C 156.960938 215.710938 163.632812 214.042969 169.265625 214.019531 C 173.621094 214.019531 176.703125 215.789062 178.679688 217.460938 Z M 147.179688 170.03125 C 150.390625 168.742188 161.585938 164.472656 169.175781 164.472656 C 176.574219 164.550781 180.132812 167.792969 181.101562 168.851562 L 181.101562 215.675781 C 178.746094 213.535156 174.824219 211.09375 169.1875 211.09375 C 161.117188 211.128906 151.332031 214.253906 147.179688 215.71875 Z M 212.890625 217.148438 C 208.070312 216.957031 201.429688 216.738281 195.660156 216.71875 C 191.722656 216.71875 188.6875 217.058594 186.476562 217.445312 C 188.457031 215.777344 191.554688 214.019531 195.933594 214.019531 C 201.53125 214.042969 208.1875 215.714844 212.890625 217.148438 Z M 184.03125 168.855469 C 185.011719 167.785156 188.597656 164.550781 196.152344 164.46875 C 203.574219 164.46875 214.742188 168.738281 217.949219 170.03125 L 217.949219 215.71875 C 213.800781 214.253906 204.003906 211.128906 195.867188 211.09375 C 190.28125 211.09375 186.378906 213.53125 184.03125 215.671875 Z M 222.628906 166.191406 L 216.136719 166.191406 C 211.195312 164.363281 202.511719 161.546875 195.925781 161.546875 C 188.613281 161.625 184.457031 164.472656 182.59375 166.191406 L 182.535156 166.191406 C 180.65625 164.472656 176.453125 161.625 168.980469 161.542969 C 162.554688 161.542969 153.914062 164.363281 148.988281 166.191406 L 142.503906 166.191406 C 139.578125 166.191406 137.195312 168.558594 137.195312 171.46875 L 137.195312 220.609375 C 137.195312 223.515625 139.578125 225.878906 142.441406 225.878906 C 142.441406 225.878906 182.507812 227.535156 182.507812 227.535156 C 182.527344 227.539062 182.546875 227.539062 182.566406 227.539062 C 182.585938 227.539062 182.605469 227.539062 182.628906 227.535156 L 222.628906 225.882812 C 225.554688 225.882812 227.9375 223.515625 227.9375 220.609375 L 227.9375 171.46875 C 227.9375 168.558594 225.554688 166.191406 222.628906 166.191406 " fill-opacity="1" fill-rule="nonzero"/></g><g clip-path="url(#4db816adfe)"><path fill="#ffffff" d="M 249.386719 147.867188 C 249.386719 147.867188 249.386719 147.878906 249.386719 147.878906 C 249.386719 147.886719 249.386719 147.898438 249.386719 147.910156 C 249.386719 147.917969 249.386719 147.917969 249.386719 147.929688 C 249.386719 147.9375 249.386719 147.949219 249.386719 147.949219 C 249.386719 147.957031 249.386719 147.957031 249.378906 147.96875 C 249.378906 147.980469 249.378906 147.988281 249.367188 147.988281 C 249.367188 148 249.359375 148 249.359375 148.007812 L 249.347656 148.03125 L 249.335938 148.050781 C 249.328125 148.058594 249.328125 148.058594 249.316406 148.070312 L 249.296875 148.089844 L 249.289062 148.101562 C 249.265625 148.109375 249.035156 148.273438 248.628906 148.546875 C 247.726562 149.445312 246.855469 151.429688 246.011719 153.359375 C 245.121094 155.394531 244.210938 157.496094 243.164062 158.558594 C 241.835938 159.925781 240.722656 160.59375 240.042969 160.90625 C 241.136719 161.179688 241.757812 161.523438 241.808594 161.554688 C 241.929688 161.625 241.96875 161.777344 241.898438 161.898438 C 241.859375 161.96875 241.777344 162.019531 241.695312 162.027344 C 241.65625 162.027344 237.570312 162.292969 234.085938 165.691406 C 232.980469 166.761719 231.855469 168.21875 230.769531 169.625 C 229.027344 171.882812 227.222656 174.207031 225.328125 175.289062 C 223.554688 176.300781 221.578125 176.898438 220.210938 177.222656 C 220.796875 177.34375 221.375 177.535156 221.921875 177.789062 C 222.042969 177.847656 222.105469 178 222.042969 178.121094 C 222.003906 178.191406 221.941406 178.242188 221.863281 178.265625 C 220.128906 178.578125 219.265625 179.871094 218.355469 181.25 C 217.59375 182.390625 216.804688 183.574219 215.476562 184.34375 C 213.125 185.707031 210.035156 186.164062 209.476562 186.246094 C 209.386719 186.425781 209.304688 186.609375 209.222656 186.78125 C 207.410156 190.695312 207.09375 193.0625 207.09375 193.09375 C 207.085938 193.214844 206.984375 193.304688 206.863281 193.316406 L 206.820312 193.316406 C 206.699219 193.316406 206.597656 193.234375 206.566406 193.113281 C 206.546875 193.042969 206.171875 191.332031 207.09375 188.035156 C 207.277344 187.398438 207.511719 186.660156 207.835938 185.851562 C 207.53125 185.40625 206.253906 183.421875 206.496094 181.601562 C 206.730469 179.882812 206.050781 179.425781 206.050781 179.425781 C 205.9375 179.367188 205.898438 179.226562 205.949219 179.105469 C 206 178.980469 206.140625 178.933594 206.261719 178.960938 C 206.585938 179.082031 206.902344 179.253906 207.175781 179.46875 C 206.941406 178.578125 206.660156 177.304688 206.597656 176.351562 C 206.425781 173.511719 207.570312 172.234375 210.90625 168.96875 C 212.890625 167.035156 212.914062 163.949219 212.914062 163.921875 C 212.914062 163.777344 213.023438 163.667969 213.164062 163.667969 C 213.238281 163.667969 213.308594 163.699219 213.359375 163.75 C 213.722656 164.152344 214.015625 164.617188 214.21875 165.125 C 214.25 164.710938 214.320312 164.304688 214.441406 163.910156 C 214.949219 162.25 216.257812 160.894531 218.324219 159.875 C 225.144531 156.515625 226.332031 154.777344 226.339844 154.765625 C 226.390625 154.683594 226.492188 154.636719 226.59375 154.65625 C 226.695312 154.664062 226.765625 154.734375 226.796875 154.835938 C 226.816406 154.90625 226.960938 155.503906 226.433594 156.707031 C 227.203125 155.695312 228.449219 154.542969 230.394531 153.300781 C 236.914062 149.164062 248.914062 147.664062 249.09375 147.636719 L 249.105469 147.636719 C 249.113281 147.636719 249.136719 147.636719 249.144531 147.636719 L 249.1875 147.636719 C 249.195312 147.636719 249.207031 147.644531 249.207031 147.644531 L 249.226562 147.65625 L 249.246094 147.664062 L 249.265625 147.675781 L 249.289062 147.695312 L 249.296875 147.707031 C 249.308594 147.714844 249.308594 147.726562 249.316406 147.726562 L 249.328125 147.734375 C 249.328125 147.734375 249.335938 147.757812 249.335938 147.757812 L 249.347656 147.777344 C 249.347656 147.785156 249.347656 147.785156 249.347656 147.796875 C 249.347656 147.808594 249.347656 147.816406 249.359375 147.828125 C 249.367188 147.828125 249.367188 147.828125 249.367188 147.835938 C 249.398438 147.859375 249.386719 147.867188 249.386719 147.867188 Z M 249.386719 147.867188 " fill-opacity="1" fill-rule="nonzero"/><path fill="#e0dfd9" d="M 249.386719 147.867188 C 249.386719 147.859375 249.386719 147.847656 249.378906 147.835938 C 249.367188 147.828125 249.378906 147.828125 249.378906 147.816406 L 249.367188 147.796875 C 249.367188 147.785156 249.359375 147.777344 249.359375 147.777344 L 249.347656 147.765625 C 249.335938 147.757812 249.335938 147.746094 249.328125 147.746094 L 249.296875 147.714844 L 249.277344 147.707031 L 249.257812 147.695312 L 249.238281 147.6875 C 249.226562 147.6875 249.214844 147.675781 249.214844 147.675781 L 249.175781 147.675781 C 249.164062 147.675781 249.144531 147.675781 249.136719 147.675781 L 249.125 147.675781 C 248.941406 147.695312 236.933594 149.203125 230.414062 153.339844 C 228.46875 154.574219 227.222656 155.726562 226.453125 156.75 C 226.980469 155.535156 226.835938 154.949219 226.816406 154.878906 C 226.789062 154.785156 226.714844 154.714844 226.613281 154.695312 C 226.511719 154.675781 226.414062 154.714844 226.351562 154.796875 C 226.339844 154.816406 225.15625 156.546875 218.335938 159.90625 C 216.246094 160.90625 214.9375 162.261719 214.433594 163.921875 C 214.3125 164.316406 214.238281 164.71875 214.210938 165.132812 C 214.007812 164.628906 213.722656 164.164062 213.347656 163.757812 C 213.257812 163.65625 213.09375 163.648438 212.992188 163.738281 C 212.941406 163.789062 212.914062 163.859375 212.914062 163.929688 C 212.914062 163.960938 212.882812 167.046875 210.90625 168.988281 C 207.570312 172.253906 206.425781 173.53125 206.597656 176.371094 C 206.660156 177.324219 206.941406 178.597656 207.175781 179.488281 C 206.902344 179.277344 206.585938 179.105469 206.261719 178.980469 C 206.140625 178.941406 206 179.003906 205.949219 179.125 C 205.898438 179.246094 205.9375 179.375 206.050781 179.449219 C 206.0625 179.449219 206.730469 179.902344 206.496094 181.621094 C 206.253906 183.441406 207.519531 185.425781 207.835938 185.871094 C 207.519531 186.691406 207.277344 187.417969 207.09375 188.054688 C 206.171875 191.332031 206.558594 193.050781 206.566406 193.125 C 206.597656 193.234375 206.699219 193.316406 206.8125 193.316406 L 206.832031 193.316406 C 206.953125 193.304688 207.054688 193.214844 207.0625 193.09375 C 207.0625 193.074219 207.378906 190.695312 209.191406 186.78125 C 209.273438 186.609375 209.355469 186.425781 209.445312 186.246094 C 210.011719 186.175781 213.09375 185.71875 215.445312 184.34375 C 216.773438 183.574219 217.5625 182.390625 218.324219 181.25 C 219.238281 179.871094 220.109375 178.566406 221.832031 178.265625 C 221.972656 178.242188 222.0625 178.113281 222.035156 177.972656 C 222.023438 177.890625 221.972656 177.820312 221.890625 177.789062 C 221.34375 177.535156 220.765625 177.355469 220.179688 177.222656 C 221.546875 176.898438 223.523438 176.300781 225.296875 175.289062 C 227.191406 174.207031 228.996094 171.882812 230.738281 169.625 C 231.835938 168.21875 232.960938 166.761719 234.054688 165.691406 C 237.539062 162.292969 241.625 162.039062 241.664062 162.039062 C 241.808594 162.027344 241.910156 161.90625 241.910156 161.777344 C 241.910156 161.695312 241.859375 161.613281 241.777344 161.574219 C 241.726562 161.542969 241.117188 161.210938 240.011719 160.925781 C 240.691406 160.613281 241.808594 159.945312 243.136719 158.578125 C 244.179688 157.519531 245.089844 155.414062 245.984375 153.378906 C 246.824219 151.449219 247.695312 149.457031 248.597656 148.566406 C 249.003906 148.28125 249.238281 148.128906 249.257812 148.121094 L 249.265625 148.109375 L 249.289062 148.089844 C 249.296875 148.082031 249.296875 148.082031 249.308594 148.070312 L 249.316406 148.050781 L 249.328125 148.03125 C 249.328125 148.019531 249.335938 148.019531 249.335938 148.007812 C 249.335938 148 249.347656 148 249.347656 147.988281 C 249.347656 147.980469 249.359375 147.980469 249.359375 147.96875 C 249.359375 147.957031 249.359375 147.949219 249.359375 147.949219 C 249.359375 147.9375 249.359375 147.9375 249.359375 147.929688 C 249.359375 147.917969 249.359375 147.910156 249.359375 147.898438 C 249.378906 147.886719 249.386719 147.878906 249.386719 147.867188 Z M 245.539062 153.167969 C 244.675781 155.160156 243.773438 157.222656 242.800781 158.214844 C 240.742188 160.339844 239.234375 160.683594 239.210938 160.683594 C 239.171875 160.695312 239.140625 160.703125 239.113281 160.722656 C 238.167969 160.574219 237.207031 160.542969 236.242188 160.613281 C 236.101562 160.625 236 160.746094 236.011719 160.886719 C 236.019531 161.027344 236.140625 161.128906 236.285156 161.117188 C 238.3125 160.976562 239.839844 161.339844 240.722656 161.644531 C 238.078125 162.160156 235.644531 163.433594 233.71875 165.316406 C 232.59375 166.410156 231.460938 167.886719 230.355469 169.300781 C 228.640625 171.515625 226.867188 173.804688 225.0625 174.835938 C 222.105469 176.523438 218.445312 177.039062 218.414062 177.050781 L 218.386719 177.070312 C 218.070312 177.089844 217.765625 177.132812 217.460938 177.210938 C 217.332031 177.253906 217.25 177.394531 217.289062 177.527344 C 217.332031 177.65625 217.453125 177.726562 217.585938 177.699219 C 218.839844 177.375 220.199219 177.707031 220.988281 177.972656 C 219.550781 178.507812 218.75 179.699219 217.910156 180.964844 C 217.179688 182.058594 216.429688 183.191406 215.191406 183.910156 C 213.246094 185.042969 210.703125 185.527344 209.71875 185.6875 C 211.535156 182.066406 214.808594 176.828125 220.574219 170.800781 C 228.003906 163.039062 242.171875 152.996094 247.332031 149.4375 C 246.722656 150.457031 246.144531 151.792969 245.539062 153.167969 Z M 236.191406 155.808594 C 229.746094 160.238281 220.929688 166.914062 215.515625 173.488281 C 211.511719 178.34375 209.292969 182.320312 208.066406 185.273438 C 207.640625 184.585938 206.820312 183.039062 207.003906 181.671875 C 207.105469 180.902344 207.042969 180.335938 206.921875 179.933594 C 207.289062 180.226562 207.5625 180.640625 207.683594 181.097656 C 207.710938 181.226562 207.855469 181.308594 207.988281 181.277344 C 208.117188 181.25 208.199219 181.105469 208.167969 180.976562 C 208.117188 180.78125 208.046875 180.589844 207.957031 180.417969 C 207.945312 180.398438 207.195312 177.878906 207.105469 176.351562 C 206.953125 173.722656 207.976562 172.578125 211.261719 169.363281 C 212.832031 167.824219 213.257812 165.699219 213.378906 164.628906 C 213.761719 165.207031 213.863281 165.679688 213.988281 166.207031 C 214.117188 166.824219 214.269531 167.523438 214.917969 168.421875 L 214.9375 168.453125 C 214.949219 168.472656 214.96875 168.492188 214.988281 168.511719 C 215.101562 168.664062 215.222656 168.816406 215.363281 168.976562 C 215.457031 169.078125 215.617188 169.101562 215.71875 169.007812 C 215.820312 168.917969 215.839844 168.753906 215.75 168.65625 C 215.597656 168.484375 215.476562 168.320312 215.363281 168.160156 C 215.203125 167.855469 214.332031 166.042969 214.9375 164.074219 C 215.40625 162.554688 216.621094 161.300781 218.558594 160.351562 C 223.414062 157.953125 225.46875 156.375 226.28125 155.605469 C 226.210938 155.96875 226.039062 156.484375 225.652344 157.183594 C 225.042969 158.277344 225.113281 159.441406 225.257812 160.167969 C 225.289062 160.429688 225.359375 160.695312 225.46875 160.9375 C 225.539062 161.058594 225.691406 161.097656 225.8125 161.039062 C 225.925781 160.976562 225.976562 160.84375 225.925781 160.722656 C 225.855469 160.523438 225.792969 160.308594 225.753906 160.085938 C 225.710938 159.632812 225.761719 159.1875 225.90625 158.75 C 226.261719 157.617188 227.375 155.828125 230.667969 153.734375 C 235.859375 150.457031 244.625 148.847656 247.886719 148.34375 C 245.871094 149.515625 241.363281 152.246094 236.191406 155.808594 Z M 236.191406 155.808594 " fill-opacity="1" fill-rule="nonzero"/><path fill="#2b59ff" d="M 249.386719 147.867188 C 249.386719 147.859375 249.386719 147.847656 249.378906 147.835938 C 249.367188 147.828125 249.378906 147.828125 249.378906 147.816406 L 249.367188 147.796875 C 249.367188 147.785156 249.359375 147.777344 249.359375 147.777344 L 249.347656 147.765625 C 249.335938 147.757812 249.335938 147.746094 249.328125 147.746094 L 249.296875 147.714844 L 249.277344 147.707031 L 249.257812 147.695312 L 249.238281 147.6875 C 249.226562 147.6875 249.214844 147.675781 249.214844 147.675781 L 249.175781 147.675781 C 249.164062 147.675781 249.144531 147.675781 249.136719 147.675781 L 249.125 147.675781 C 248.941406 147.695312 236.933594 149.203125 230.414062 153.339844 C 228.46875 154.574219 227.222656 155.726562 226.453125 156.75 C 226.980469 155.535156 226.835938 154.949219 226.816406 154.878906 C 226.789062 154.785156 226.714844 154.714844 226.613281 154.695312 C 226.511719 154.675781 226.414062 154.714844 226.351562 154.796875 C 226.339844 154.816406 225.15625 156.546875 218.335938 159.90625 C 216.246094 160.90625 214.9375 162.261719 214.433594 163.921875 C 214.3125 164.316406 214.238281 164.71875 214.210938 165.132812 C 214.007812 164.628906 213.722656 164.164062 213.347656 163.757812 C 213.257812 163.65625 213.09375 163.648438 212.992188 163.738281 C 212.941406 163.789062 212.914062 163.859375 212.914062 163.929688 C 212.914062 163.960938 212.882812 167.046875 210.90625 168.988281 C 207.570312 172.253906 206.425781 173.53125 206.597656 176.371094 C 206.660156 177.324219 206.941406 178.597656 207.175781 179.488281 C 206.902344 179.277344 206.585938 179.105469 206.261719 178.980469 C 206.140625 178.941406 206 179.003906 205.949219 179.125 C 205.898438 179.246094 205.9375 179.375 206.050781 179.449219 C 206.0625 179.449219 206.730469 179.902344 206.496094 181.621094 C 206.253906 183.441406 207.519531 185.425781 207.835938 185.871094 C 207.519531 186.691406 207.277344 187.417969 207.09375 188.054688 C 206.171875 191.332031 206.558594 193.050781 206.566406 193.125 C 206.597656 193.234375 206.699219 193.316406 206.8125 193.316406 L 206.832031 193.316406 C 206.953125 193.304688 207.054688 193.214844 207.0625 193.09375 C 207.0625 193.074219 207.378906 190.695312 209.191406 186.78125 C 209.273438 186.609375 209.355469 186.425781 209.445312 186.246094 C 210.011719 186.175781 213.09375 185.71875 215.445312 184.34375 C 216.773438 183.574219 217.5625 182.390625 218.324219 181.25 C 219.238281 179.871094 220.109375 178.566406 221.832031 178.265625 C 221.972656 178.242188 222.0625 178.113281 222.035156 177.972656 C 222.023438 177.890625 221.972656 177.820312 221.890625 177.789062 C 221.34375 177.535156 220.765625 177.355469 220.179688 177.222656 C 221.546875 176.898438 223.523438 176.300781 225.296875 175.289062 C 227.191406 174.207031 228.996094 171.882812 230.738281 169.625 C 231.835938 168.21875 232.960938 166.761719 234.054688 165.691406 C 237.539062 162.292969 241.625 162.039062 241.664062 162.039062 C 241.808594 162.027344 241.910156 161.90625 241.910156 161.777344 C 241.910156 161.695312 241.859375 161.613281 241.777344 161.574219 C 241.726562 161.542969 241.117188 161.210938 240.011719 160.925781 C 240.691406 160.613281 241.808594 159.945312 243.136719 158.578125 C 244.179688 157.519531 245.089844 155.414062 245.984375 153.378906 C 246.824219 151.449219 247.695312 149.457031 248.597656 148.566406 C 249.003906 148.28125 249.238281 148.128906 249.257812 148.121094 L 249.265625 148.109375 L 249.289062 148.089844 C 249.296875 148.082031 249.296875 148.082031 249.308594 148.070312 L 249.316406 148.050781 L 249.328125 148.03125 C 249.328125 148.019531 249.335938 148.019531 249.335938 148.007812 C 249.335938 148 249.347656 148 249.347656 147.988281 C 249.347656 147.980469 249.359375 147.980469 249.359375 147.96875 C 249.359375 147.957031 249.359375 147.949219 249.359375 147.949219 C 249.359375 147.9375 249.359375 147.9375 249.359375 147.929688 C 249.359375 147.917969 249.359375 147.910156 249.359375 147.898438 C 249.378906 147.886719 249.386719 147.878906 249.386719 147.867188 Z M 208.726562 186.597656 C 208.058594 188.023438 207.5 189.492188 207.042969 190.988281 C 207.144531 190.019531 207.335938 189.058594 207.601562 188.125 C 208.433594 185.183594 210.5625 180.296875 215.902344 173.8125 C 221.285156 167.289062 230.0625 160.652344 236.476562 156.234375 C 238.523438 154.828125 240.460938 153.550781 242.183594 152.449219 C 235.644531 157.144531 225.9375 164.46875 220.210938 170.457031 C 213.785156 177.183594 210.417969 182.949219 208.726562 186.597656 Z M 245.539062 153.167969 C 244.664062 155.160156 243.773438 157.222656 242.789062 158.214844 C 240.734375 160.339844 239.222656 160.683594 239.203125 160.683594 C 239.164062 160.695312 239.132812 160.703125 239.101562 160.722656 C 238.160156 160.574219 237.195312 160.542969 236.234375 160.613281 C 236.089844 160.625 235.988281 160.746094 236 160.886719 C 236.011719 161.027344 236.132812 161.128906 236.273438 161.117188 C 238.300781 160.976562 239.832031 161.339844 240.710938 161.644531 C 238.066406 162.160156 235.636719 163.433594 233.710938 165.316406 C 232.585938 166.410156 231.449219 167.886719 230.34375 169.300781 C 228.632812 171.515625 226.859375 173.804688 225.054688 174.835938 C 222.09375 176.523438 218.4375 177.039062 218.40625 177.050781 L 218.386719 177.070312 C 218.070312 177.089844 217.765625 177.132812 217.460938 177.210938 C 217.332031 177.253906 217.25 177.394531 217.289062 177.527344 C 217.332031 177.65625 217.453125 177.726562 217.585938 177.699219 C 218.839844 177.375 220.199219 177.707031 220.988281 177.972656 C 219.550781 178.507812 218.75 179.699219 217.910156 180.964844 C 217.179688 182.058594 216.429688 183.191406 215.191406 183.910156 C 213.246094 185.042969 210.703125 185.527344 209.71875 185.6875 C 211.535156 182.066406 214.808594 176.828125 220.574219 170.800781 C 228.003906 163.039062 242.171875 152.996094 247.332031 149.4375 C 246.722656 150.457031 246.144531 151.792969 245.539062 153.167969 Z M 236.203125 155.808594 C 229.757812 160.238281 220.9375 166.914062 215.515625 173.488281 C 211.511719 178.34375 209.292969 182.320312 208.066406 185.273438 C 207.640625 184.585938 206.820312 183.039062 207.003906 181.671875 C 207.105469 180.902344 207.042969 180.335938 206.921875 179.933594 C 207.289062 180.226562 207.5625 180.640625 207.683594 181.097656 C 207.710938 181.226562 207.855469 181.308594 207.988281 181.277344 C 208.117188 181.25 208.199219 181.105469 208.167969 180.976562 C 208.117188 180.78125 208.046875 180.589844 207.957031 180.417969 C 207.945312 180.398438 207.195312 177.878906 207.105469 176.351562 C 206.953125 173.722656 207.976562 172.578125 211.261719 169.363281 C 212.832031 167.824219 213.257812 165.699219 213.378906 164.628906 C 213.761719 165.207031 213.863281 165.679688 213.988281 166.207031 C 214.117188 166.824219 214.269531 167.523438 214.917969 168.421875 L 214.9375 168.453125 C 214.949219 168.472656 214.96875 168.492188 214.988281 168.511719 C 215.101562 168.664062 215.222656 168.816406 215.363281 168.976562 C 215.457031 169.078125 215.617188 169.101562 215.71875 169.007812 C 215.820312 168.917969 215.839844 168.753906 215.75 168.65625 C 215.597656 168.484375 215.476562 168.320312 215.363281 168.160156 C 215.203125 167.855469 214.332031 166.042969 214.9375 164.074219 C 215.40625 162.554688 216.621094 161.300781 218.558594 160.351562 C 223.414062 157.953125 225.46875 156.375 226.28125 155.605469 C 226.210938 155.96875 226.039062 156.484375 225.652344 157.183594 C 225.042969 158.277344 225.113281 159.441406 225.257812 160.167969 C 225.289062 160.429688 225.359375 160.695312 225.46875 160.9375 C 225.539062 161.058594 225.691406 161.097656 225.8125 161.039062 C 225.925781 160.976562 225.976562 160.84375 225.925781 160.722656 C 225.855469 160.523438 225.792969 160.308594 225.753906 160.085938 C 225.710938 159.632812 225.761719 159.1875 225.90625 158.75 C 226.261719 157.617188 227.375 155.828125 230.667969 153.734375 C 235.859375 150.457031 244.625 148.847656 247.886719 148.34375 C 245.871094 149.515625 241.363281 152.246094 236.203125 155.808594 Z M 236.203125 155.808594 " fill-opacity="1" fill-rule="nonzero"/></g></svg>