<svg xmlns="http://www.w3.org/2000/svg" xmlns:xlink="http://www.w3.org/1999/xlink" width="348" zoomAndPan="magnify" viewBox="0 0 261 80.999996" height="108" preserveAspectRatio="xMidYMid meet" version="1.0"><defs><g/><clipPath id="85f53badca"><path d="M 0.167969 14.515625 L 90.917969 14.515625 L 90.917969 80.515625 L 0.167969 80.515625 Z M 0.167969 14.515625 " clip-rule="nonzero"/></clipPath><clipPath id="ed68f03577"><path d="M 68.875 0.574219 L 112.371094 0.574219 L 112.371094 46.324219 L 68.875 46.324219 Z M 68.875 0.574219 " clip-rule="nonzero"/></clipPath></defs><g clip-path="url(#85f53badca)"><path fill="#2b59ff" d="M 87.984375 73.585938 C 87.984375 74.878906 86.917969 75.933594 85.542969 75.933594 L 45.539062 77.585938 L 5.476562 75.933594 C 4.164062 75.933594 3.097656 74.878906 3.097656 73.585938 L 3.097656 24.445312 C 3.097656 23.148438 4.164062 22.089844 5.476562 22.089844 L 7.226562 22.089844 L 7.226562 71.871094 C 7.328125 72.902344 8.140625 73.269531 8.765625 73.332031 C 8.894531 73.347656 22.152344 72.65625 32.445312 72.617188 C 40.851562 72.617188 45.347656 74.378906 45.539062 74.378906 C 45.734375 74.378906 50.226562 72.617188 58.902344 72.617188 C 68.925781 72.65625 82.183594 73.335938 82.3125 73.332031 C 83.285156 73.320312 83.824219 72.605469 83.851562 71.871094 L 83.851562 22.089844 L 85.605469 22.089844 C 86.917969 22.089844 87.988281 23.148438 87.988281 24.445312 Z M 41.652344 70.433594 C 39.394531 70.039062 36.265625 69.691406 32.164062 69.691406 C 26.5625 69.714844 20.011719 69.929688 15.226562 70.121094 C 19.9375 68.6875 26.609375 67.019531 32.238281 66.992188 C 36.59375 66.992188 39.675781 68.761719 41.652344 70.433594 Z M 10.15625 23.003906 C 13.363281 21.714844 24.558594 17.445312 32.152344 17.445312 C 39.550781 17.527344 43.109375 20.765625 44.078125 21.828125 L 44.078125 68.652344 C 41.722656 66.511719 37.796875 64.066406 32.164062 64.066406 C 24.089844 64.101562 14.304688 67.226562 10.15625 68.695312 Z M 75.863281 70.121094 C 71.046875 69.929688 64.40625 69.714844 58.636719 69.691406 C 54.699219 69.691406 51.664062 70.03125 49.449219 70.421875 C 51.433594 68.753906 54.527344 66.992188 58.90625 66.992188 C 64.503906 67.019531 71.164062 68.6875 75.863281 70.121094 Z M 47.003906 21.828125 C 47.984375 20.761719 51.570312 17.527344 59.128906 17.445312 C 66.546875 17.445312 77.71875 21.714844 80.925781 23.003906 L 80.925781 68.695312 C 76.773438 67.226562 66.976562 64.101562 58.839844 64.066406 C 53.257812 64.066406 49.355469 66.507812 47.003906 68.644531 Z M 85.605469 19.167969 L 79.109375 19.167969 C 74.167969 17.339844 65.484375 14.519531 58.898438 14.519531 C 51.589844 14.601562 47.433594 17.449219 45.566406 19.167969 L 45.507812 19.167969 C 43.628906 17.449219 39.425781 14.601562 31.953125 14.519531 C 25.527344 14.519531 16.886719 17.339844 11.964844 19.167969 L 5.476562 19.167969 C 2.550781 19.167969 0.167969 21.535156 0.167969 24.445312 L 0.167969 73.585938 C 0.167969 76.492188 2.550781 78.855469 5.414062 78.855469 C 5.417969 78.855469 45.480469 80.511719 45.480469 80.511719 C 45.5 80.515625 45.519531 80.515625 45.539062 80.515625 C 45.5625 80.515625 45.582031 80.515625 45.601562 80.511719 L 85.605469 78.855469 C 88.53125 78.855469 90.914062 76.492188 90.914062 73.585938 L 90.914062 24.445312 C 90.914062 21.535156 88.53125 19.167969 85.605469 19.167969 " fill-opacity="1" fill-rule="nonzero"/></g><g clip-path="url(#ed68f03577)"><path fill="#ffffff" d="M 112.363281 0.84375 C 112.363281 0.84375 112.363281 0.851562 112.363281 0.851562 C 112.363281 0.863281 112.363281 0.875 112.363281 0.882812 C 112.363281 0.894531 112.363281 0.894531 112.363281 0.902344 C 112.363281 0.914062 112.363281 0.925781 112.363281 0.925781 C 112.363281 0.933594 112.363281 0.933594 112.351562 0.945312 C 112.351562 0.953125 112.351562 0.964844 112.34375 0.964844 C 112.34375 0.972656 112.332031 0.972656 112.332031 0.984375 L 112.324219 1.003906 L 112.3125 1.023438 C 112.300781 1.035156 112.300781 1.035156 112.292969 1.046875 L 112.273438 1.066406 L 112.261719 1.074219 C 112.242188 1.085938 112.007812 1.246094 111.601562 1.519531 C 110.699219 2.421875 109.828125 4.402344 108.988281 6.335938 C 108.097656 8.367188 107.183594 10.472656 106.140625 11.535156 C 104.8125 12.902344 103.699219 13.566406 103.019531 13.882812 C 104.113281 14.15625 104.730469 14.5 104.78125 14.527344 C 104.902344 14.601562 104.945312 14.75 104.871094 14.871094 C 104.832031 14.945312 104.75 14.996094 104.671875 15.003906 C 104.628906 15.003906 100.546875 15.265625 97.058594 18.667969 C 95.953125 19.738281 94.828125 21.195312 93.746094 22.601562 C 92 24.855469 90.199219 27.183594 88.300781 28.265625 C 86.527344 29.277344 84.550781 29.875 83.183594 30.199219 C 83.773438 30.320312 84.347656 30.511719 84.898438 30.765625 C 85.019531 30.824219 85.078125 30.976562 85.019531 31.097656 C 84.976562 31.167969 84.917969 31.21875 84.835938 31.238281 C 83.101562 31.554688 82.242188 32.847656 81.328125 34.222656 C 80.570312 35.367188 79.777344 36.550781 78.449219 37.320312 C 76.097656 38.683594 73.007812 39.140625 72.449219 39.21875 C 72.359375 39.402344 72.277344 39.585938 72.199219 39.757812 C 70.382812 43.671875 70.070312 46.039062 70.070312 46.066406 C 70.058594 46.191406 69.957031 46.28125 69.835938 46.289062 L 69.796875 46.289062 C 69.671875 46.289062 69.574219 46.210938 69.542969 46.089844 C 69.523438 46.019531 69.148438 44.308594 70.070312 41.011719 C 70.25 40.375 70.484375 39.636719 70.808594 38.824219 C 70.503906 38.378906 69.226562 36.398438 69.472656 34.578125 C 69.703125 32.859375 69.023438 32.402344 69.023438 32.402344 C 68.914062 32.34375 68.875 32.199219 68.921875 32.078125 C 68.972656 31.957031 69.117188 31.90625 69.238281 31.9375 C 69.5625 32.058594 69.875 32.230469 70.148438 32.441406 C 69.917969 31.554688 69.632812 30.277344 69.574219 29.328125 C 69.398438 26.484375 70.546875 25.210938 73.878906 21.945312 C 75.867188 20.011719 75.886719 16.925781 75.886719 16.894531 C 75.886719 16.753906 76 16.644531 76.140625 16.644531 C 76.210938 16.644531 76.28125 16.671875 76.332031 16.722656 C 76.699219 17.128906 76.992188 17.59375 77.195312 18.101562 C 77.222656 17.683594 77.296875 17.28125 77.417969 16.886719 C 77.921875 15.226562 79.230469 13.871094 81.296875 12.851562 C 88.121094 9.492188 89.304688 7.75 89.316406 7.742188 C 89.367188 7.660156 89.46875 7.609375 89.570312 7.628906 C 89.671875 7.640625 89.742188 7.710938 89.773438 7.8125 C 89.792969 7.882812 89.933594 8.480469 89.40625 9.683594 C 90.175781 8.671875 91.421875 7.519531 93.371094 6.273438 C 99.886719 2.136719 111.886719 0.640625 112.070312 0.609375 L 112.078125 0.609375 C 112.089844 0.609375 112.109375 0.609375 112.121094 0.609375 L 112.160156 0.609375 C 112.171875 0.609375 112.179688 0.621094 112.179688 0.621094 L 112.199219 0.628906 L 112.222656 0.640625 L 112.242188 0.652344 L 112.261719 0.671875 L 112.273438 0.679688 C 112.28125 0.691406 112.28125 0.703125 112.292969 0.703125 L 112.300781 0.710938 C 112.300781 0.710938 112.3125 0.730469 112.3125 0.730469 L 112.324219 0.753906 C 112.324219 0.761719 112.324219 0.761719 112.324219 0.773438 C 112.324219 0.78125 112.324219 0.792969 112.332031 0.800781 C 112.34375 0.800781 112.34375 0.800781 112.34375 0.8125 C 112.371094 0.832031 112.363281 0.84375 112.363281 0.84375 Z M 112.363281 0.84375 " fill-opacity="1" fill-rule="nonzero"/><path fill="#e0dfd9" d="M 112.363281 0.84375 C 112.363281 0.832031 112.363281 0.824219 112.351562 0.8125 C 112.34375 0.800781 112.351562 0.800781 112.351562 0.792969 L 112.34375 0.773438 C 112.34375 0.761719 112.332031 0.753906 112.332031 0.753906 L 112.324219 0.742188 C 112.3125 0.730469 112.3125 0.722656 112.300781 0.722656 L 112.292969 0.710938 L 112.273438 0.691406 L 112.25 0.679688 L 112.230469 0.671875 L 112.210938 0.660156 C 112.199219 0.660156 112.191406 0.652344 112.191406 0.652344 L 112.148438 0.652344 C 112.140625 0.652344 112.121094 0.652344 112.109375 0.652344 L 112.097656 0.652344 C 111.917969 0.671875 99.90625 2.179688 93.390625 6.316406 C 91.445312 7.550781 90.199219 8.703125 89.425781 9.722656 C 89.953125 8.511719 89.8125 7.921875 89.792969 7.851562 C 89.761719 7.761719 89.691406 7.691406 89.589844 7.671875 C 89.488281 7.652344 89.386719 7.691406 89.324219 7.773438 C 89.316406 7.792969 88.128906 9.523438 81.308594 12.878906 C 79.222656 13.882812 77.914062 15.238281 77.40625 16.894531 C 77.285156 17.289062 77.214844 17.695312 77.183594 18.109375 C 76.980469 17.605469 76.699219 17.140625 76.324219 16.734375 C 76.230469 16.632812 76.070312 16.621094 75.96875 16.714844 C 75.917969 16.765625 75.886719 16.835938 75.886719 16.90625 C 75.886719 16.9375 75.855469 20.023438 73.878906 21.964844 C 70.546875 25.230469 69.398438 26.503906 69.574219 29.347656 C 69.632812 30.296875 69.917969 31.574219 70.148438 32.464844 C 69.875 32.25 69.5625 32.078125 69.238281 31.957031 C 69.117188 31.917969 68.972656 31.976562 68.921875 32.097656 C 68.875 32.21875 68.914062 32.351562 69.023438 32.421875 C 69.035156 32.421875 69.703125 32.878906 69.472656 34.597656 C 69.226562 36.417969 70.496094 38.402344 70.808594 38.847656 C 70.496094 39.664062 70.25 40.394531 70.070312 41.03125 C 69.148438 44.308594 69.53125 46.027344 69.542969 46.097656 C 69.574219 46.210938 69.671875 46.289062 69.785156 46.289062 L 69.804688 46.289062 C 69.925781 46.28125 70.027344 46.191406 70.039062 46.066406 C 70.039062 46.046875 70.351562 43.671875 72.167969 39.757812 C 72.25 39.585938 72.328125 39.402344 72.421875 39.21875 C 72.988281 39.148438 76.070312 38.695312 78.421875 37.320312 C 79.75 36.550781 80.539062 35.367188 81.296875 34.222656 C 82.210938 32.847656 83.082031 31.542969 84.804688 31.238281 C 84.949219 31.21875 85.039062 31.085938 85.007812 30.945312 C 85 30.863281 84.949219 30.792969 84.867188 30.765625 C 84.320312 30.511719 83.742188 30.328125 83.152344 30.199219 C 84.523438 29.875 86.5 29.277344 88.273438 28.265625 C 90.167969 27.183594 91.972656 24.855469 93.714844 22.601562 C 94.808594 21.195312 95.933594 19.738281 97.027344 18.667969 C 100.515625 15.265625 104.597656 15.015625 104.640625 15.015625 C 104.78125 15.003906 104.882812 14.882812 104.882812 14.75 C 104.882812 14.671875 104.832031 14.589844 104.75 14.550781 C 104.699219 14.519531 104.09375 14.183594 102.988281 13.902344 C 103.667969 13.589844 104.78125 12.921875 106.109375 11.554688 C 107.152344 10.492188 108.066406 8.390625 108.957031 6.355469 C 109.796875 4.421875 110.671875 2.429688 111.574219 1.539062 C 111.976562 1.257812 112.210938 1.105469 112.230469 1.097656 L 112.261719 1.066406 C 112.273438 1.054688 112.273438 1.054688 112.28125 1.046875 L 112.292969 1.023438 L 112.300781 1.003906 C 112.300781 0.996094 112.3125 0.996094 112.3125 0.984375 C 112.3125 0.972656 112.324219 0.972656 112.324219 0.964844 C 112.324219 0.953125 112.332031 0.953125 112.332031 0.945312 C 112.332031 0.933594 112.332031 0.925781 112.332031 0.925781 C 112.332031 0.914062 112.332031 0.914062 112.332031 0.902344 C 112.332031 0.894531 112.332031 0.882812 112.332031 0.875 C 112.351562 0.863281 112.363281 0.851562 112.363281 0.84375 Z M 108.511719 6.144531 C 107.648438 8.136719 106.746094 10.199219 105.773438 11.191406 C 103.71875 13.316406 102.207031 13.660156 102.1875 13.660156 C 102.148438 13.667969 102.117188 13.679688 102.085938 13.699219 C 101.144531 13.546875 100.179688 13.515625 99.21875 13.589844 C 99.074219 13.597656 98.972656 13.71875 98.984375 13.863281 C 98.996094 14.003906 99.117188 14.105469 99.257812 14.09375 C 101.285156 13.953125 102.816406 14.316406 103.699219 14.621094 C 101.050781 15.136719 98.621094 16.410156 96.695312 18.292969 C 95.570312 19.382812 94.433594 20.859375 93.328125 22.277344 C 91.617188 24.492188 89.84375 26.777344 88.039062 27.808594 C 85.078125 29.5 81.421875 30.015625 81.390625 30.027344 L 81.359375 30.046875 C 81.046875 30.066406 80.742188 30.105469 80.4375 30.1875 C 80.304688 30.226562 80.222656 30.371094 80.265625 30.5 C 80.304688 30.632812 80.425781 30.703125 80.558594 30.671875 C 81.816406 30.347656 83.171875 30.683594 83.964844 30.945312 C 82.523438 31.480469 81.722656 32.675781 80.882812 33.941406 C 80.152344 35.03125 79.402344 36.164062 78.167969 36.882812 C 76.222656 38.015625 73.675781 38.503906 72.695312 38.664062 C 74.507812 35.042969 77.78125 29.804688 83.546875 23.773438 C 90.976562 16.015625 105.148438 5.972656 110.304688 2.410156 C 109.699219 3.433594 109.121094 4.769531 108.511719 6.144531 Z M 99.167969 8.785156 C 92.722656 13.214844 83.902344 19.890625 78.492188 26.464844 C 74.488281 31.320312 72.269531 35.296875 71.042969 38.25 C 70.617188 37.5625 69.796875 36.015625 69.976562 34.648438 C 70.078125 33.878906 70.019531 33.3125 69.898438 32.910156 C 70.261719 33.203125 70.535156 33.617188 70.65625 34.070312 C 70.6875 34.203125 70.828125 34.285156 70.960938 34.253906 C 71.09375 34.222656 71.171875 34.082031 71.144531 33.949219 C 71.09375 33.757812 71.023438 33.566406 70.929688 33.394531 C 70.921875 33.375 70.171875 30.855469 70.078125 29.328125 C 69.925781 26.699219 70.949219 25.554688 74.234375 22.339844 C 75.804688 20.800781 76.230469 18.675781 76.351562 17.605469 C 76.738281 18.179688 76.839844 18.65625 76.960938 19.183594 C 77.09375 19.800781 77.246094 20.496094 77.894531 21.398438 L 77.914062 21.425781 C 77.921875 21.449219 77.945312 21.46875 77.964844 21.488281 C 78.074219 21.640625 78.199219 21.792969 78.339844 21.953125 C 78.429688 22.054688 78.59375 22.074219 78.695312 21.984375 C 78.796875 21.894531 78.816406 21.730469 78.722656 21.628906 C 78.574219 21.457031 78.449219 21.296875 78.339844 21.132812 C 78.175781 20.832031 77.304688 19.019531 77.914062 17.046875 C 78.378906 15.53125 79.597656 14.277344 81.53125 13.324219 C 86.386719 10.929688 88.445312 9.351562 89.253906 8.582031 C 89.183594 8.945312 89.011719 9.460938 88.625 10.160156 C 88.019531 11.25 88.089844 12.414062 88.230469 13.144531 C 88.261719 13.40625 88.332031 13.667969 88.445312 13.910156 C 88.515625 14.035156 88.667969 14.074219 88.789062 14.011719 C 88.898438 13.953125 88.949219 13.820312 88.898438 13.699219 C 88.828125 13.496094 88.769531 13.285156 88.726562 13.0625 C 88.6875 12.605469 88.738281 12.160156 88.878906 11.726562 C 89.234375 10.59375 90.347656 8.804688 93.644531 6.710938 C 98.832031 3.433594 107.597656 1.824219 110.863281 1.320312 C 108.847656 2.492188 104.335938 5.222656 99.167969 8.785156 Z M 99.167969 8.785156 " fill-opacity="1" fill-rule="nonzero"/><path fill="#2b59ff" d="M 112.363281 0.84375 C 112.363281 0.832031 112.363281 0.824219 112.351562 0.8125 C 112.34375 0.800781 112.351562 0.800781 112.351562 0.792969 L 112.34375 0.773438 C 112.34375 0.761719 112.332031 0.753906 112.332031 0.753906 L 112.324219 0.742188 C 112.3125 0.730469 112.3125 0.722656 112.300781 0.722656 L 112.292969 0.710938 L 112.273438 0.691406 L 112.25 0.679688 L 112.230469 0.671875 L 112.210938 0.660156 C 112.199219 0.660156 112.191406 0.652344 112.191406 0.652344 L 112.148438 0.652344 C 112.140625 0.652344 112.121094 0.652344 112.109375 0.652344 L 112.097656 0.652344 C 111.917969 0.671875 99.90625 2.179688 93.390625 6.316406 C 91.445312 7.550781 90.199219 8.703125 89.425781 9.722656 C 89.953125 8.511719 89.8125 7.921875 89.792969 7.851562 C 89.761719 7.761719 89.691406 7.691406 89.589844 7.671875 C 89.488281 7.652344 89.386719 7.691406 89.324219 7.773438 C 89.316406 7.792969 88.128906 9.523438 81.308594 12.878906 C 79.222656 13.882812 77.914062 15.238281 77.40625 16.894531 C 77.285156 17.289062 77.214844 17.695312 77.183594 18.109375 C 76.980469 17.605469 76.699219 17.140625 76.324219 16.734375 C 76.230469 16.632812 76.070312 16.621094 75.96875 16.714844 C 75.917969 16.765625 75.886719 16.835938 75.886719 16.90625 C 75.886719 16.9375 75.855469 20.023438 73.878906 21.964844 C 70.546875 25.230469 69.398438 26.503906 69.574219 29.347656 C 69.632812 30.296875 69.917969 31.574219 70.148438 32.464844 C 69.875 32.25 69.5625 32.078125 69.238281 31.957031 C 69.117188 31.917969 68.972656 31.976562 68.921875 32.097656 C 68.875 32.21875 68.914062 32.351562 69.023438 32.421875 C 69.035156 32.421875 69.703125 32.878906 69.472656 34.597656 C 69.226562 36.417969 70.496094 38.402344 70.808594 38.847656 C 70.496094 39.664062 70.25 40.394531 70.070312 41.03125 C 69.148438 44.308594 69.53125 46.027344 69.542969 46.097656 C 69.574219 46.210938 69.671875 46.289062 69.785156 46.289062 L 69.804688 46.289062 C 69.925781 46.28125 70.027344 46.191406 70.039062 46.066406 C 70.039062 46.046875 70.351562 43.671875 72.167969 39.757812 C 72.25 39.585938 72.328125 39.402344 72.421875 39.21875 C 72.988281 39.148438 76.070312 38.695312 78.421875 37.320312 C 79.75 36.550781 80.539062 35.367188 81.296875 34.222656 C 82.210938 32.847656 83.082031 31.542969 84.804688 31.238281 C 84.949219 31.21875 85.039062 31.085938 85.007812 30.945312 C 85 30.863281 84.949219 30.792969 84.867188 30.765625 C 84.320312 30.511719 83.742188 30.328125 83.152344 30.199219 C 84.523438 29.875 86.5 29.277344 88.273438 28.265625 C 90.167969 27.183594 91.972656 24.855469 93.714844 22.601562 C 94.808594 21.195312 95.933594 19.738281 97.027344 18.667969 C 100.515625 15.265625 104.597656 15.015625 104.640625 15.015625 C 104.78125 15.003906 104.882812 14.882812 104.882812 14.75 C 104.882812 14.671875 104.832031 14.589844 104.75 14.550781 C 104.699219 14.519531 104.09375 14.183594 102.988281 13.902344 C 103.667969 13.589844 104.78125 12.921875 106.109375 11.554688 C 107.152344 10.492188 108.066406 8.390625 108.957031 6.355469 C 109.796875 4.421875 110.671875 2.429688 111.574219 1.539062 C 111.976562 1.257812 112.210938 1.105469 112.230469 1.097656 L 112.261719 1.066406 C 112.273438 1.054688 112.273438 1.054688 112.28125 1.046875 L 112.292969 1.023438 L 112.300781 1.003906 C 112.300781 0.996094 112.3125 0.996094 112.3125 0.984375 C 112.3125 0.972656 112.324219 0.972656 112.324219 0.964844 C 112.324219 0.953125 112.332031 0.953125 112.332031 0.945312 C 112.332031 0.933594 112.332031 0.925781 112.332031 0.925781 C 112.332031 0.914062 112.332031 0.914062 112.332031 0.902344 C 112.332031 0.894531 112.332031 0.882812 112.332031 0.875 C 112.351562 0.863281 112.363281 0.851562 112.363281 0.84375 Z M 71.699219 39.574219 C 71.03125 41 70.472656 42.46875 70.019531 43.964844 C 70.121094 42.992188 70.3125 42.03125 70.574219 41.101562 C 71.40625 38.15625 73.535156 33.273438 78.875 26.789062 C 84.257812 20.265625 93.035156 13.628906 99.449219 9.207031 C 101.5 7.800781 103.433594 6.527344 105.15625 5.425781 C 98.621094 10.117188 88.910156 17.441406 83.183594 23.429688 C 76.757812 30.15625 73.394531 35.921875 71.699219 39.574219 Z M 108.511719 6.144531 C 107.640625 8.136719 106.746094 10.199219 105.765625 11.191406 C 103.707031 13.316406 102.199219 13.660156 102.175781 13.660156 C 102.136719 13.667969 102.105469 13.679688 102.074219 13.699219 C 101.132812 13.546875 100.171875 13.515625 99.207031 13.589844 C 99.066406 13.597656 98.964844 13.71875 98.972656 13.863281 C 98.984375 14.003906 99.105469 14.105469 99.25 14.09375 C 101.273438 13.953125 102.804688 14.316406 103.6875 14.621094 C 101.042969 15.136719 98.609375 16.410156 96.683594 18.292969 C 95.558594 19.382812 94.421875 20.859375 93.320312 22.277344 C 91.605469 24.492188 89.832031 26.777344 88.027344 27.808594 C 85.070312 29.5 81.410156 30.015625 81.378906 30.027344 L 81.359375 30.046875 C 81.046875 30.066406 80.742188 30.105469 80.4375 30.1875 C 80.304688 30.226562 80.222656 30.371094 80.265625 30.5 C 80.304688 30.632812 80.425781 30.703125 80.558594 30.671875 C 81.816406 30.347656 83.171875 30.683594 83.964844 30.945312 C 82.523438 31.480469 81.722656 32.675781 80.882812 33.941406 C 80.152344 35.03125 79.402344 36.164062 78.167969 36.882812 C 76.222656 38.015625 73.675781 38.503906 72.695312 38.664062 C 74.507812 35.042969 77.78125 29.804688 83.546875 23.773438 C 90.976562 16.015625 105.148438 5.972656 110.304688 2.410156 C 109.699219 3.433594 109.121094 4.769531 108.511719 6.144531 Z M 99.175781 8.785156 C 92.730469 13.214844 83.914062 19.890625 78.492188 26.464844 C 74.488281 31.320312 72.269531 35.296875 71.042969 38.25 C 70.617188 37.5625 69.796875 36.015625 69.976562 34.648438 C 70.078125 33.878906 70.019531 33.3125 69.898438 32.910156 C 70.261719 33.203125 70.535156 33.617188 70.65625 34.070312 C 70.6875 34.203125 70.828125 34.285156 70.960938 34.253906 C 71.09375 34.222656 71.171875 34.082031 71.144531 33.949219 C 71.09375 33.757812 71.023438 33.566406 70.929688 33.394531 C 70.921875 33.375 70.171875 30.855469 70.078125 29.328125 C 69.925781 26.699219 70.949219 25.554688 74.234375 22.339844 C 75.804688 20.800781 76.230469 18.675781 76.351562 17.605469 C 76.738281 18.179688 76.839844 18.65625 76.960938 19.183594 C 77.09375 19.800781 77.246094 20.496094 77.894531 21.398438 L 77.914062 21.425781 C 77.921875 21.449219 77.945312 21.46875 77.964844 21.488281 C 78.074219 21.640625 78.199219 21.792969 78.339844 21.953125 C 78.429688 22.054688 78.59375 22.074219 78.695312 21.984375 C 78.796875 21.894531 78.816406 21.730469 78.722656 21.628906 C 78.574219 21.457031 78.449219 21.296875 78.339844 21.132812 C 78.175781 20.832031 77.304688 19.019531 77.914062 17.046875 C 78.378906 15.53125 79.597656 14.277344 81.53125 13.324219 C 86.386719 10.929688 88.445312 9.351562 89.253906 8.582031 C 89.183594 8.945312 89.011719 9.460938 88.625 10.160156 C 88.019531 11.25 88.089844 12.414062 88.230469 13.144531 C 88.261719 13.40625 88.332031 13.667969 88.445312 13.910156 C 88.515625 14.035156 88.667969 14.074219 88.789062 14.011719 C 88.898438 13.953125 88.949219 13.820312 88.898438 13.699219 C 88.828125 13.496094 88.769531 13.285156 88.726562 13.0625 C 88.6875 12.605469 88.738281 12.160156 88.878906 11.726562 C 89.234375 10.59375 90.347656 8.804688 93.644531 6.710938 C 98.832031 3.433594 107.597656 1.824219 110.863281 1.320312 C 108.847656 2.492188 104.335938 5.222656 99.175781 8.785156 Z M 99.175781 8.785156 " fill-opacity="1" fill-rule="nonzero"/></g><g fill="#000000" fill-opacity="1"><g transform="translate(96.194052, 41.058644)"><g><path d="M 10.574219 0.363281 C 15.433594 0.363281 18.40625 -2.328125 18.949219 -6.410156 L 14.890625 -6.410156 C 14.503906 -4.085938 12.796875 -2.972656 10.46875 -2.972656 C 6.851562 -2.972656 4.886719 -5.765625 4.886719 -9.875 C 4.886719 -13.960938 6.851562 -16.753906 10.46875 -16.753906 C 12.796875 -16.753906 14.527344 -15.640625 14.890625 -13.546875 L 18.949219 -13.546875 C 18.40625 -17.425781 15.433594 -20.085938 10.574219 -20.085938 C 4.03125 -20.085938 1.007812 -15.332031 1.007812 -9.875 C 1.007812 -4.421875 4.03125 0.363281 10.574219 0.363281 Z M 10.574219 0.363281 "/></g></g></g><g fill="#000000" fill-opacity="1"><g transform="translate(116.022141, 41.058644)"><g><path d="M 8.375 0.285156 C 12.253906 0.285156 14.476562 -2.066406 15.332031 -4.886719 L 11.761719 -4.886719 C 11.296875 -3.695312 10.160156 -2.714844 8.503906 -2.714844 C 7.007812 -2.714844 5.816406 -3.488281 5.144531 -4.835938 C 4.886719 -5.273438 4.652344 -5.921875 4.601562 -6.539062 L 15.5625 -6.539062 L 15.5625 -7.289062 C 15.5625 -12.539062 12.019531 -14.8125 8.273438 -14.8125 C 3.308594 -14.8125 0.980469 -10.960938 0.980469 -7.160156 C 0.980469 -2.871094 3.929688 0.285156 8.375 0.285156 Z M 4.757812 -9.152344 C 4.808594 -9.539062 4.9375 -10.03125 5.324219 -10.496094 C 5.996094 -11.53125 7.082031 -12.046875 8.375 -12.046875 C 9.644531 -12.046875 10.78125 -11.53125 11.453125 -10.496094 C 11.816406 -10.054688 11.945312 -9.539062 11.996094 -9.152344 Z M 4.757812 -9.152344 "/></g></g></g><g fill="#000000" fill-opacity="1"><g transform="translate(132.567092, 41.058644)"><g><path d="M 5.066406 0 L 5.066406 -7.394531 C 5.066406 -9.308594 5.324219 -10.367188 5.921875 -11.066406 C 6.386719 -11.632812 7.109375 -11.945312 8.117188 -11.945312 C 8.945312 -11.945312 9.539062 -11.738281 9.953125 -11.296875 C 10.445312 -10.753906 10.675781 -9.875 10.675781 -8.402344 L 10.675781 0 L 14.140625 0 L 14.140625 -8.351562 C 14.140625 -9.796875 14.140625 -11.117188 13.546875 -12.382812 C 12.902344 -13.726562 11.660156 -14.8125 9.023438 -14.8125 C 7.472656 -14.8125 6.230469 -14.296875 5.066406 -12.667969 L 5.066406 -14.503906 L 1.578125 -14.503906 L 1.578125 0 Z M 5.066406 0 "/></g></g></g><g fill="#000000" fill-opacity="1"><g transform="translate(148.207239, 41.058644)"><g><path d="M 8.996094 0 L 8.996094 -2.894531 L 7.417969 -2.894531 C 6.332031 -2.894531 6.230469 -3.488281 6.230469 -4.238281 L 6.230469 -11.710938 L 9.023438 -11.710938 L 9.023438 -14.503906 L 6.230469 -14.503906 L 6.230469 -19.726562 L 2.742188 -19.726562 L 2.742188 -14.503906 L 0.59375 -14.503906 L 0.59375 -11.710938 L 2.742188 -11.710938 L 2.742188 -3.179688 C 2.742188 -0.929688 3.980469 0 6.128906 0 Z M 8.996094 0 "/></g></g></g><g fill="#000000" fill-opacity="1"><g transform="translate(158.108357, 41.058644)"><g><path d="M 5.066406 0 L 5.066406 -6.722656 C 5.066406 -8.632812 5.453125 -9.796875 6.230469 -10.574219 C 6.800781 -11.117188 7.625 -11.453125 8.816406 -11.453125 L 9.617188 -11.453125 L 9.617188 -14.8125 L 9.203125 -14.8125 C 7.496094 -14.8125 6.179688 -14.296875 5.066406 -12.769531 L 5.066406 -14.503906 L 1.578125 -14.503906 L 1.578125 0 Z M 5.066406 0 "/></g></g></g><g fill="#000000" fill-opacity="1"><g transform="translate(168.216293, 41.058644)"><g><path d="M 8.375 0.285156 C 12.253906 0.285156 14.476562 -2.066406 15.332031 -4.886719 L 11.761719 -4.886719 C 11.296875 -3.695312 10.160156 -2.714844 8.503906 -2.714844 C 7.007812 -2.714844 5.816406 -3.488281 5.144531 -4.835938 C 4.886719 -5.273438 4.652344 -5.921875 4.601562 -6.539062 L 15.5625 -6.539062 L 15.5625 -7.289062 C 15.5625 -12.539062 12.019531 -14.8125 8.273438 -14.8125 C 3.308594 -14.8125 0.980469 -10.960938 0.980469 -7.160156 C 0.980469 -2.871094 3.929688 0.285156 8.375 0.285156 Z M 4.757812 -9.152344 C 4.808594 -9.539062 4.9375 -10.03125 5.324219 -10.496094 C 5.996094 -11.53125 7.082031 -12.046875 8.375 -12.046875 C 9.644531 -12.046875 10.78125 -11.53125 11.453125 -10.496094 C 11.816406 -10.054688 11.945312 -9.539062 11.996094 -9.152344 Z M 4.757812 -9.152344 "/></g></g></g><g fill="#5271ff" fill-opacity="1"><g transform="translate(184.752638, 41.058644)"><g/></g></g><g fill="#2b59ff" fill-opacity="1"><g transform="translate(96.194052, 73.187623)"><g><path d="M 8.949219 0 C 16.878906 0 21.257812 -4.226562 21.257812 -11.753906 C 21.257812 -19.316406 16.910156 -23.542969 8.949219 -23.542969 L 2.097656 -23.542969 L 2.097656 0 Z M 6.542969 -19.5625 L 8.917969 -19.5625 C 13.667969 -19.5625 16.816406 -17.21875 16.816406 -11.753906 C 16.816406 -5.925781 13.578125 -3.980469 8.886719 -3.980469 L 6.542969 -3.980469 Z M 6.542969 -19.5625 "/></g></g></g><g fill="#2b59ff" fill-opacity="1"><g transform="translate(118.648331, 73.187623)"><g><path d="M 6.878906 0.339844 C 8.363281 0.339844 9.71875 0.09375 10.800781 -0.617188 C 11.445312 -1.019531 11.941406 -1.574219 12.371094 -2.34375 L 12.371094 0 L 16.539062 0 L 16.539062 -9.007812 C 16.539062 -11.417969 16.539062 -14.132812 14.5 -15.921875 C 13.207031 -17.125 11.261719 -17.679688 9.257812 -17.679688 C 5.832031 -17.679688 2.46875 -15.828125 1.851562 -11.785156 L 5.984375 -11.785156 C 6.292969 -13.421875 7.652344 -14.410156 9.226562 -14.410156 C 10.214844 -14.410156 11.015625 -14.132812 11.539062 -13.578125 C 12.0625 -13.019531 12.34375 -12.1875 12.371094 -11.136719 L 7.21875 -10.183594 C 5.769531 -9.90625 4.289062 -9.472656 3.179688 -8.699219 C 1.976562 -7.867188 1.203125 -6.601562 1.203125 -4.75 C 1.203125 -1.449219 3.609375 0.339844 6.878906 0.339844 Z M 7.898438 -2.929688 C 6.449219 -2.929688 5.367188 -3.609375 5.367188 -4.90625 C 5.367188 -5.492188 5.585938 -5.925781 5.925781 -6.261719 C 6.417969 -6.726562 7.128906 -7.035156 8.332031 -7.25 L 12.464844 -8.085938 C 12.402344 -5.800781 11.941406 -4.320312 10.121094 -3.425781 C 9.441406 -3.085938 8.671875 -2.929688 7.898438 -2.929688 Z M 7.898438 -2.929688 "/></g></g></g><g fill="#2b59ff" fill-opacity="1"><g transform="translate(136.877016, 73.187623)"><g><path d="M 6.046875 0 L 6.046875 -8.023438 C 6.046875 -10.304688 6.511719 -11.695312 7.4375 -12.621094 C 8.113281 -13.269531 9.101562 -13.667969 10.523438 -13.667969 L 11.476562 -13.667969 L 11.476562 -17.679688 L 10.984375 -17.679688 C 8.949219 -17.679688 7.375 -17.0625 6.046875 -15.242188 L 6.046875 -17.308594 L 1.882812 -17.308594 L 1.882812 0 Z M 6.046875 0 "/></g></g></g><g fill="#2b59ff" fill-opacity="1"><g transform="translate(148.936936, 73.187623)"><g><path d="M 9.378906 0.339844 C 13.855469 0.339844 16.507812 -1.882812 16.507812 -5.246094 C 16.507812 -9.226562 12.804688 -9.90625 9.75 -10.492188 C 7.621094 -10.890625 5.769531 -11.230469 5.769531 -12.652344 C 5.769531 -13.730469 6.789062 -14.410156 8.453125 -14.410156 C 10.152344 -14.410156 11.632812 -13.667969 12.125 -11.785156 L 16.042969 -11.785156 C 15.425781 -15.550781 12.527344 -17.679688 8.484375 -17.679688 C 4.90625 -17.679688 1.789062 -16.105469 1.789062 -12.496094 C 1.789062 -8.640625 5.308594 -7.898438 8.300781 -7.3125 C 10.492188 -6.878906 12.402344 -6.480469 12.402344 -4.9375 C 12.402344 -3.640625 11.109375 -2.929688 9.347656 -2.929688 C 7.21875 -2.929688 5.707031 -3.949219 5.183594 -5.832031 L 1.078125 -5.832031 C 1.667969 -1.480469 5.429688 0.339844 9.378906 0.339844 Z M 9.378906 0.339844 "/></g></g></g><g fill="#2b59ff" fill-opacity="1"><g transform="translate(166.70296, 73.187623)"><g><path d="M 9.378906 0.339844 C 13.855469 0.339844 16.507812 -1.882812 16.507812 -5.246094 C 16.507812 -9.226562 12.804688 -9.90625 9.75 -10.492188 C 7.621094 -10.890625 5.769531 -11.230469 5.769531 -12.652344 C 5.769531 -13.730469 6.789062 -14.410156 8.453125 -14.410156 C 10.152344 -14.410156 11.632812 -13.667969 12.125 -11.785156 L 16.042969 -11.785156 C 15.425781 -15.550781 12.527344 -17.679688 8.484375 -17.679688 C 4.90625 -17.679688 1.789062 -16.105469 1.789062 -12.496094 C 1.789062 -8.640625 5.308594 -7.898438 8.300781 -7.3125 C 10.492188 -6.878906 12.402344 -6.480469 12.402344 -4.9375 C 12.402344 -3.640625 11.109375 -2.929688 9.347656 -2.929688 C 7.21875 -2.929688 5.707031 -3.949219 5.183594 -5.832031 L 1.078125 -5.832031 C 1.667969 -1.480469 5.429688 0.339844 9.378906 0.339844 Z M 9.378906 0.339844 "/></g></g></g><g fill="#2b59ff" fill-opacity="1"><g transform="translate(184.468984, 73.187623)"><g><path d="M 11.941406 0 L 11.941406 -19.5625 L 19.097656 -19.5625 L 19.097656 -23.542969 L 0.308594 -23.542969 L 0.308594 -19.5625 L 7.496094 -19.5625 L 7.496094 0 Z M 11.941406 0 "/></g></g></g><g fill="#2b59ff" fill-opacity="1"><g transform="translate(203.90057, 73.187623)"><g><path d="M 3.980469 -19.222656 C 5.367188 -19.222656 6.542969 -20.148438 6.542969 -21.597656 C 6.542969 -22.988281 5.367188 -23.972656 3.980469 -23.972656 C 2.5625 -23.972656 1.417969 -22.988281 1.417969 -21.597656 C 1.417969 -20.148438 2.5625 -19.222656 3.980469 -19.222656 Z M 6.046875 0 L 6.046875 -17.308594 L 1.882812 -17.308594 L 1.882812 0 Z M 6.046875 0 "/></g></g></g><g fill="#2b59ff" fill-opacity="1"><g transform="translate(211.858264, 73.187623)"><g><path d="M 6.046875 0 L 6.046875 -9.164062 C 6.046875 -11.386719 6.386719 -12.558594 7.066406 -13.359375 C 7.558594 -13.914062 8.269531 -14.253906 9.164062 -14.253906 C 10.890625 -14.253906 11.910156 -13.175781 11.910156 -10.832031 L 11.910156 0 L 16.074219 0 L 16.074219 -9.164062 C 16.074219 -11.167969 16.324219 -12.527344 17.125 -13.421875 C 17.585938 -13.914062 18.265625 -14.253906 19.191406 -14.253906 C 20.949219 -14.253906 21.90625 -13.207031 21.90625 -10.832031 L 21.90625 0 L 26.074219 0 L 26.074219 -11.355469 C 26.074219 -15.210938 24.28125 -17.679688 20.394531 -17.679688 C 18.113281 -17.679688 16.445312 -16.847656 15.304688 -14.902344 C 14.75 -16.753906 13.019531 -17.679688 10.769531 -17.679688 C 8.980469 -17.679688 7.40625 -17 6.046875 -15.117188 L 6.046875 -17.308594 L 1.882812 -17.308594 L 1.882812 0 Z M 6.046875 0 "/></g></g></g><g fill="#2b59ff" fill-opacity="1"><g transform="translate(239.710205, 73.187623)"><g><path d="M 9.996094 0.339844 C 14.625 0.339844 17.277344 -2.46875 18.296875 -5.832031 L 14.039062 -5.832031 C 13.484375 -4.414062 12.125 -3.238281 10.152344 -3.238281 C 8.363281 -3.238281 6.941406 -4.164062 6.140625 -5.769531 C 5.832031 -6.292969 5.554688 -7.066406 5.492188 -7.804688 L 18.574219 -7.804688 L 18.574219 -8.699219 C 18.574219 -14.964844 14.347656 -17.679688 9.875 -17.679688 C 3.949219 -17.679688 1.171875 -13.082031 1.171875 -8.546875 C 1.171875 -3.425781 4.691406 0.339844 9.996094 0.339844 Z M 5.675781 -10.921875 C 5.738281 -11.386719 5.894531 -11.972656 6.355469 -12.527344 C 7.160156 -13.761719 8.453125 -14.378906 9.996094 -14.378906 C 11.507812 -14.378906 12.867188 -13.761719 13.667969 -12.527344 C 14.101562 -12.003906 14.253906 -11.386719 14.316406 -10.921875 Z M 5.675781 -10.921875 "/></g></g></g></svg>