<svg xmlns="http://www.w3.org/2000/svg" xmlns:xlink="http://www.w3.org/1999/xlink" width="500" zoomAndPan="magnify" viewBox="0 0 375 374.999991" height="500" preserveAspectRatio="xMidYMid meet" version="1.0"><defs><g/><clipPath id="2d4b6c5145"><path d="M 53.269531 137 L 144.019531 137 L 144.019531 203 L 53.269531 203 Z M 53.269531 137 " clip-rule="nonzero"/></clipPath><clipPath id="2df8914e41"><path d="M 122 123.058594 L 165.472656 123.058594 L 165.472656 168.808594 L 122 168.808594 Z M 122 123.058594 " clip-rule="nonzero"/></clipPath></defs><g clip-path="url(#2d4b6c5145)"><path fill="#2b59ff" d="M 141.085938 196.066406 C 141.085938 197.359375 140.015625 198.414062 138.644531 198.414062 L 98.640625 200.070312 L 58.578125 198.414062 C 57.265625 198.414062 56.195312 197.359375 56.195312 196.066406 L 56.195312 146.925781 C 56.195312 145.628906 57.265625 144.574219 58.578125 144.574219 L 60.324219 144.574219 L 60.324219 194.351562 C 60.429688 195.382812 61.242188 195.753906 61.863281 195.816406 C 61.996094 195.828125 75.25 195.140625 85.546875 195.097656 C 93.953125 195.097656 98.449219 196.859375 98.636719 196.859375 C 98.832031 196.859375 103.324219 195.097656 112 195.097656 C 122.027344 195.140625 135.28125 195.816406 135.410156 195.816406 C 136.386719 195.800781 136.921875 195.085938 136.953125 194.351562 L 136.953125 144.574219 L 138.703125 144.574219 C 140.015625 144.574219 141.085938 145.628906 141.085938 146.925781 Z M 94.753906 192.917969 C 92.496094 192.519531 89.363281 192.171875 85.265625 192.171875 C 79.664062 192.195312 73.109375 192.414062 68.328125 192.601562 C 73.035156 191.167969 79.707031 189.5 85.339844 189.472656 C 89.691406 189.472656 92.777344 191.246094 94.753906 192.917969 Z M 63.253906 145.488281 C 66.464844 144.195312 77.65625 139.925781 85.25 139.925781 C 92.648438 140.007812 96.207031 143.25 97.175781 144.308594 L 97.175781 191.132812 C 94.820312 188.992188 90.894531 186.550781 85.261719 186.550781 C 77.1875 186.585938 67.402344 189.710938 63.253906 191.175781 Z M 128.964844 192.605469 C 124.144531 192.414062 117.503906 192.195312 111.734375 192.171875 C 107.796875 192.171875 104.761719 192.515625 102.546875 192.902344 C 104.53125 191.234375 107.628906 189.472656 112.007812 189.472656 C 117.605469 189.5 124.261719 191.167969 128.964844 192.605469 Z M 100.105469 144.3125 C 101.085938 143.242188 104.667969 140.007812 112.226562 139.925781 C 119.648438 139.925781 130.816406 144.195312 134.023438 145.488281 L 134.023438 191.175781 C 129.871094 189.710938 120.078125 186.585938 111.941406 186.550781 C 106.355469 186.550781 102.453125 188.988281 100.105469 191.128906 Z M 138.703125 141.648438 L 132.207031 141.648438 C 127.269531 139.820312 118.585938 137.003906 112 137.003906 C 104.6875 137.082031 100.53125 139.929688 98.667969 141.648438 L 98.609375 141.648438 C 96.726562 139.929688 92.527344 137.082031 85.054688 137 C 78.628906 137 69.984375 139.820312 65.0625 141.648438 L 58.578125 141.648438 C 55.652344 141.648438 53.269531 144.015625 53.269531 146.925781 L 53.269531 196.066406 C 53.269531 198.972656 55.652344 201.335938 58.515625 201.335938 C 58.515625 201.335938 98.582031 202.992188 98.582031 202.992188 C 98.601562 202.996094 98.621094 202.996094 98.640625 202.996094 C 98.660156 202.996094 98.679688 202.996094 98.699219 202.992188 L 138.703125 201.339844 C 141.628906 201.339844 144.011719 198.972656 144.011719 196.066406 L 144.011719 146.925781 C 144.011719 144.015625 141.628906 141.648438 138.703125 141.648438 " fill-opacity="1" fill-rule="nonzero"/></g><g clip-path="url(#2df8914e41)"><path fill="#ffffff" d="M 165.460938 123.324219 C 165.460938 123.324219 165.460938 123.335938 165.460938 123.335938 C 165.460938 123.34375 165.460938 123.355469 165.460938 123.363281 C 165.460938 123.375 165.460938 123.375 165.460938 123.386719 C 165.460938 123.394531 165.460938 123.40625 165.460938 123.40625 C 165.460938 123.414062 165.460938 123.414062 165.453125 123.425781 C 165.453125 123.4375 165.453125 123.445312 165.441406 123.445312 C 165.441406 123.457031 165.433594 123.457031 165.433594 123.464844 L 165.421875 123.488281 L 165.410156 123.507812 C 165.402344 123.515625 165.402344 123.515625 165.390625 123.527344 L 165.359375 123.558594 C 165.339844 123.566406 165.109375 123.730469 164.703125 124.003906 C 163.800781 124.902344 162.929688 126.886719 162.085938 128.816406 C 161.195312 130.851562 160.28125 132.953125 159.238281 134.015625 C 157.910156 135.382812 156.796875 136.050781 156.117188 136.363281 C 157.210938 136.636719 157.832031 136.980469 157.882812 137.011719 C 158.003906 137.082031 158.042969 137.234375 157.972656 137.355469 C 157.933594 137.425781 157.851562 137.476562 157.769531 137.484375 C 157.730469 137.484375 153.644531 137.75 150.15625 141.148438 C 149.054688 142.21875 147.929688 143.675781 146.84375 145.082031 C 145.101562 147.339844 143.296875 149.664062 141.402344 150.746094 C 139.628906 151.757812 137.652344 152.355469 136.28125 152.679688 C 136.871094 152.800781 137.449219 152.992188 137.996094 153.246094 C 138.117188 153.304688 138.179688 153.457031 138.117188 153.578125 C 138.078125 153.648438 138.015625 153.699219 137.933594 153.722656 C 136.203125 154.035156 135.339844 155.328125 134.429688 156.703125 C 133.667969 157.847656 132.878906 159.03125 131.550781 159.800781 C 129.199219 161.164062 126.109375 161.621094 125.550781 161.703125 C 125.457031 161.882812 125.378906 162.066406 125.296875 162.238281 C 123.484375 166.152344 123.167969 168.519531 123.167969 168.550781 C 123.15625 168.671875 123.058594 168.761719 122.933594 168.773438 L 122.894531 168.773438 C 122.773438 168.773438 122.671875 168.691406 122.640625 168.570312 C 122.621094 168.5 122.246094 166.789062 123.167969 163.492188 C 123.351562 162.855469 123.582031 162.117188 123.90625 161.308594 C 123.605469 160.863281 122.328125 158.878906 122.570312 157.058594 C 122.804688 155.339844 122.125 154.882812 122.125 154.882812 C 122.011719 154.824219 121.972656 154.683594 122.023438 154.558594 C 122.074219 154.4375 122.214844 154.386719 122.335938 154.417969 C 122.660156 154.539062 122.976562 154.710938 123.25 154.925781 C 123.015625 154.035156 122.734375 152.761719 122.671875 151.808594 C 122.5 148.964844 123.644531 147.691406 126.980469 144.425781 C 128.964844 142.492188 128.984375 139.40625 128.984375 139.378906 C 128.984375 139.234375 129.097656 139.125 129.238281 139.125 C 129.308594 139.125 129.382812 139.15625 129.433594 139.207031 C 129.796875 139.609375 130.089844 140.074219 130.292969 140.582031 C 130.324219 140.167969 130.394531 139.761719 130.515625 139.367188 C 131.023438 137.707031 132.332031 136.351562 134.398438 135.332031 C 141.21875 131.972656 142.40625 130.234375 142.414062 130.222656 C 142.464844 130.140625 142.566406 130.089844 142.667969 130.113281 C 142.769531 130.121094 142.839844 130.191406 142.871094 130.292969 C 142.890625 130.363281 143.03125 130.960938 142.507812 132.164062 C 143.277344 131.152344 144.523438 130 146.46875 128.757812 C 152.984375 124.621094 164.984375 123.121094 165.167969 123.09375 L 165.179688 123.09375 C 165.1875 123.09375 165.207031 123.09375 165.21875 123.09375 L 165.257812 123.09375 C 165.269531 123.09375 165.28125 123.101562 165.28125 123.101562 L 165.300781 123.113281 L 165.320312 123.121094 L 165.339844 123.132812 L 165.371094 123.164062 C 165.382812 123.171875 165.382812 123.183594 165.390625 123.183594 L 165.402344 123.191406 C 165.402344 123.191406 165.410156 123.214844 165.410156 123.214844 L 165.421875 123.234375 C 165.421875 123.242188 165.421875 123.242188 165.421875 123.253906 C 165.421875 123.265625 165.421875 123.273438 165.433594 123.285156 C 165.441406 123.285156 165.441406 123.285156 165.441406 123.292969 C 165.472656 123.3125 165.460938 123.324219 165.460938 123.324219 Z M 165.460938 123.324219 " fill-opacity="1" fill-rule="nonzero"/><path fill="#e0dfd9" d="M 165.460938 123.324219 C 165.460938 123.3125 165.460938 123.304688 165.453125 123.292969 C 165.441406 123.285156 165.453125 123.285156 165.453125 123.273438 L 165.441406 123.253906 C 165.441406 123.242188 165.433594 123.234375 165.433594 123.234375 L 165.421875 123.222656 C 165.410156 123.214844 165.410156 123.203125 165.402344 123.203125 L 165.371094 123.171875 L 165.351562 123.164062 L 165.332031 123.152344 L 165.308594 123.140625 C 165.300781 123.140625 165.289062 123.132812 165.289062 123.132812 L 165.25 123.132812 C 165.238281 123.132812 165.21875 123.132812 165.207031 123.132812 L 165.199219 123.132812 C 165.015625 123.152344 153.007812 124.660156 146.488281 128.796875 C 144.542969 130.03125 143.296875 131.183594 142.527344 132.207031 C 143.054688 130.992188 142.910156 130.40625 142.890625 130.335938 C 142.859375 130.242188 142.789062 130.171875 142.6875 130.152344 C 142.585938 130.132812 142.484375 130.171875 142.425781 130.253906 C 142.414062 130.273438 141.230469 132.003906 134.40625 135.363281 C 132.320312 136.363281 131.011719 137.71875 130.507812 139.378906 C 130.382812 139.773438 130.3125 140.175781 130.28125 140.589844 C 130.082031 140.085938 129.796875 139.621094 129.421875 139.214844 C 129.332031 139.113281 129.167969 139.105469 129.066406 139.195312 C 129.015625 139.246094 128.984375 139.316406 128.984375 139.386719 C 128.984375 139.417969 128.957031 142.503906 126.980469 144.445312 C 123.644531 147.710938 122.5 148.988281 122.671875 151.828125 C 122.734375 152.78125 123.015625 154.054688 123.25 154.945312 C 122.976562 154.730469 122.660156 154.558594 122.335938 154.4375 C 122.214844 154.398438 122.074219 154.460938 122.023438 154.582031 C 121.972656 154.703125 122.011719 154.832031 122.125 154.902344 C 122.132812 154.902344 122.804688 155.359375 122.570312 157.078125 C 122.328125 158.898438 123.59375 160.882812 123.90625 161.328125 C 123.59375 162.148438 123.351562 162.875 123.167969 163.511719 C 122.246094 166.789062 122.632812 168.507812 122.640625 168.582031 C 122.671875 168.691406 122.773438 168.773438 122.882812 168.773438 L 122.90625 168.773438 C 123.027344 168.761719 123.128906 168.671875 123.136719 168.550781 C 123.136719 168.53125 123.453125 166.152344 125.265625 162.238281 C 125.347656 162.066406 125.429688 161.882812 125.519531 161.703125 C 126.085938 161.632812 129.167969 161.175781 131.519531 159.800781 C 132.847656 159.03125 133.636719 157.847656 134.398438 156.703125 C 135.308594 155.328125 136.183594 154.023438 137.90625 153.722656 C 138.046875 153.699219 138.136719 153.570312 138.109375 153.425781 C 138.097656 153.347656 138.046875 153.277344 137.964844 153.246094 C 137.417969 152.992188 136.839844 152.808594 136.253906 152.679688 C 137.621094 152.355469 139.597656 151.757812 141.371094 150.746094 C 143.265625 149.664062 145.070312 147.339844 146.8125 145.082031 C 147.90625 143.675781 149.03125 142.21875 150.128906 141.148438 C 153.613281 137.75 157.699219 137.496094 157.738281 137.496094 C 157.882812 137.484375 157.984375 137.363281 157.984375 137.234375 C 157.984375 137.152344 157.933594 137.070312 157.851562 137.03125 C 157.800781 137 157.191406 136.667969 156.085938 136.382812 C 156.765625 136.070312 157.882812 135.402344 159.207031 134.035156 C 160.253906 132.972656 161.164062 130.871094 162.058594 128.835938 C 162.898438 126.90625 163.769531 124.914062 164.671875 124.023438 C 165.078125 123.738281 165.308594 123.585938 165.332031 123.578125 L 165.339844 123.566406 L 165.359375 123.546875 C 165.371094 123.535156 165.371094 123.535156 165.382812 123.527344 L 165.390625 123.507812 L 165.402344 123.488281 C 165.402344 123.476562 165.410156 123.476562 165.410156 123.464844 C 165.410156 123.457031 165.421875 123.457031 165.421875 123.445312 C 165.421875 123.4375 165.433594 123.4375 165.433594 123.425781 C 165.433594 123.414062 165.433594 123.40625 165.433594 123.40625 C 165.433594 123.394531 165.433594 123.394531 165.433594 123.386719 C 165.433594 123.375 165.433594 123.363281 165.433594 123.355469 C 165.453125 123.34375 165.460938 123.335938 165.460938 123.324219 Z M 161.609375 128.625 C 160.75 130.617188 159.847656 132.679688 158.875 133.671875 C 156.816406 135.796875 155.308594 136.140625 155.285156 136.140625 C 155.246094 136.152344 155.214844 136.160156 155.183594 136.179688 C 154.242188 136.027344 153.28125 136 152.316406 136.070312 C 152.175781 136.078125 152.074219 136.203125 152.082031 136.34375 C 152.09375 136.484375 152.214844 136.585938 152.359375 136.574219 C 154.382812 136.433594 155.914062 136.796875 156.796875 137.101562 C 154.152344 137.617188 151.71875 138.890625 149.792969 140.773438 C 148.667969 141.867188 147.53125 143.34375 146.429688 144.757812 C 144.714844 146.972656 142.941406 149.261719 141.136719 150.292969 C 138.179688 151.980469 134.519531 152.496094 134.488281 152.507812 L 134.457031 152.527344 C 134.144531 152.546875 133.839844 152.585938 133.535156 152.667969 C 133.40625 152.710938 133.324219 152.851562 133.363281 152.980469 C 133.40625 153.113281 133.527344 153.183594 133.65625 153.15625 C 134.914062 152.832031 136.273438 153.164062 137.0625 153.425781 C 135.625 153.964844 134.824219 155.15625 133.984375 156.421875 C 133.253906 157.515625 132.503906 158.648438 131.265625 159.363281 C 129.320312 160.496094 126.777344 160.984375 125.792969 161.144531 C 127.609375 157.523438 130.882812 152.285156 136.648438 146.253906 C 144.078125 138.496094 158.246094 128.453125 163.40625 124.890625 C 162.796875 125.914062 162.21875 127.25 161.609375 128.625 Z M 152.265625 131.265625 C 145.820312 135.695312 137.003906 142.371094 131.589844 148.945312 C 127.585938 153.800781 125.367188 157.777344 124.140625 160.730469 C 123.714844 160.042969 122.894531 158.496094 123.078125 157.128906 C 123.179688 156.359375 123.117188 155.792969 122.996094 155.390625 C 123.359375 155.683594 123.632812 156.097656 123.757812 156.554688 C 123.785156 156.683594 123.929688 156.765625 124.058594 156.734375 C 124.191406 156.703125 124.273438 156.5625 124.242188 156.433594 C 124.191406 156.238281 124.121094 156.046875 124.03125 155.875 C 124.019531 155.855469 123.269531 153.335938 123.179688 151.808594 C 123.027344 149.179688 124.050781 148.035156 127.332031 144.820312 C 128.90625 143.28125 129.332031 141.15625 129.453125 140.085938 C 129.835938 140.660156 129.9375 141.136719 130.058594 141.664062 C 130.191406 142.28125 130.34375 142.976562 130.992188 143.878906 L 131.011719 143.910156 C 131.023438 143.929688 131.042969 143.949219 131.0625 143.96875 C 131.175781 144.121094 131.296875 144.273438 131.4375 144.433594 C 131.53125 144.535156 131.691406 144.554688 131.792969 144.464844 C 131.894531 144.375 131.914062 144.210938 131.824219 144.109375 C 131.671875 143.9375 131.550781 143.777344 131.4375 143.617188 C 131.277344 143.3125 130.40625 141.5 131.011719 139.527344 C 131.480469 138.011719 132.695312 136.757812 134.632812 135.808594 C 139.484375 133.410156 141.542969 131.832031 142.355469 131.0625 C 142.28125 131.425781 142.109375 131.941406 141.726562 132.640625 C 141.117188 133.734375 141.1875 134.894531 141.332031 135.625 C 141.359375 135.886719 141.433594 136.152344 141.542969 136.394531 C 141.613281 136.515625 141.765625 136.554688 141.886719 136.496094 C 142 136.433594 142.050781 136.300781 142 136.179688 C 141.929688 135.980469 141.867188 135.765625 141.828125 135.542969 C 141.785156 135.089844 141.835938 134.644531 141.980469 134.207031 C 142.332031 133.074219 143.449219 131.285156 146.742188 129.191406 C 151.933594 125.914062 160.699219 124.304688 163.960938 123.800781 C 161.945312 124.972656 157.433594 127.703125 152.265625 131.265625 Z M 152.265625 131.265625 " fill-opacity="1" fill-rule="nonzero"/><path fill="#2b59ff" d="M 165.460938 123.324219 C 165.460938 123.3125 165.460938 123.304688 165.453125 123.292969 C 165.441406 123.285156 165.453125 123.285156 165.453125 123.273438 L 165.441406 123.253906 C 165.441406 123.242188 165.433594 123.234375 165.433594 123.234375 L 165.421875 123.222656 C 165.410156 123.214844 165.410156 123.203125 165.402344 123.203125 L 165.371094 123.171875 L 165.351562 123.164062 L 165.332031 123.152344 L 165.308594 123.140625 C 165.300781 123.140625 165.289062 123.132812 165.289062 123.132812 L 165.25 123.132812 C 165.238281 123.132812 165.21875 123.132812 165.207031 123.132812 L 165.199219 123.132812 C 165.015625 123.152344 153.007812 124.660156 146.488281 128.796875 C 144.542969 130.03125 143.296875 131.183594 142.527344 132.207031 C 143.054688 130.992188 142.910156 130.40625 142.890625 130.335938 C 142.859375 130.242188 142.789062 130.171875 142.6875 130.152344 C 142.585938 130.132812 142.484375 130.171875 142.425781 130.253906 C 142.414062 130.273438 141.230469 132.003906 134.40625 135.363281 C 132.320312 136.363281 131.011719 137.71875 130.507812 139.378906 C 130.382812 139.773438 130.3125 140.175781 130.28125 140.589844 C 130.082031 140.085938 129.796875 139.621094 129.421875 139.214844 C 129.332031 139.113281 129.167969 139.105469 129.066406 139.195312 C 129.015625 139.246094 128.984375 139.316406 128.984375 139.386719 C 128.984375 139.417969 128.957031 142.503906 126.980469 144.445312 C 123.644531 147.710938 122.5 148.988281 122.671875 151.828125 C 122.734375 152.78125 123.015625 154.054688 123.25 154.945312 C 122.976562 154.730469 122.660156 154.558594 122.335938 154.4375 C 122.214844 154.398438 122.074219 154.460938 122.023438 154.582031 C 121.972656 154.703125 122.011719 154.832031 122.125 154.902344 C 122.132812 154.902344 122.804688 155.359375 122.570312 157.078125 C 122.328125 158.898438 123.59375 160.882812 123.90625 161.328125 C 123.59375 162.148438 123.351562 162.875 123.167969 163.511719 C 122.246094 166.789062 122.632812 168.507812 122.640625 168.582031 C 122.671875 168.691406 122.773438 168.773438 122.882812 168.773438 L 122.90625 168.773438 C 123.027344 168.761719 123.128906 168.671875 123.136719 168.550781 C 123.136719 168.53125 123.453125 166.152344 125.265625 162.238281 C 125.347656 162.066406 125.429688 161.882812 125.519531 161.703125 C 126.085938 161.632812 129.167969 161.175781 131.519531 159.800781 C 132.847656 159.03125 133.636719 157.847656 134.398438 156.703125 C 135.308594 155.328125 136.183594 154.023438 137.90625 153.722656 C 138.046875 153.699219 138.136719 153.570312 138.109375 153.425781 C 138.097656 153.347656 138.046875 153.277344 137.964844 153.246094 C 137.417969 152.992188 136.839844 152.808594 136.253906 152.679688 C 137.621094 152.355469 139.597656 151.757812 141.371094 150.746094 C 143.265625 149.664062 145.070312 147.339844 146.8125 145.082031 C 147.90625 143.675781 149.03125 142.21875 150.128906 141.148438 C 153.613281 137.75 157.699219 137.496094 157.738281 137.496094 C 157.882812 137.484375 157.984375 137.363281 157.984375 137.234375 C 157.984375 137.152344 157.933594 137.070312 157.851562 137.03125 C 157.800781 137 157.191406 136.667969 156.085938 136.382812 C 156.765625 136.070312 157.882812 135.402344 159.207031 134.035156 C 160.253906 132.972656 161.164062 130.871094 162.058594 128.835938 C 162.898438 126.90625 163.769531 124.914062 164.671875 124.023438 C 165.078125 123.738281 165.308594 123.585938 165.332031 123.578125 L 165.339844 123.566406 L 165.359375 123.546875 C 165.371094 123.535156 165.371094 123.535156 165.382812 123.527344 L 165.390625 123.507812 L 165.402344 123.488281 C 165.402344 123.476562 165.410156 123.476562 165.410156 123.464844 C 165.410156 123.457031 165.421875 123.457031 165.421875 123.445312 C 165.421875 123.4375 165.433594 123.4375 165.433594 123.425781 C 165.433594 123.414062 165.433594 123.40625 165.433594 123.40625 C 165.433594 123.394531 165.433594 123.394531 165.433594 123.386719 C 165.433594 123.375 165.433594 123.363281 165.433594 123.355469 C 165.453125 123.34375 165.460938 123.335938 165.460938 123.324219 Z M 124.800781 162.054688 C 124.132812 163.480469 123.574219 164.949219 123.117188 166.445312 C 123.21875 165.476562 123.410156 164.515625 123.675781 163.582031 C 124.507812 160.640625 126.632812 155.753906 131.976562 149.269531 C 137.359375 142.746094 146.132812 136.109375 152.550781 131.691406 C 154.597656 130.285156 156.53125 129.007812 158.257812 127.90625 C 151.71875 132.601562 142.007812 139.921875 136.28125 145.910156 C 129.859375 152.636719 126.492188 158.402344 124.800781 162.054688 Z M 161.609375 128.625 C 160.738281 130.617188 159.847656 132.679688 158.863281 133.671875 C 156.808594 135.796875 155.296875 136.140625 155.277344 136.140625 C 155.234375 136.152344 155.207031 136.160156 155.175781 136.179688 C 154.234375 136.027344 153.269531 136 152.308594 136.070312 C 152.164062 136.078125 152.0625 136.203125 152.074219 136.34375 C 152.082031 136.484375 152.207031 136.585938 152.347656 136.574219 C 154.375 136.433594 155.90625 136.796875 156.785156 137.101562 C 154.140625 137.617188 151.707031 138.890625 149.78125 140.773438 C 148.65625 141.867188 147.523438 143.34375 146.417969 144.757812 C 144.707031 146.972656 142.933594 149.261719 141.128906 150.292969 C 138.167969 151.980469 134.507812 152.496094 134.480469 152.507812 L 134.457031 152.527344 C 134.144531 152.546875 133.839844 152.585938 133.535156 152.667969 C 133.40625 152.710938 133.324219 152.851562 133.363281 152.980469 C 133.40625 153.113281 133.527344 153.183594 133.65625 153.15625 C 134.914062 152.832031 136.273438 153.164062 137.0625 153.425781 C 135.625 153.964844 134.824219 155.15625 133.984375 156.421875 C 133.253906 157.515625 132.503906 158.648438 131.265625 159.363281 C 129.320312 160.496094 126.777344 160.984375 125.792969 161.144531 C 127.609375 157.523438 130.882812 152.285156 136.648438 146.253906 C 144.078125 138.496094 158.246094 128.453125 163.40625 124.890625 C 162.796875 125.914062 162.21875 127.25 161.609375 128.625 Z M 152.277344 131.265625 C 145.832031 135.695312 137.011719 142.371094 131.589844 148.945312 C 127.585938 153.800781 125.367188 157.777344 124.140625 160.730469 C 123.714844 160.042969 122.894531 158.496094 123.078125 157.128906 C 123.179688 156.359375 123.117188 155.792969 122.996094 155.390625 C 123.359375 155.683594 123.632812 156.097656 123.757812 156.554688 C 123.785156 156.683594 123.929688 156.765625 124.058594 156.734375 C 124.191406 156.703125 124.273438 156.5625 124.242188 156.433594 C 124.191406 156.238281 124.121094 156.046875 124.03125 155.875 C 124.019531 155.855469 123.269531 153.335938 123.179688 151.808594 C 123.027344 149.179688 124.050781 148.035156 127.332031 144.820312 C 128.90625 143.28125 129.332031 141.15625 129.453125 140.085938 C 129.835938 140.660156 129.9375 141.136719 130.058594 141.664062 C 130.191406 142.28125 130.34375 142.976562 130.992188 143.878906 L 131.011719 143.910156 C 131.023438 143.929688 131.042969 143.949219 131.0625 143.96875 C 131.175781 144.121094 131.296875 144.273438 131.4375 144.433594 C 131.53125 144.535156 131.691406 144.554688 131.792969 144.464844 C 131.894531 144.375 131.914062 144.210938 131.824219 144.109375 C 131.671875 143.9375 131.550781 143.777344 131.4375 143.617188 C 131.277344 143.3125 130.40625 141.5 131.011719 139.527344 C 131.480469 138.011719 132.695312 136.757812 134.632812 135.808594 C 139.484375 133.410156 141.542969 131.832031 142.355469 131.0625 C 142.28125 131.425781 142.109375 131.941406 141.726562 132.640625 C 141.117188 133.734375 141.1875 134.894531 141.332031 135.625 C 141.359375 135.886719 141.433594 136.152344 141.542969 136.394531 C 141.613281 136.515625 141.765625 136.554688 141.886719 136.496094 C 142 136.433594 142.050781 136.300781 142 136.179688 C 141.929688 135.980469 141.867188 135.765625 141.828125 135.542969 C 141.785156 135.089844 141.835938 134.644531 141.980469 134.207031 C 142.332031 133.074219 143.449219 131.285156 146.742188 129.191406 C 151.933594 125.914062 160.699219 124.304688 163.960938 123.800781 C 161.945312 124.972656 157.433594 127.703125 152.277344 131.265625 Z M 152.277344 131.265625 " fill-opacity="1" fill-rule="nonzero"/></g><g fill="#000000" fill-opacity="1"><g transform="translate(149.293324, 163.540112)"><g><path d="M 10.574219 0.363281 C 15.433594 0.363281 18.40625 -2.328125 18.949219 -6.410156 L 14.890625 -6.410156 C 14.503906 -4.085938 12.796875 -2.972656 10.46875 -2.972656 C 6.851562 -2.972656 4.886719 -5.765625 4.886719 -9.875 C 4.886719 -13.960938 6.851562 -16.753906 10.46875 -16.753906 C 12.796875 -16.753906 14.527344 -15.640625 14.890625 -13.546875 L 18.949219 -13.546875 C 18.40625 -17.425781 15.433594 -20.085938 10.574219 -20.085938 C 4.03125 -20.085938 1.007812 -15.332031 1.007812 -9.875 C 1.007812 -4.421875 4.03125 0.363281 10.574219 0.363281 Z M 10.574219 0.363281 "/></g></g></g><g fill="#000000" fill-opacity="1"><g transform="translate(169.121413, 163.540112)"><g><path d="M 8.375 0.285156 C 12.253906 0.285156 14.476562 -2.066406 15.332031 -4.886719 L 11.761719 -4.886719 C 11.296875 -3.695312 10.160156 -2.714844 8.503906 -2.714844 C 7.007812 -2.714844 5.816406 -3.488281 5.144531 -4.835938 C 4.886719 -5.273438 4.652344 -5.921875 4.601562 -6.539062 L 15.5625 -6.539062 L 15.5625 -7.289062 C 15.5625 -12.539062 12.019531 -14.8125 8.273438 -14.8125 C 3.308594 -14.8125 0.980469 -10.960938 0.980469 -7.160156 C 0.980469 -2.871094 3.929688 0.285156 8.375 0.285156 Z M 4.757812 -9.152344 C 4.808594 -9.539062 4.9375 -10.03125 5.324219 -10.496094 C 5.996094 -11.53125 7.082031 -12.046875 8.375 -12.046875 C 9.644531 -12.046875 10.78125 -11.53125 11.453125 -10.496094 C 11.816406 -10.054688 11.945312 -9.539062 11.996094 -9.152344 Z M 4.757812 -9.152344 "/></g></g></g><g fill="#000000" fill-opacity="1"><g transform="translate(185.666365, 163.540112)"><g><path d="M 5.066406 0 L 5.066406 -7.394531 C 5.066406 -9.308594 5.324219 -10.367188 5.921875 -11.066406 C 6.386719 -11.632812 7.109375 -11.945312 8.117188 -11.945312 C 8.945312 -11.945312 9.539062 -11.738281 9.953125 -11.296875 C 10.445312 -10.753906 10.675781 -9.875 10.675781 -8.402344 L 10.675781 0 L 14.140625 0 L 14.140625 -8.351562 C 14.140625 -9.796875 14.140625 -11.117188 13.546875 -12.382812 C 12.902344 -13.726562 11.660156 -14.8125 9.023438 -14.8125 C 7.472656 -14.8125 6.230469 -14.296875 5.066406 -12.667969 L 5.066406 -14.503906 L 1.578125 -14.503906 L 1.578125 0 Z M 5.066406 0 "/></g></g></g><g fill="#000000" fill-opacity="1"><g transform="translate(201.306512, 163.540112)"><g><path d="M 8.996094 0 L 8.996094 -2.894531 L 7.417969 -2.894531 C 6.332031 -2.894531 6.230469 -3.488281 6.230469 -4.238281 L 6.230469 -11.710938 L 9.023438 -11.710938 L 9.023438 -14.503906 L 6.230469 -14.503906 L 6.230469 -19.726562 L 2.742188 -19.726562 L 2.742188 -14.503906 L 0.59375 -14.503906 L 0.59375 -11.710938 L 2.742188 -11.710938 L 2.742188 -3.179688 C 2.742188 -0.929688 3.980469 0 6.128906 0 Z M 8.996094 0 "/></g></g></g><g fill="#000000" fill-opacity="1"><g transform="translate(211.207631, 163.540112)"><g><path d="M 5.066406 0 L 5.066406 -6.722656 C 5.066406 -8.632812 5.453125 -9.796875 6.230469 -10.574219 C 6.800781 -11.117188 7.625 -11.453125 8.816406 -11.453125 L 9.617188 -11.453125 L 9.617188 -14.8125 L 9.203125 -14.8125 C 7.496094 -14.8125 6.179688 -14.296875 5.066406 -12.769531 L 5.066406 -14.503906 L 1.578125 -14.503906 L 1.578125 0 Z M 5.066406 0 "/></g></g></g><g fill="#000000" fill-opacity="1"><g transform="translate(221.315567, 163.540112)"><g><path d="M 8.375 0.285156 C 12.253906 0.285156 14.476562 -2.066406 15.332031 -4.886719 L 11.761719 -4.886719 C 11.296875 -3.695312 10.160156 -2.714844 8.503906 -2.714844 C 7.007812 -2.714844 5.816406 -3.488281 5.144531 -4.835938 C 4.886719 -5.273438 4.652344 -5.921875 4.601562 -6.539062 L 15.5625 -6.539062 L 15.5625 -7.289062 C 15.5625 -12.539062 12.019531 -14.8125 8.273438 -14.8125 C 3.308594 -14.8125 0.980469 -10.960938 0.980469 -7.160156 C 0.980469 -2.871094 3.929688 0.285156 8.375 0.285156 Z M 4.757812 -9.152344 C 4.808594 -9.539062 4.9375 -10.03125 5.324219 -10.496094 C 5.996094 -11.53125 7.082031 -12.046875 8.375 -12.046875 C 9.644531 -12.046875 10.78125 -11.53125 11.453125 -10.496094 C 11.816406 -10.054688 11.945312 -9.539062 11.996094 -9.152344 Z M 4.757812 -9.152344 "/></g></g></g><g fill="#5271ff" fill-opacity="1"><g transform="translate(237.851912, 163.540112)"><g/></g></g><g fill="#000000" fill-opacity="1"><g transform="translate(53.84317, 230.477738)"><g><path d="M 4.964844 0.195312 C 8.144531 0.195312 9.179688 -1.15625 9.179688 -3.703125 L 9.179688 -11.699219 L 6.75 -11.699219 L 6.75 -3.78125 C 6.75 -2.535156 6.34375 -1.90625 4.964844 -1.90625 C 3.585938 -1.90625 3.195312 -2.535156 3.195312 -3.78125 L 3.195312 -11.699219 L 0.765625 -11.699219 L 0.765625 -3.703125 C 0.765625 -1.15625 1.785156 0.195312 4.964844 0.195312 Z M 4.964844 0.195312 "/></g></g></g><g fill="#000000" fill-opacity="1"><g transform="translate(63.788165, 230.477738)"><g><path d="M 7.980469 0 L 7.980469 -5.386719 C 7.980469 -6.824219 7.320312 -8.144531 5.519531 -8.144531 C 4.289062 -8.144531 3.464844 -7.636719 2.96875 -6.929688 L 2.789062 -7.949219 L 0.675781 -7.949219 L 0.808594 -5.699219 L 0.808594 0 L 3.179688 0 L 3.179688 -5.355469 C 3.359375 -5.640625 3.824219 -6.105469 4.574219 -6.105469 C 5.386719 -6.105469 5.625 -5.566406 5.625 -4.996094 L 5.625 0 Z M 7.980469 0 "/></g></g></g><g fill="#000000" fill-opacity="1"><g transform="translate(72.488158, 230.477738)"><g/></g><g transform="translate(75.488158, 230.477738)"><g><path d="M 12.226562 0 L 12.226562 -5.476562 C 12.226562 -6.976562 11.519531 -8.144531 9.871094 -8.144531 C 8.683594 -8.144531 7.90625 -7.621094 7.425781 -6.914062 C 7.078125 -7.664062 6.40625 -8.144531 5.339844 -8.144531 C 4.199219 -8.144531 3.433594 -7.664062 2.953125 -6.988281 L 2.789062 -7.949219 L 0.675781 -7.949219 L 0.808594 -5.699219 L 0.808594 0 L 3.179688 0 L 3.179688 -5.414062 C 3.359375 -5.699219 3.734375 -6.105469 4.394531 -6.105469 C 5.054688 -6.105469 5.339844 -5.730469 5.339844 -5.101562 L 5.339844 0 L 7.695312 0 L 7.695312 -5.414062 C 7.890625 -5.699219 8.25 -6.105469 8.925781 -6.105469 C 9.585938 -6.105469 9.871094 -5.730469 9.871094 -5.101562 L 9.871094 0 Z M 12.226562 0 "/></g></g></g><g fill="#000000" fill-opacity="1"><g transform="translate(88.433141, 230.477738)"><g><path d="M 4.171875 0.195312 C 6.734375 0.195312 7.890625 -1.410156 7.890625 -3.703125 L 7.890625 -4.246094 C 7.890625 -6.539062 6.734375 -8.144531 4.171875 -8.144531 C 1.621094 -8.144531 0.449219 -6.539062 0.449219 -4.246094 L 0.449219 -3.703125 C 0.449219 -1.410156 1.621094 0.195312 4.171875 0.195312 Z M 4.171875 -1.84375 C 3.238281 -1.84375 2.820312 -2.535156 2.820312 -3.703125 L 2.820312 -4.246094 C 2.820312 -5.414062 3.238281 -6.105469 4.171875 -6.105469 C 5.113281 -6.105469 5.519531 -5.414062 5.519531 -4.246094 L 5.519531 -3.703125 C 5.519531 -2.535156 5.113281 -1.84375 4.171875 -1.84375 Z M 4.171875 -1.84375 "/></g></g></g><g fill="#000000" fill-opacity="1"><g transform="translate(96.773137, 230.477738)"><g><path d="M 7.980469 0 L 7.980469 -5.386719 C 7.980469 -6.824219 7.320312 -8.144531 5.519531 -8.144531 C 4.289062 -8.144531 3.464844 -7.636719 2.96875 -6.929688 L 2.789062 -7.949219 L 0.675781 -7.949219 L 0.808594 -5.699219 L 0.808594 0 L 3.179688 0 L 3.179688 -5.355469 C 3.359375 -5.640625 3.824219 -6.105469 4.574219 -6.105469 C 5.386719 -6.105469 5.625 -5.566406 5.625 -4.996094 L 5.625 0 Z M 7.980469 0 "/></g></g></g><g fill="#000000" fill-opacity="1"><g transform="translate(105.473129, 230.477738)"><g><path d="M 3.523438 -8.144531 C 1.351562 -8.144531 0.570312 -6.539062 0.570312 -4.246094 L 0.570312 -3.703125 C 0.570312 -1.410156 1.351562 0.195312 3.523438 0.195312 C 4.621094 0.195312 5.324219 -0.285156 5.773438 -0.945312 L 5.941406 0 L 8.070312 0 L 7.933594 -2.25 L 7.933594 -12 L 5.566406 -12 L 5.566406 -7.273438 C 5.113281 -7.800781 4.453125 -8.144531 3.523438 -8.144531 Z M 5.566406 -5.355469 L 5.566406 -2.59375 C 5.371094 -2.308594 4.921875 -1.84375 4.214844 -1.84375 C 3.285156 -1.84375 2.925781 -2.535156 2.925781 -3.703125 L 2.925781 -4.246094 C 2.925781 -5.414062 3.285156 -6.105469 4.214844 -6.105469 C 4.921875 -6.105469 5.371094 -5.640625 5.566406 -5.355469 Z M 5.566406 -5.355469 "/></g></g></g><g fill="#000000" fill-opacity="1"><g transform="translate(114.203117, 230.477738)"><g><path d="M 7.890625 -3.121094 L 7.890625 -4.183594 C 7.890625 -6.480469 6.734375 -8.144531 4.214844 -8.144531 C 1.710938 -8.144531 0.449219 -6.480469 0.449219 -4.183594 L 0.449219 -3.765625 C 0.449219 -1.46875 1.664062 0.195312 4.304688 0.195312 C 6.601562 0.195312 7.890625 -0.976562 7.890625 -2.488281 L 7.890625 -2.550781 L 5.65625 -2.550781 C 5.65625 -2.070312 5.144531 -1.605469 4.320312 -1.605469 C 3.433594 -1.605469 2.910156 -2.011719 2.820312 -3.121094 Z M 4.171875 -6.34375 C 5.011719 -6.34375 5.429688 -5.863281 5.503906 -4.828125 L 2.835938 -4.828125 C 2.910156 -5.863281 3.328125 -6.34375 4.171875 -6.34375 Z M 4.171875 -6.34375 "/></g></g></g><g fill="#000000" fill-opacity="1"><g transform="translate(122.543113, 230.477738)"><g/></g><g transform="translate(125.543113, 230.477738)"><g><path d="M 3.523438 -8.144531 C 1.351562 -8.144531 0.570312 -6.539062 0.570312 -4.246094 L 0.570312 -3.703125 C 0.570312 -1.410156 1.351562 0.195312 3.523438 0.195312 C 4.621094 0.195312 5.324219 -0.285156 5.773438 -0.945312 L 5.941406 0 L 8.070312 0 L 7.933594 -2.25 L 7.933594 -12 L 5.566406 -12 L 5.566406 -7.273438 C 5.113281 -7.800781 4.453125 -8.144531 3.523438 -8.144531 Z M 5.566406 -5.355469 L 5.566406 -2.59375 C 5.371094 -2.308594 4.921875 -1.84375 4.214844 -1.84375 C 3.285156 -1.84375 2.925781 -2.535156 2.925781 -3.703125 L 2.925781 -4.246094 C 2.925781 -5.414062 3.285156 -6.105469 4.214844 -6.105469 C 4.921875 -6.105469 5.371094 -5.640625 5.566406 -5.355469 Z M 5.566406 -5.355469 "/></g></g></g><g fill="#000000" fill-opacity="1"><g transform="translate(134.2731, 230.477738)"><g><path d="M 7.890625 -3.121094 L 7.890625 -4.183594 C 7.890625 -6.480469 6.734375 -8.144531 4.214844 -8.144531 C 1.710938 -8.144531 0.449219 -6.480469 0.449219 -4.183594 L 0.449219 -3.765625 C 0.449219 -1.46875 1.664062 0.195312 4.304688 0.195312 C 6.601562 0.195312 7.890625 -0.976562 7.890625 -2.488281 L 7.890625 -2.550781 L 5.65625 -2.550781 C 5.65625 -2.070312 5.144531 -1.605469 4.320312 -1.605469 C 3.433594 -1.605469 2.910156 -2.011719 2.820312 -3.121094 Z M 4.171875 -6.34375 C 5.011719 -6.34375 5.429688 -5.863281 5.503906 -4.828125 L 2.835938 -4.828125 C 2.910156 -5.863281 3.328125 -6.34375 4.171875 -6.34375 Z M 4.171875 -6.34375 "/></g></g></g><g fill="#000000" fill-opacity="1"><g transform="translate(142.613096, 230.477738)"><g/></g><g transform="translate(145.613096, 230.477738)"><g><path d="M 0.808594 0 L 3.179688 0 L 3.179688 -12 L 0.808594 -12 Z M 0.808594 0 "/></g></g></g><g fill="#000000" fill-opacity="1"><g transform="translate(149.603089, 230.477738)"><g><path d="M 5.519531 0 L 7.648438 0 L 7.5 -2.25 L 7.5 -5.113281 C 7.5 -7.035156 6.71875 -8.144531 4.125 -8.144531 C 1.5 -8.144531 0.75 -6.839844 0.75 -5.460938 L 0.75 -5.324219 L 2.984375 -5.324219 C 2.984375 -5.851562 3.195312 -6.34375 4.050781 -6.34375 C 4.859375 -6.34375 5.113281 -5.953125 5.128906 -5.175781 L 3.300781 -4.890625 C 1.636719 -4.636719 0.449219 -4.066406 0.449219 -2.339844 L 0.449219 -2.191406 C 0.449219 -0.914062 1.09375 0.195312 2.878906 0.195312 C 3.988281 0.195312 4.816406 -0.226562 5.371094 -0.824219 Z M 3.75 -1.726562 C 3.058594 -1.726562 2.804688 -2.128906 2.804688 -2.535156 L 2.804688 -2.625 C 2.804688 -3.105469 3.046875 -3.449219 3.78125 -3.570312 L 5.128906 -3.78125 L 5.128906 -2.324219 C 4.875 -2.054688 4.425781 -1.726562 3.75 -1.726562 Z M 3.75 -1.726562 "/></g></g></g><g fill="#000000" fill-opacity="1"><g transform="translate(157.838086, 230.477738)"><g><path d="M 7.980469 0 L 7.980469 -5.386719 C 7.980469 -6.824219 7.320312 -8.144531 5.519531 -8.144531 C 4.289062 -8.144531 3.464844 -7.636719 2.96875 -6.929688 L 2.789062 -7.949219 L 0.675781 -7.949219 L 0.808594 -5.699219 L 0.808594 0 L 3.179688 0 L 3.179688 -5.355469 C 3.359375 -5.640625 3.824219 -6.105469 4.574219 -6.105469 C 5.386719 -6.105469 5.625 -5.566406 5.625 -4.996094 L 5.625 0 Z M 7.980469 0 "/></g></g></g><g fill="#000000" fill-opacity="1"><g transform="translate(166.538078, 230.477738)"><g><path d="M 5.445312 -0.164062 C 5.445312 0.914062 5.011719 1.273438 4.09375 1.273438 C 3.105469 1.273438 2.835938 0.75 2.835938 0 L 0.601562 0 L 0.601562 0.316406 C 0.601562 1.921875 1.484375 3.195312 4.140625 3.195312 C 6.644531 3.195312 7.816406 2.039062 7.816406 -0.148438 L 7.816406 -5.699219 L 7.949219 -7.949219 L 5.835938 -7.949219 L 5.671875 -7.035156 C 5.21875 -7.679688 4.515625 -8.144531 3.40625 -8.144531 C 1.289062 -8.144531 0.449219 -6.554688 0.449219 -4.425781 L 0.449219 -4.003906 C 0.449219 -1.738281 1.289062 -0.285156 3.40625 -0.285156 C 4.335938 -0.285156 4.996094 -0.601562 5.445312 -1.09375 Z M 4.09375 -2.324219 C 3.238281 -2.324219 2.820312 -2.863281 2.820312 -4.003906 L 2.820312 -4.425781 C 2.820312 -5.429688 3.238281 -6.105469 4.09375 -6.105469 C 4.816406 -6.105469 5.265625 -5.640625 5.445312 -5.355469 L 5.445312 -3.074219 C 5.265625 -2.789062 4.816406 -2.324219 4.09375 -2.324219 Z M 4.09375 -2.324219 "/></g></g></g><g fill="#000000" fill-opacity="1"><g transform="translate(175.148074, 230.477738)"><g><path d="M 0.71875 -7.949219 L 0.71875 -2.566406 C 0.71875 -1.125 1.363281 0.195312 3.179688 0.195312 C 4.394531 0.195312 5.21875 -0.300781 5.730469 -1.003906 L 5.910156 0 L 8.023438 0 L 7.890625 -2.25 L 7.890625 -7.949219 L 5.519531 -7.949219 L 5.519531 -2.59375 C 5.324219 -2.308594 4.875 -1.84375 4.125 -1.84375 C 3.316406 -1.84375 3.074219 -2.386719 3.074219 -2.953125 L 3.074219 -7.949219 Z M 0.71875 -7.949219 "/></g></g></g><g fill="#000000" fill-opacity="1"><g transform="translate(183.848067, 230.477738)"><g><path d="M 7.890625 -3.121094 L 7.890625 -4.183594 C 7.890625 -6.480469 6.734375 -8.144531 4.214844 -8.144531 C 1.710938 -8.144531 0.449219 -6.480469 0.449219 -4.183594 L 0.449219 -3.765625 C 0.449219 -1.46875 1.664062 0.195312 4.304688 0.195312 C 6.601562 0.195312 7.890625 -0.976562 7.890625 -2.488281 L 7.890625 -2.550781 L 5.65625 -2.550781 C 5.65625 -2.070312 5.144531 -1.605469 4.320312 -1.605469 C 3.433594 -1.605469 2.910156 -2.011719 2.820312 -3.121094 Z M 4.171875 -6.34375 C 5.011719 -6.34375 5.429688 -5.863281 5.503906 -4.828125 L 2.835938 -4.828125 C 2.910156 -5.863281 3.328125 -6.34375 4.171875 -6.34375 Z M 4.171875 -6.34375 "/></g></g></g><g fill="#000000" fill-opacity="1"><g transform="translate(192.188063, 230.477738)"><g><path d="M 3.960938 -1.605469 C 3.164062 -1.605469 2.878906 -1.996094 2.878906 -2.519531 L 0.523438 -2.519531 L 0.523438 -2.445312 C 0.523438 -0.898438 1.636719 0.195312 3.960938 0.195312 C 6.253906 0.195312 7.410156 -0.824219 7.410156 -2.476562 L 7.410156 -2.609375 C 7.410156 -4.289062 6.089844 -4.695312 4.09375 -4.859375 C 3.179688 -4.933594 2.953125 -5.144531 2.953125 -5.625 C 2.953125 -6.058594 3.300781 -6.34375 3.960938 -6.34375 C 4.679688 -6.34375 4.980469 -5.96875 4.980469 -5.339844 L 7.304688 -5.339844 L 7.304688 -5.414062 C 7.304688 -7.125 6.300781 -8.144531 3.960938 -8.144531 C 2.070312 -8.144531 0.613281 -7.378906 0.613281 -5.550781 L 0.613281 -5.414062 C 0.613281 -3.914062 1.589844 -3.359375 3.839844 -3.179688 C 4.769531 -3.105469 5.023438 -2.878906 5.023438 -2.386719 C 5.023438 -1.933594 4.726562 -1.605469 3.960938 -1.605469 Z M 3.960938 -1.605469 "/></g></g></g><g fill="#000000" fill-opacity="1"><g transform="translate(200.10806, 230.477738)"><g/></g></g><g fill="#000000" fill-opacity="1"><g transform="translate(203.10806, 230.477738)"><g><path d="M 5.519531 0 L 7.648438 0 L 7.5 -2.25 L 7.5 -5.113281 C 7.5 -7.035156 6.71875 -8.144531 4.125 -8.144531 C 1.5 -8.144531 0.75 -6.839844 0.75 -5.460938 L 0.75 -5.324219 L 2.984375 -5.324219 C 2.984375 -5.851562 3.195312 -6.34375 4.050781 -6.34375 C 4.859375 -6.34375 5.113281 -5.953125 5.128906 -5.175781 L 3.300781 -4.890625 C 1.636719 -4.636719 0.449219 -4.066406 0.449219 -2.339844 L 0.449219 -2.191406 C 0.449219 -0.914062 1.09375 0.195312 2.878906 0.195312 C 3.988281 0.195312 4.816406 -0.226562 5.371094 -0.824219 Z M 1.335938 -11.699219 L 2.941406 -8.941406 L 5.28125 -8.941406 L 3.914062 -11.699219 Z M 3.75 -1.726562 C 3.058594 -1.726562 2.804688 -2.128906 2.804688 -2.535156 L 2.804688 -2.625 C 2.804688 -3.105469 3.046875 -3.449219 3.78125 -3.570312 L 5.128906 -3.78125 L 5.128906 -2.324219 C 4.875 -2.054688 4.425781 -1.726562 3.75 -1.726562 Z M 3.75 -1.726562 "/></g></g></g><g fill="#000000" fill-opacity="1"><g transform="translate(211.343056, 230.477738)"><g/></g><g transform="translate(214.343056, 230.477738)"><g><path d="M 5.203125 0.195312 C 7.378906 0.195312 8.160156 -1.410156 8.160156 -3.703125 L 8.160156 -4.246094 C 8.160156 -6.539062 7.378906 -8.144531 5.203125 -8.144531 C 4.09375 -8.144531 3.390625 -7.648438 2.941406 -6.976562 L 2.773438 -7.949219 L 0.660156 -7.949219 L 0.796875 -5.699219 L 0.796875 3 L 3.164062 3 L 3.164062 -0.675781 C 3.613281 -0.148438 4.261719 0.195312 5.203125 0.195312 Z M 4.515625 -6.105469 C 5.429688 -6.105469 5.789062 -5.414062 5.789062 -4.246094 L 5.789062 -3.703125 C 5.789062 -2.535156 5.429688 -1.84375 4.515625 -1.84375 C 3.808594 -1.84375 3.359375 -2.308594 3.164062 -2.59375 L 3.164062 -5.355469 C 3.359375 -5.640625 3.808594 -6.105469 4.515625 -6.105469 Z M 4.515625 -6.105469 "/></g></g></g><g fill="#000000" fill-opacity="1"><g transform="translate(222.953052, 230.477738)"><g><path d="M 4.171875 0.195312 C 6.734375 0.195312 7.890625 -1.410156 7.890625 -3.703125 L 7.890625 -4.246094 C 7.890625 -6.539062 6.734375 -8.144531 4.171875 -8.144531 C 1.621094 -8.144531 0.449219 -6.539062 0.449219 -4.246094 L 0.449219 -3.703125 C 0.449219 -1.410156 1.621094 0.195312 4.171875 0.195312 Z M 4.171875 -1.84375 C 3.238281 -1.84375 2.820312 -2.535156 2.820312 -3.703125 L 2.820312 -4.246094 C 2.820312 -5.414062 3.238281 -6.105469 4.171875 -6.105469 C 5.113281 -6.105469 5.519531 -5.414062 5.519531 -4.246094 L 5.519531 -3.703125 C 5.519531 -2.535156 5.113281 -1.84375 4.171875 -1.84375 Z M 4.171875 -1.84375 "/></g></g></g><g fill="#000000" fill-opacity="1"><g transform="translate(231.293048, 230.477738)"><g><path d="M 5.070312 -8.144531 C 4.140625 -8.144531 3.421875 -7.679688 2.953125 -7.019531 L 2.789062 -7.949219 L 0.675781 -7.949219 L 0.808594 -5.699219 L 0.808594 0 L 3.179688 0 L 3.179688 -5.160156 C 3.390625 -5.460938 3.929688 -5.851562 4.890625 -5.851562 L 5.296875 -5.851562 L 5.296875 -8.128906 C 5.234375 -8.144531 5.144531 -8.144531 5.070312 -8.144531 Z M 5.070312 -8.144531 "/></g></g></g><g fill="#000000" fill-opacity="1"><g transform="translate(237.068045, 230.477738)"><g><path d="M 3.871094 -7.949219 L 3.871094 -10.199219 L 1.5 -10.199219 L 1.5 -7.949219 L 0.285156 -7.949219 L 0.285156 -5.878906 L 1.5 -5.878906 L 1.5 -2.761719 C 1.5 -0.570312 2.699219 0.195312 4.484375 0.195312 C 5.203125 0.195312 5.625 0.0742188 5.761719 0 L 5.761719 -1.949219 C 5.671875 -1.90625 5.296875 -1.84375 5.039062 -1.84375 C 4.320312 -1.84375 3.871094 -2.039062 3.871094 -3.015625 L 3.871094 -5.878906 L 5.910156 -5.878906 L 5.910156 -7.949219 Z M 3.871094 -7.949219 "/></g></g></g><g fill="#000000" fill-opacity="1"><g transform="translate(243.533041, 230.477738)"><g><path d="M 7.890625 -3.121094 L 7.890625 -4.183594 C 7.890625 -6.480469 6.734375 -8.144531 4.214844 -8.144531 C 1.710938 -8.144531 0.449219 -6.480469 0.449219 -4.183594 L 0.449219 -3.765625 C 0.449219 -1.46875 1.664062 0.195312 4.304688 0.195312 C 6.601562 0.195312 7.890625 -0.976562 7.890625 -2.488281 L 7.890625 -2.550781 L 5.65625 -2.550781 C 5.65625 -2.070312 5.144531 -1.605469 4.320312 -1.605469 C 3.433594 -1.605469 2.910156 -2.011719 2.820312 -3.121094 Z M 4.410156 -11.699219 L 3.046875 -8.941406 L 5.386719 -8.941406 L 6.988281 -11.699219 Z M 4.171875 -6.34375 C 5.011719 -6.34375 5.429688 -5.863281 5.503906 -4.828125 L 2.835938 -4.828125 C 2.910156 -5.863281 3.328125 -6.34375 4.171875 -6.34375 Z M 4.171875 -6.34375 "/></g></g></g><g fill="#000000" fill-opacity="1"><g transform="translate(251.873049, 230.477738)"><g><path d="M 7.890625 -3.121094 L 7.890625 -4.183594 C 7.890625 -6.480469 6.734375 -8.144531 4.214844 -8.144531 C 1.710938 -8.144531 0.449219 -6.480469 0.449219 -4.183594 L 0.449219 -3.765625 C 0.449219 -1.46875 1.664062 0.195312 4.304688 0.195312 C 6.601562 0.195312 7.890625 -0.976562 7.890625 -2.488281 L 7.890625 -2.550781 L 5.65625 -2.550781 C 5.65625 -2.070312 5.144531 -1.605469 4.320312 -1.605469 C 3.433594 -1.605469 2.910156 -2.011719 2.820312 -3.121094 Z M 4.171875 -6.34375 C 5.011719 -6.34375 5.429688 -5.863281 5.503906 -4.828125 L 2.835938 -4.828125 C 2.910156 -5.863281 3.328125 -6.34375 4.171875 -6.34375 Z M 4.171875 -6.34375 "/></g></g></g><g fill="#000000" fill-opacity="1"><g transform="translate(260.213044, 230.477738)"><g/></g><g transform="translate(263.213044, 230.477738)"><g><path d="M 3.523438 -8.144531 C 1.351562 -8.144531 0.570312 -6.539062 0.570312 -4.246094 L 0.570312 -3.703125 C 0.570312 -1.410156 1.351562 0.195312 3.523438 0.195312 C 4.621094 0.195312 5.324219 -0.285156 5.773438 -0.945312 L 5.941406 0 L 8.070312 0 L 7.933594 -2.25 L 7.933594 -12 L 5.566406 -12 L 5.566406 -7.273438 C 5.113281 -7.800781 4.453125 -8.144531 3.523438 -8.144531 Z M 5.566406 -5.355469 L 5.566406 -2.59375 C 5.371094 -2.308594 4.921875 -1.84375 4.214844 -1.84375 C 3.285156 -1.84375 2.925781 -2.535156 2.925781 -3.703125 L 2.925781 -4.246094 C 2.925781 -5.414062 3.285156 -6.105469 4.214844 -6.105469 C 4.921875 -6.105469 5.371094 -5.640625 5.566406 -5.355469 Z M 5.566406 -5.355469 "/></g></g></g><g fill="#000000" fill-opacity="1"><g transform="translate(271.943032, 230.477738)"><g><path d="M 7.890625 -3.121094 L 7.890625 -4.183594 C 7.890625 -6.480469 6.734375 -8.144531 4.214844 -8.144531 C 1.710938 -8.144531 0.449219 -6.480469 0.449219 -4.183594 L 0.449219 -3.765625 C 0.449219 -1.46875 1.664062 0.195312 4.304688 0.195312 C 6.601562 0.195312 7.890625 -0.976562 7.890625 -2.488281 L 7.890625 -2.550781 L 5.65625 -2.550781 C 5.65625 -2.070312 5.144531 -1.605469 4.320312 -1.605469 C 3.433594 -1.605469 2.910156 -2.011719 2.820312 -3.121094 Z M 4.171875 -6.34375 C 5.011719 -6.34375 5.429688 -5.863281 5.503906 -4.828125 L 2.835938 -4.828125 C 2.910156 -5.863281 3.328125 -6.34375 4.171875 -6.34375 Z M 4.171875 -6.34375 "/></g></g></g><g fill="#000000" fill-opacity="1"><g transform="translate(280.283027, 230.477738)"><g/></g><g transform="translate(283.283027, 230.477738)"><g><path d="M 12.226562 0 L 12.226562 -5.476562 C 12.226562 -6.976562 11.519531 -8.144531 9.871094 -8.144531 C 8.683594 -8.144531 7.90625 -7.621094 7.425781 -6.914062 C 7.078125 -7.664062 6.40625 -8.144531 5.339844 -8.144531 C 4.199219 -8.144531 3.433594 -7.664062 2.953125 -6.988281 L 2.789062 -7.949219 L 0.675781 -7.949219 L 0.808594 -5.699219 L 0.808594 0 L 3.179688 0 L 3.179688 -5.414062 C 3.359375 -5.699219 3.734375 -6.105469 4.394531 -6.105469 C 5.054688 -6.105469 5.339844 -5.730469 5.339844 -5.101562 L 5.339844 0 L 7.695312 0 L 7.695312 -5.414062 C 7.890625 -5.699219 8.25 -6.105469 8.925781 -6.105469 C 9.585938 -6.105469 9.871094 -5.730469 9.871094 -5.101562 L 9.871094 0 Z M 12.226562 0 "/></g></g></g><g fill="#000000" fill-opacity="1"><g transform="translate(296.228011, 230.477738)"><g><path d="M 5.519531 0 L 7.648438 0 L 7.5 -2.25 L 7.5 -5.113281 C 7.5 -7.035156 6.71875 -8.144531 4.125 -8.144531 C 1.5 -8.144531 0.75 -6.839844 0.75 -5.460938 L 0.75 -5.324219 L 2.984375 -5.324219 C 2.984375 -5.851562 3.195312 -6.34375 4.050781 -6.34375 C 4.859375 -6.34375 5.113281 -5.953125 5.128906 -5.175781 L 3.300781 -4.890625 C 1.636719 -4.636719 0.449219 -4.066406 0.449219 -2.339844 L 0.449219 -2.191406 C 0.449219 -0.914062 1.09375 0.195312 2.878906 0.195312 C 3.988281 0.195312 4.816406 -0.226562 5.371094 -0.824219 Z M 3.75 -1.726562 C 3.058594 -1.726562 2.804688 -2.128906 2.804688 -2.535156 L 2.804688 -2.625 C 2.804688 -3.105469 3.046875 -3.449219 3.78125 -3.570312 L 5.128906 -3.78125 L 5.128906 -2.324219 C 4.875 -2.054688 4.425781 -1.726562 3.75 -1.726562 Z M 3.75 -1.726562 "/></g></g></g><g fill="#000000" fill-opacity="1"><g transform="translate(304.462995, 230.477738)"><g><path d="M 0.808594 0 L 3.179688 0 L 3.179688 -7.949219 L 0.808594 -7.949219 Z M 3.238281 -11.578125 L 0.75 -11.578125 L 0.75 -9.074219 L 3.238281 -9.074219 Z M 3.238281 -11.578125 "/></g></g></g><g fill="#000000" fill-opacity="1"><g transform="translate(308.453001, 230.477738)"><g><path d="M 7.980469 0 L 7.980469 -5.386719 C 7.980469 -6.824219 7.320312 -8.144531 5.519531 -8.144531 C 4.289062 -8.144531 3.464844 -7.636719 2.96875 -6.929688 L 2.789062 -7.949219 L 0.675781 -7.949219 L 0.808594 -5.699219 L 0.808594 0 L 3.179688 0 L 3.179688 -5.355469 C 3.359375 -5.640625 3.824219 -6.105469 4.574219 -6.105469 C 5.386719 -6.105469 5.625 -5.566406 5.625 -4.996094 L 5.625 0 Z M 7.980469 0 "/></g></g></g><g fill="#000000" fill-opacity="1"><g transform="translate(317.152982, 230.477738)"><g><path d="M 3.238281 -2.503906 L 0.75 -2.503906 L 0.75 0 L 3.238281 0 Z M 3.238281 -2.503906 "/></g></g></g><g fill="#2b59ff" fill-opacity="1"><g transform="translate(149.293324, 195.669083)"><g><path d="M 8.949219 0 C 16.878906 0 21.257812 -4.226562 21.257812 -11.753906 C 21.257812 -19.316406 16.910156 -23.542969 8.949219 -23.542969 L 2.097656 -23.542969 L 2.097656 0 Z M 6.542969 -19.5625 L 8.917969 -19.5625 C 13.667969 -19.5625 16.816406 -17.21875 16.816406 -11.753906 C 16.816406 -5.925781 13.578125 -3.980469 8.886719 -3.980469 L 6.542969 -3.980469 Z M 6.542969 -19.5625 "/></g></g></g><g fill="#2b59ff" fill-opacity="1"><g transform="translate(171.747604, 195.669083)"><g><path d="M 6.878906 0.339844 C 8.363281 0.339844 9.71875 0.09375 10.800781 -0.617188 C 11.445312 -1.019531 11.941406 -1.574219 12.371094 -2.34375 L 12.371094 0 L 16.539062 0 L 16.539062 -9.007812 C 16.539062 -11.417969 16.539062 -14.132812 14.5 -15.921875 C 13.207031 -17.125 11.261719 -17.679688 9.257812 -17.679688 C 5.832031 -17.679688 2.46875 -15.828125 1.851562 -11.785156 L 5.984375 -11.785156 C 6.292969 -13.421875 7.652344 -14.410156 9.226562 -14.410156 C 10.214844 -14.410156 11.015625 -14.132812 11.539062 -13.578125 C 12.0625 -13.019531 12.34375 -12.1875 12.371094 -11.136719 L 7.21875 -10.183594 C 5.769531 -9.90625 4.289062 -9.472656 3.179688 -8.699219 C 1.976562 -7.867188 1.203125 -6.601562 1.203125 -4.75 C 1.203125 -1.449219 3.609375 0.339844 6.878906 0.339844 Z M 7.898438 -2.929688 C 6.449219 -2.929688 5.367188 -3.609375 5.367188 -4.90625 C 5.367188 -5.492188 5.585938 -5.925781 5.925781 -6.261719 C 6.417969 -6.726562 7.128906 -7.035156 8.332031 -7.25 L 12.464844 -8.085938 C 12.402344 -5.800781 11.941406 -4.320312 10.121094 -3.425781 C 9.441406 -3.085938 8.671875 -2.929688 7.898438 -2.929688 Z M 7.898438 -2.929688 "/></g></g></g><g fill="#2b59ff" fill-opacity="1"><g transform="translate(189.976289, 195.669083)"><g><path d="M 6.046875 0 L 6.046875 -8.023438 C 6.046875 -10.304688 6.511719 -11.695312 7.4375 -12.621094 C 8.113281 -13.269531 9.101562 -13.667969 10.523438 -13.667969 L 11.476562 -13.667969 L 11.476562 -17.679688 L 10.984375 -17.679688 C 8.949219 -17.679688 7.375 -17.0625 6.046875 -15.242188 L 6.046875 -17.308594 L 1.882812 -17.308594 L 1.882812 0 Z M 6.046875 0 "/></g></g></g><g fill="#2b59ff" fill-opacity="1"><g transform="translate(202.03621, 195.669083)"><g><path d="M 9.378906 0.339844 C 13.855469 0.339844 16.507812 -1.882812 16.507812 -5.246094 C 16.507812 -9.226562 12.804688 -9.90625 9.75 -10.492188 C 7.621094 -10.890625 5.769531 -11.230469 5.769531 -12.652344 C 5.769531 -13.730469 6.789062 -14.410156 8.453125 -14.410156 C 10.152344 -14.410156 11.632812 -13.667969 12.125 -11.785156 L 16.042969 -11.785156 C 15.425781 -15.550781 12.527344 -17.679688 8.484375 -17.679688 C 4.90625 -17.679688 1.789062 -16.105469 1.789062 -12.496094 C 1.789062 -8.640625 5.308594 -7.898438 8.300781 -7.3125 C 10.492188 -6.878906 12.402344 -6.480469 12.402344 -4.9375 C 12.402344 -3.640625 11.109375 -2.929688 9.347656 -2.929688 C 7.21875 -2.929688 5.707031 -3.949219 5.183594 -5.832031 L 1.078125 -5.832031 C 1.667969 -1.480469 5.429688 0.339844 9.378906 0.339844 Z M 9.378906 0.339844 "/></g></g></g><g fill="#2b59ff" fill-opacity="1"><g transform="translate(219.802234, 195.669083)"><g><path d="M 9.378906 0.339844 C 13.855469 0.339844 16.507812 -1.882812 16.507812 -5.246094 C 16.507812 -9.226562 12.804688 -9.90625 9.75 -10.492188 C 7.621094 -10.890625 5.769531 -11.230469 5.769531 -12.652344 C 5.769531 -13.730469 6.789062 -14.410156 8.453125 -14.410156 C 10.152344 -14.410156 11.632812 -13.667969 12.125 -11.785156 L 16.042969 -11.785156 C 15.425781 -15.550781 12.527344 -17.679688 8.484375 -17.679688 C 4.90625 -17.679688 1.789062 -16.105469 1.789062 -12.496094 C 1.789062 -8.640625 5.308594 -7.898438 8.300781 -7.3125 C 10.492188 -6.878906 12.402344 -6.480469 12.402344 -4.9375 C 12.402344 -3.640625 11.109375 -2.929688 9.347656 -2.929688 C 7.21875 -2.929688 5.707031 -3.949219 5.183594 -5.832031 L 1.078125 -5.832031 C 1.667969 -1.480469 5.429688 0.339844 9.378906 0.339844 Z M 9.378906 0.339844 "/></g></g></g><g fill="#2b59ff" fill-opacity="1"><g transform="translate(237.568258, 195.669083)"><g><path d="M 11.941406 0 L 11.941406 -19.5625 L 19.097656 -19.5625 L 19.097656 -23.542969 L 0.308594 -23.542969 L 0.308594 -19.5625 L 7.496094 -19.5625 L 7.496094 0 Z M 11.941406 0 "/></g></g></g><g fill="#2b59ff" fill-opacity="1"><g transform="translate(256.999844, 195.669083)"><g><path d="M 3.980469 -19.222656 C 5.367188 -19.222656 6.542969 -20.148438 6.542969 -21.597656 C 6.542969 -22.988281 5.367188 -23.972656 3.980469 -23.972656 C 2.5625 -23.972656 1.417969 -22.988281 1.417969 -21.597656 C 1.417969 -20.148438 2.5625 -19.222656 3.980469 -19.222656 Z M 6.046875 0 L 6.046875 -17.308594 L 1.882812 -17.308594 L 1.882812 0 Z M 6.046875 0 "/></g></g></g><g fill="#2b59ff" fill-opacity="1"><g transform="translate(264.957539, 195.669083)"><g><path d="M 6.046875 0 L 6.046875 -9.164062 C 6.046875 -11.386719 6.386719 -12.558594 7.066406 -13.359375 C 7.558594 -13.914062 8.269531 -14.253906 9.164062 -14.253906 C 10.890625 -14.253906 11.910156 -13.175781 11.910156 -10.832031 L 11.910156 0 L 16.074219 0 L 16.074219 -9.164062 C 16.074219 -11.167969 16.324219 -12.527344 17.125 -13.421875 C 17.585938 -13.914062 18.265625 -14.253906 19.191406 -14.253906 C 20.949219 -14.253906 21.90625 -13.207031 21.90625 -10.832031 L 21.90625 0 L 26.074219 0 L 26.074219 -11.355469 C 26.074219 -15.210938 24.28125 -17.679688 20.394531 -17.679688 C 18.113281 -17.679688 16.445312 -16.847656 15.304688 -14.902344 C 14.75 -16.753906 13.019531 -17.679688 10.769531 -17.679688 C 8.980469 -17.679688 7.40625 -17 6.046875 -15.117188 L 6.046875 -17.308594 L 1.882812 -17.308594 L 1.882812 0 Z M 6.046875 0 "/></g></g></g><g fill="#2b59ff" fill-opacity="1"><g transform="translate(292.809481, 195.669083)"><g><path d="M 9.996094 0.339844 C 14.625 0.339844 17.277344 -2.46875 18.296875 -5.832031 L 14.039062 -5.832031 C 13.484375 -4.414062 12.125 -3.238281 10.152344 -3.238281 C 8.363281 -3.238281 6.941406 -4.164062 6.140625 -5.769531 C 5.832031 -6.292969 5.554688 -7.066406 5.492188 -7.804688 L 18.574219 -7.804688 L 18.574219 -8.699219 C 18.574219 -14.964844 14.347656 -17.679688 9.875 -17.679688 C 3.949219 -17.679688 1.171875 -13.082031 1.171875 -8.546875 C 1.171875 -3.425781 4.691406 0.339844 9.996094 0.339844 Z M 5.675781 -10.921875 C 5.738281 -11.386719 5.894531 -11.972656 6.355469 -12.527344 C 7.160156 -13.761719 8.453125 -14.378906 9.996094 -14.378906 C 11.507812 -14.378906 12.867188 -13.761719 13.667969 -12.527344 C 14.101562 -12.003906 14.253906 -11.386719 14.316406 -10.921875 Z M 5.675781 -10.921875 "/></g></g></g></svg>